<?xml version="1.0" standalone="no"?>
<!DOCTYPE svg PUBLIC "-//W3C//DTD SVG 1.1//EN" "http://www.w3.org/Graphics/SVG/1.1/DTD/svg11.dtd" >
<svg>
<metadata>
Created by FontForge 20090914 at Sat Mar 25 08:24:11 2017
 By www-data
&#194;&#169; 2014 Apple Inc. All rights reserved.
</metadata>
<defs>
<font id="SFUIDisplay-Ultralight" horiz-adv-x="0" >
  <font-face 
    font-family="SF UI Display"
    font-weight="100"
    font-stretch="normal"
    units-per-em="2048"
    panose-1="0 0 2 0 0 0 0 0 0 0"
    ascent="1638"
    descent="-410"
    x-height="1076"
    cap-height="1443"
    bbox="-467 -833 2396 2083"
    underline-thickness="50"
    underline-position="-25"
    unicode-range="U+0020-U+FB02"
  />
<missing-glyph horiz-adv-x="1293" 
d="M120 0v1365h1053v-1365h-1053zM501 313c0 -31.333 11.168 -57.001 33.501 -77.001s51.166 -30 86.499 -30c36.667 0 66.167 9.83301 88.5 29.5s33.5 45.5 33.5 77.5c0 32.667 -11.167 58.834 -33.5 78.501s-51.833 29.5 -88.5 29.5c-36 0 -65 -10 -87 -30
s-33 -46 -33 -78zM339.001 887.999l169 -0.000976562c0.666992 39.333 12.167 70.833 34.5 94.5s52.5 35.5 90.5 35.5c36 0 65 -10 87 -30s33 -46.667 33 -80c0 -25.333 -6.83301 -47.166 -20.5 -65.499s-41.167 -42.5 -82.5 -72.5c-46 -32 -78 -65.333 -96 -100
s-25.333 -75 -22 -121l1 -18h166v15c0 32 6.33301 57.333 19 76s42 44.334 88 77.001c48.667 34.667 83 68.667 103 102s30 72 30 116c0 75.333 -27 135.833 -81 181.5s-125.667 68.5 -215 68.5c-95.333 0 -170.5 -25.333 -225.5 -76s-81.167 -118.334 -78.5 -203.001z" />
    <glyph glyph-name=".notdef" horiz-adv-x="1293" 
d="M120 0v1365h1053v-1365h-1053zM501 313c0 -31.333 11.168 -57.001 33.501 -77.001s51.166 -30 86.499 -30c36.667 0 66.167 9.83301 88.5 29.5s33.5 45.5 33.5 77.5c0 32.667 -11.167 58.834 -33.5 78.501s-51.833 29.5 -88.5 29.5c-36 0 -65 -10 -87 -30
s-33 -46 -33 -78zM339.001 887.999l169 -0.000976562c0.666992 39.333 12.167 70.833 34.5 94.5s52.5 35.5 90.5 35.5c36 0 65 -10 87 -30s33 -46.667 33 -80c0 -25.333 -6.83301 -47.166 -20.5 -65.499s-41.167 -42.5 -82.5 -72.5c-46 -32 -78 -65.333 -96 -100
s-25.333 -75 -22 -121l1 -18h166v15c0 32 6.33301 57.333 19 76s42 44.334 88 77.001c48.667 34.667 83 68.667 103 102s30 72 30 116c0 75.333 -27 135.833 -81 181.5s-125.667 68.5 -215 68.5c-95.333 0 -170.5 -25.333 -225.5 -76s-81.167 -118.334 -78.5 -203.001z" />
    <glyph glyph-name="space" unicode=" " horiz-adv-x="381" 
 />
    <glyph glyph-name="exclam" unicode="!" horiz-adv-x="500" 
d="M223 1443h54l-1 -1032h-52zM250 -10c-16 0 -29.667 5.66699 -41 17s-17 25 -17 41s5.66699 29.5 17 40.5s25 16.5 41 16.5s29.667 -5.5 41 -16.5s17 -24.5 17 -40.5s-5.66699 -29.667 -17 -41s-25 -17 -41 -17z" />
    <glyph glyph-name="quotedbl" unicode="&#x22;" horiz-adv-x="494" 
d="M147 998h-48v445h48v-445zM395 998h-49v445h49v-445z" />
    <glyph glyph-name="numbersign" unicode="#" horiz-adv-x="1229" 
d="M1181 951h-282l-91 -454h269l-9 -46h-269l-95 -451h-49l95 451h-405l-94 -451h-49l96 451h-257l8 46h258l91 454h-244l8 46h244l94 453h48l-94 -453h405l94 453h48l-94 -453h283zM446 951l-91 -455h405l90 455h-404z" />
    <glyph glyph-name="dollar" unicode="$" horiz-adv-x="1179" 
d="M609 -176h-43.9961v156c-134.667 4.66699 -248.334 45.334 -341.001 122.001s-140.334 170 -143.001 280h49c4.66699 -95.333 49 -177.166 133 -245.499s184.667 -104.833 302 -109.5v696l-5 2c-163.333 39.333 -278 86 -344 140s-99 129 -99 225
c0 104.667 42.167 192 126.5 262s191.5 107 321.5 111v133h44v-133c122.667 -4.66699 227.167 -41.834 313.5 -111.501s131.166 -152.5 134.499 -248.5h-50c-3.33301 82 -43.833 153.667 -121.5 215s-169.834 94.333 -276.501 99v-655l6 -1
c174 -40 296.167 -89.333 366.5 -148s105.5 -140.334 105.5 -245.001c0 -108 -45 -198.333 -135 -271s-204.333 -111.667 -343 -117v-156zM1037 367c0 90.667 -31.833 161.833 -95.5 213.5s-174.5 96.167 -332.5 133.5v-687c120.667 4 222.167 38.667 304.5 104
s123.5 144 123.5 236zM166.004 1092c0 -82.667 29.668 -147.668 89.001 -195.001s162.666 -88.666 309.999 -123.999v644c-114 -3.33301 -209 -36 -285 -98s-114 -137.667 -114 -227z" />
    <glyph glyph-name="percent" unicode="%" horiz-adv-x="1395" 
d="M1345 331c0 -104 -21.167 -186.833 -63.5 -248.5s-100.833 -92.5 -175.5 -92.5s-133.167 30.833 -175.5 92.5s-63.5 144.5 -63.5 248.5s21.167 186.833 63.5 248.5s100.833 92.5 175.5 92.5s133.167 -30.833 175.5 -92.5s63.5 -144.5 63.5 -248.5zM1106 32
c59.333 0 105.833 27 139.5 81s50.5 126.667 50.5 218c0 90.667 -16.833 163.167 -50.5 217.5s-80.167 81.5 -139.5 81.5s-106 -27.167 -140 -81.5s-51 -126.833 -51 -217.5s16.833 -163.167 50.5 -217.5s80.5 -81.5 140.5 -81.5zM528 1110
c0 -104 -21.167 -186.833 -63.5 -248.5s-100.833 -92.5 -175.5 -92.5s-133.167 30.833 -175.5 92.5s-63.5 144.5 -63.5 248.5s21.167 186.833 63.5 248.5s100.833 92.5 175.5 92.5s133.167 -30.833 175.5 -92.5s63.5 -144.5 63.5 -248.5zM289 811
c59.333 0 105.833 27 139.5 81s50.5 126.667 50.5 218c0 90.667 -16.833 163.167 -50.5 217.5s-80.167 81.5 -139.5 81.5s-106 -27.167 -140 -81.5s-51 -126.833 -51 -217.5s16.833 -163.167 50.5 -217.5s80.5 -81.5 140.5 -81.5zM182 0h-59l1081 1443h59z" />
    <glyph glyph-name="ampersand" unicode="&#x26;" horiz-adv-x="1375" 
d="M1229 0l-208.998 215.002c-62.667 -72.667 -138.834 -130 -228.501 -172s-180.5 -63 -272.5 -63c-132 0 -239.5 35.667 -322.5 107s-124.5 162.666 -124.5 273.999c0 149.333 91 273 273 371c0.666992 0 10.667 5.16699 30 15.5l58 30.5l29 16
c-88 88 -148.167 158.333 -180.5 211s-48.5 106 -48.5 160c0 83.333 32.667 153.666 98 210.999s145.333 86 240 86c93.333 0 171.166 -27.833 233.499 -83.5s93.5 -125.834 93.5 -210.501c0 -68.667 -28.333 -134 -85 -196s-148.667 -125 -276 -189l478 -503
c42.667 64 76.667 135.167 102 213.5s38 151.5 38 219.5v88h49v-87c0 -73.333 -14.167 -152.666 -42.5 -237.999s-65.5 -161 -111.5 -227l244 -249h-65zM374.002 695.002c-168.667 -90 -252.999 -201.667 -252.999 -335c0 -94.667 37.167 -174 111.5 -238
s170.166 -96 287.499 -96c81.333 0 165.5 20.5 252.5 61.5s157.5 93.5 211.5 157.5l-490 514c-79.333 -42.667 -119.333 -64 -120 -64zM506.003 816.002c228.667 109.333 342.999 226.333 342.999 351c0 70 -27 129.167 -81 177.5s-120 72.5 -198 72.5
c-77.333 0 -144.666 -25.167 -201.999 -75.5s-86 -109.5 -86 -177.5c0 -47.333 15.333 -95 46 -143s90 -116.333 178 -205z" />
    <glyph glyph-name="quotesingle" unicode="'" horiz-adv-x="246" 
d="M147 998h-48v445h48v-445z" />
    <glyph glyph-name="parenleft" unicode="(" horiz-adv-x="550" 
d="M469 -251l-54 -0.000976562c-85.333 110.667 -151.333 238.5 -198 383.5s-70 299.833 -70 464.5s23.167 318.834 69.5 462.501s112.833 271.5 199.5 383.5h53c-84.667 -112.667 -151.167 -242.5 -199.5 -389.5s-72.5 -299.167 -72.5 -456.5
c0 -156.667 24 -308.667 72 -456s114.667 -278 200 -392z" />
    <glyph glyph-name="parenright" unicode=")" horiz-adv-x="550" 
d="M82 -251c84.667 114.667 151.167 245.501 199.5 392.501s72.5 298.833 72.5 455.5s-24.167 308.5 -72.5 455.5s-114.833 277.167 -199.5 390.5h53c86 -112 152.167 -239.833 198.5 -383.5s69.5 -297.834 69.5 -462.501s-23.167 -319.5 -69.5 -464.5
s-112.5 -272.833 -198.5 -383.5h-53z" />
    <glyph glyph-name="asterisk" unicode="*" horiz-adv-x="943" 
d="M799 829l-306 180l2 -355h-47l2 355l-306 -180l-23 40l308 176l-308 175l23 41l306 -180l-2 356h47l-2 -356l306 180l23 -40l-308 -175l308 -176z" />
    <glyph glyph-name="plus" unicode="+" horiz-adv-x="1178" 
d="M614 554v-517h-49v517h-461v47h461v503h49v-503h460v-47h-460z" />
    <glyph glyph-name="comma" unicode="," horiz-adv-x="490" 
d="M214 -211h-42l56 384h53z" />
    <glyph glyph-name="hyphen" unicode="-" horiz-adv-x="865" 
d="M760 554h-656v47h656v-47z" />
    <glyph glyph-name="period" unicode="." horiz-adv-x="488" 
d="M244 -10c-15.333 0 -28.666 5.66699 -39.999 17s-17 24.666 -17 39.999c0 16 5.66699 29.667 17 41s24.666 17 39.999 17c16 0 29.5 -5.66699 40.5 -17s16.5 -25 16.5 -41c0 -15.333 -5.5 -28.666 -16.5 -39.999s-24.5 -17 -40.5 -17z" />
    <glyph glyph-name="slash" unicode="/" horiz-adv-x="497" 
d="M48 -332h-48l448 1775h49z" />
    <glyph glyph-name="zero" unicode="0" horiz-adv-x="1181" 
d="M590 -20c-155.333 0 -278.333 66.667 -369 200s-136 314 -136 542c0 227.333 45.333 407.666 136 540.999s213.667 200 369 200s278.333 -66.667 369 -200s136 -313.666 136 -540.999c0 -228 -45.333 -408.667 -136 -542s-213.667 -200 -369 -200zM590 26
c140 0 250.833 62.667 332.5 188s122.5 294.666 122.5 507.999s-40.833 382.5 -122.5 507.5s-192.5 187.5 -332.5 187.5c-139.333 0 -250 -62.5 -332 -187.5s-123 -294.167 -123 -507.5s40.833 -382.666 122.5 -507.999s192.5 -188 332.5 -188z" />
    <glyph glyph-name="one" unicode="1" horiz-adv-x="774" 
d="M484 0l-0.000976562 1390h-2c-11.333 -6.66699 -143.666 -89 -396.999 -247v57l399 250h49v-1450h-49z" />
    <glyph glyph-name="two" unicode="2" horiz-adv-x="1138" 
d="M128 1062c3.33301 116.667 45.6699 212.67 127.003 288.003s183.666 113 306.999 113c120.667 0 222 -37.333 304 -112s123 -167.334 123 -278.001c0 -75.333 -21.333 -149 -64 -221s-123.334 -170.667 -242.001 -296l-476 -505v-4h845v-47h-919v41l514 547
c114.667 120.667 192 214.167 232 280.5s60 134.166 60 203.499c0 97.333 -36.333 179.166 -109 245.499s-162.334 99.5 -269.001 99.5c-108 0 -198.167 -33.5 -270.5 -100.5s-109.833 -151.833 -112.5 -254.5h-50z" />
    <glyph glyph-name="three" unicode="3" horiz-adv-x="1126" 
d="M376 728l0.000976562 46.002h158c116.667 0 211.334 30.167 284.001 90.5s109 138.166 109 233.499c0 91.333 -36 167.333 -108 228s-162.333 91 -271 91c-102.667 0 -190.167 -30 -262.5 -90s-111.5 -134.667 -117.5 -224h-49
c5.33301 103.333 48.666 189.166 129.999 257.499s181 102.5 299 102.5c122.667 0 224.834 -34.5 306.501 -103.5s122.5 -155.5 122.5 -259.5c0 -89.333 -27.5 -164.666 -82.5 -225.999s-130.5 -101 -226.5 -119v-4c113.333 -7.33301 203.666 -43.5 270.999 -108.5
s101 -148.833 101 -251.5c0 -118.667 -45.333 -216.834 -136 -294.501s-205 -116.5 -343 -116.5c-134 0 -246.5 36.167 -337.5 108.5s-137.167 161.833 -138.5 268.5h50c0.666992 -61.333 20 -117.333 58 -168s89.5 -90.5 154.5 -119.5s136.5 -43.5 214.5 -43.5
c122.667 0 224.667 34.5 306 103.5s122 156.167 122 261.5s-40.333 187.833 -121 247.5s-192.334 89.5 -335.001 89.5h-158z" />
    <glyph glyph-name="four" unicode="4" horiz-adv-x="1164" 
d="M816 0v379h-748v47c222 334 465 675 729 1023l68 1v-1025h237v-46h-237v-379h-49zM128 428v-3h688v965h-2c-228 -297.333 -456.667 -618 -686 -962z" />
    <glyph glyph-name="five" unicode="5" horiz-adv-x="1163" 
d="M590 -20c-121.333 0 -226.001 34.332 -314.001 102.999s-138 154.667 -150 258h50c12 -90 57.5 -165 136.5 -225s171.833 -90 278.5 -90c126 0 230.833 41 314.5 123s125.5 184.667 125.5 308c0 122.667 -41 225.5 -123 308.5s-183.667 124.5 -305 124.5
c-84 0 -161.333 -20.167 -232 -60.5s-126.667 -96.166 -168 -167.499h-54l89 781h747v-47h-704l-74 -659h2c41.333 61.333 97.333 109.833 168 145.5s146.334 53.5 227.001 53.5c136 0 249.5 -45.667 340.5 -137s136.5 -205 136.5 -341
c0 -137.333 -46.667 -251.333 -140 -342s-210.333 -136 -351 -136z" />
    <glyph glyph-name="six" unicode="6" horiz-adv-x="1166" 
d="M609 -20c-74.667 0 -143.831 14.502 -207.498 43.502s-117.834 70.833 -162.501 125.5c-99.333 119.333 -149 296.333 -149 531c0 239.333 47.333 429.666 142 570.999s222.334 212 383.001 212c114.667 0 212.5 -32.333 293.5 -97s129.167 -149.334 144.5 -254.001h-50
c-14.667 88.667 -58.334 161.667 -131.001 219s-158.334 86 -257.001 86c-154 0 -273.167 -73.333 -357.5 -220s-123.833 -349 -118.5 -607h4c23.333 103.333 78.833 188.166 166.5 254.499s187.834 99.5 300.501 99.5c136 0 249.833 -45.5 341.5 -136.5
s137.5 -203.833 137.5 -338.5c0 -139.333 -45.833 -255.666 -137.5 -348.999s-205.834 -140 -342.501 -140zM609.003 26.002c121.333 0 223.334 42.501 306.001 127.501s124 190.167 124 315.5c0 121.333 -41.5 223.166 -124.5 305.499s-185.5 123.5 -307.5 123.5
c-76.667 0 -148.834 -18.667 -216.501 -56s-121.5 -87.833 -161.5 -151.5s-60 -131.5 -60 -203.5c0 -130 42.167 -239.333 126.5 -328s188.833 -133 313.5 -133z" />
    <glyph glyph-name="seven" unicode="7" horiz-adv-x="1074" 
d="M240 0l701 1394v2h-857v47h910v-50l-698 -1393h-56z" />
    <glyph glyph-name="eight" unicode="8" horiz-adv-x="1178" 
d="M588 -20c-148 0 -267.334 38.835 -358.001 116.502s-136 177.167 -136 298.5c0 93.333 31.833 174.166 95.5 242.499s146.5 111.5 248.5 129.5v2c-88.667 18.667 -159.667 57 -213 115s-80 127.333 -80 208c0 108.667 41.333 197.667 124 267s189 104 319 104
c130.667 0 237.334 -34.667 320.001 -104s124 -158.333 124 -267c0 -78 -27 -146.333 -81 -205s-124.333 -98 -211 -118v-2c101.333 -18 184 -61.333 248 -130s96 -149.334 96 -242.001c0 -122 -45.5 -221.667 -136.5 -299s-210.833 -116 -359.5 -116zM587.999 26.002
c133.333 0 241.001 34.833 323.001 104.5s123 157.834 123 264.501c0 101.333 -40.833 184.333 -122.5 249s-189.167 97 -322.5 97c-132.667 0 -240 -32.333 -322 -97s-123 -147.667 -123 -249c0 -106.667 40.667 -194.834 122 -264.501s188.666 -104.5 321.999 -104.5z
M588 789.002c114.667 0 209 28.5 283 85.5s111 129.167 111 216.5c0 93.333 -36 171 -108 233s-167 93 -285 93c-117.333 0 -212.333 -31 -285 -93s-109 -139.667 -109 -233c0 -87.333 37 -159.5 111 -216.5s168 -85.5 282 -85.5z" />
    <glyph glyph-name="nine" unicode="9" horiz-adv-x="1166" 
d="M551 -20c-118 0 -216.671 32.5 -296.004 97.5s-126.666 149.167 -141.999 252.5h50c14.667 -88 56.834 -160.667 126.501 -218s156.834 -86 261.501 -86c146.667 0 261.334 64.833 344.001 194.5s126.667 307.5 132 533.5c0.666992 22 0.333984 55 -0.999023 99h-1h-1
c-22 -100 -77.5 -184 -166.5 -252s-189.5 -102 -301.5 -102c-138 0 -252.333 44.667 -343 134s-136 200.666 -136 333.999c0 93.333 20.5 177.833 61.5 253.5s98.167 135 171.5 178s155.333 64.5 246 64.5c153.333 0 276.666 -57.333 369.999 -172
c99.333 -118.667 149 -294.667 149 -528c0 -239.333 -46.667 -429.666 -140 -570.999s-221.333 -212 -384 -212zM557.996 545c78 0 150.832 19.168 218.499 57.501s121.334 89.166 161.001 152.499s59.5 130.333 59.5 201c0 128.667 -42.167 237.667 -126.5 327
s-189.166 134 -314.499 134c-122.667 0 -224.834 -43 -306.501 -129s-122.5 -193 -122.5 -321c0 -117.333 40.667 -217 122 -299s184.333 -123 309 -123z" />
    <glyph glyph-name="colon" unicode=":" horiz-adv-x="488" 
d="M244 -10c-15.333 0 -28.666 5.66699 -39.999 17s-17 24.666 -17 39.999c0 16 5.66699 29.667 17 41s24.666 17 39.999 17c16 0 29.5 -5.66699 40.5 -17s16.5 -25 16.5 -41c0 -15.333 -5.5 -28.666 -16.5 -39.999s-24.5 -17 -40.5 -17zM244 770
c-15.333 0 -28.666 5.66699 -39.999 17s-17 24.666 -17 39.999c0 16 5.66699 29.5 17 40.5s24.666 16.5 39.999 16.5c16 0 29.5 -5.5 40.5 -16.5s16.5 -24.5 16.5 -40.5c0 -15.333 -5.5 -28.666 -16.5 -39.999s-24.5 -17 -40.5 -17z" />
    <glyph glyph-name="semicolon" unicode=";" horiz-adv-x="488" 
d="M244 770c-15.333 0 -28.666 5.66699 -39.999 17s-17 24.666 -17 39.999c0 16 5.66699 29.5 17 40.5s24.666 16.5 39.999 16.5c16 0 29.5 -5.5 40.5 -16.5s16.5 -24.5 16.5 -40.5c0 -15.333 -5.5 -28.666 -16.5 -39.999s-24.5 -17 -40.5 -17zM204 -211h-41l56 384h53z" />
    <glyph glyph-name="less" unicode="&#x3c;" horiz-adv-x="1179" 
d="M987 1074l-736 -539v-5l736 -537v-56l-796 573v44l796 576v-56z" />
    <glyph glyph-name="equal" unicode="=" horiz-adv-x="1179" 
d="M1073 368h-967v46h967v-46zM1073 741h-967v46h967v-46z" />
    <glyph glyph-name="greater" unicode="&#x3e;" horiz-adv-x="1179" 
d="M191 1074v56l796 -575v-45l-796 -573v56l737 537v5z" />
    <glyph glyph-name="question" unicode="?" horiz-adv-x="911" 
d="M62 1105c6.66699 102.667 46.1699 187.667 118.503 255s161.166 101 266.499 101c109.333 0 200.333 -33.333 273 -100s109 -150 109 -250c0 -66 -16.333 -124.5 -49 -175.5s-88 -104.167 -166 -159.5c-70 -50 -117.167 -94.333 -141.5 -133
s-36.5 -88.334 -36.5 -149.001v-97h-49v99c0 66 13.5 121 40.5 165s77.5 93.333 151.5 148c71.333 52.667 122.333 102.167 153 148.5s46 96.833 46 151.5c0 88.667 -31.833 161.834 -95.5 219.501s-142.167 86.5 -235.5 86.5c-90.667 0 -167.334 -28.5 -230.001 -85.5
s-98.334 -131.833 -107.001 -224.5h-48zM414.003 -10c-15.333 0 -28.666 5.66699 -39.999 17s-17 25 -17 41s5.66699 29.5 17 40.5s24.666 16.5 39.999 16.5c16.667 0 30.5 -5.5 41.5 -16.5s16.5 -24.5 16.5 -40.5s-5.5 -29.667 -16.5 -41s-24.833 -17 -41.5 -17z" />
    <glyph glyph-name="at" unicode="@" horiz-adv-x="1727" 
d="M857 968c-86 0 -158.167 -36.167 -216.5 -108.5s-87.5 -161.833 -87.5 -268.5c0 -109.333 28.167 -198.333 84.5 -267s129.5 -103 219.5 -103c84.667 0 152.5 35 203.5 105s76.5 162.667 76.5 278c0 112 -25 200.667 -75 266s-118.333 98 -205 98zM883 1431
c116 0 223.334 -18.668 322.001 -56.001s182.667 -89 252 -155s123.666 -146.167 162.999 -240.5s59 -196.5 59 -306.5c0 -158.667 -26.333 -281.667 -79 -369s-126.667 -131 -222 -131c-68.667 0 -124.5 19 -167.5 57s-67.167 90.333 -72.5 157h-4
c-26 -68 -62.833 -120.167 -110.5 -156.5s-103.5 -54.5 -167.5 -54.5c-103.333 0 -187.666 38.667 -252.999 116s-98 177.333 -98 300c0 123.333 32.833 224.333 98.5 303s149.834 118 252.501 118c63.333 0 120.666 -18.5 171.999 -55.5s86.333 -85.167 105 -144.5h4v178
h48v-551c0 -73.333 16.5 -128.833 49.5 -166.5s81.5 -56.5 145.5 -56.5c80 0 142 39.667 186 119s66 192 66 338c0 103.333 -18.5 199.333 -55.5 288s-88.333 164.167 -154 226.5s-145 111 -238 146s-194.167 52.5 -303.5 52.5s-211.666 -19.667 -306.999 -59
s-176.666 -93.166 -243.999 -161.499s-120.5 -150.666 -159.5 -246.999s-58.5 -199.833 -58.5 -310.5c0 -92.667 12 -180.167 36 -262.5s58.667 -155.666 104 -219.999s99.166 -119.833 161.499 -166.5s133.166 -82.334 212.499 -107.001s163.333 -37 252 -37
c141.333 0 250 11.667 326 35v-46c-70.667 -22 -179.334 -33 -326.001 -33c-118 0 -227.5 20.5 -328.5 61.5s-187 97.833 -258 170.5s-126.5 161 -166.5 265s-60 217.333 -60 340c0 156.667 35 297.667 105 423s167.333 223.166 292 293.499s265 105.5 421 105.5z" />
    <glyph glyph-name="A" unicode="A" horiz-adv-x="1201" 
d="M1125 0l-189 501h-671l-190 -501h-55l555 1443h51l555 -1443h-56zM598 1374l-315 -827h635l-315 827h-5z" />
    <glyph glyph-name="B" unicode="B" horiz-adv-x="1139" 
d="M602 0l-478 0.000976562v1443h464c125.333 0 227 -32.167 305 -96.5s117 -148.5 117 -252.5c0 -88.667 -26.167 -163.834 -78.5 -225.501s-123.833 -101.5 -214.5 -119.5v-4c107.333 -10.667 195.833 -48.5 265.5 -113.5s104.5 -149.167 104.5 -252.5
c0 -116 -43.333 -208.167 -130 -276.5s-205 -102.5 -355 -102.5zM174 1397v-632h401c116 0 209.167 29.833 279.5 89.5s105.5 139.167 105.5 238.5c0 91.333 -34.333 164.833 -103 220.5s-159.667 83.5 -273 83.5h-410zM174 46.001l426 -0.000976562
c136 0 243 30.167 321 90.5s117 141.5 117 243.5c0 104.667 -41 187.334 -123 248.001s-194.333 91 -337 91h-404v-673z" />
    <glyph glyph-name="C" unicode="C" horiz-adv-x="1303" 
d="M692 -20c-191.333 0 -344.004 68 -458.004 204s-171 318.667 -171 548c0 224.667 56.5 402.667 169.5 534s266.167 197 459.5 197c143.333 0 269 -46.833 377 -140.5s168.333 -208.167 181 -343.5h-49c-13.333 122.667 -69 226.167 -167 310.5s-212 126.5 -342 126.5
c-177.333 0 -318.166 -61.5 -422.499 -184.5s-156.5 -289.5 -156.5 -499.5c0 -216 52.5 -387.5 157.5 -514.5s245.5 -190.5 421.5 -190.5c135.333 0 251 38.333 347 115s150 176 162 298h49c-7.33301 -89.333 -36.166 -169 -86.499 -239s-116.666 -124.333 -198.999 -163
s-173.166 -58 -272.499 -58z" />
    <glyph glyph-name="D" unicode="D" horiz-adv-x="1313" 
d="M124 1443h436c220 0 390 -62.667 510 -188s180 -303 180 -533c0 -230.667 -60 -408.667 -180 -534s-290 -188 -510 -188h-436v1443zM175 1396v-1349h384c205.333 0 363.5 58.333 474.5 175s166.5 283.334 166.5 500.001c0 216 -55.5 382.333 -166.5 499
s-269.167 175 -474.5 175h-384z" />
    <glyph glyph-name="E" unicode="E" horiz-adv-x="1050" 
d="M950 47v-47h-826v1443h826v-47h-776v-632h740v-46h-740v-671h776z" />
    <glyph glyph-name="F" unicode="F" horiz-adv-x="1020" 
d="M174 0h-50v1443h817v-47h-767v-634h706v-47h-706v-715z" />
    <glyph glyph-name="G" unicode="G" horiz-adv-x="1332" 
d="M1259 564c0 -181.333 -51.1709 -323.999 -153.504 -427.999s-242.5 -156 -420.5 -156c-121.333 0 -229.166 31.5 -323.499 94.5s-167.666 151.5 -219.999 265.5s-78.5 244.333 -78.5 391c0 219.333 57 396.166 171 530.499s264.333 201.5 451 201.5
c142 0 264.833 -39.333 368.5 -118s168.834 -181.667 195.501 -309h-49c-28 114.667 -89 206.667 -183 276s-204.667 104 -332 104c-172 0 -310.333 -62.667 -415 -188s-157 -291 -157 -497c0 -208.667 53 -378.167 159 -508.5s243.667 -195.5 413 -195.5
c162.667 0 290.834 47.667 384.501 143s140.5 226 140.5 392v100h-531v46h580v-144z" />
    <glyph glyph-name="H" unicode="H" horiz-adv-x="1296" 
d="M1172 0h-50v718h-948v-718h-50v1443h50v-678h948v678h50v-1443z" />
    <glyph glyph-name="I" unicode="I" horiz-adv-x="298" 
d="M174 0h-50v1443h50v-1443z" />
    <glyph glyph-name="J" unicode="J" horiz-adv-x="933" 
d="M41 315l49.001 -0.00195312c4.66699 -85.333 37.5 -154.833 98.5 -208.5s137.5 -80.5 229.5 -80.5c106 0 189.333 31.667 250 95s91 151 91 263v1059h50v-1062c0 -123.333 -34.833 -221.166 -104.5 -293.499s-165.167 -108.5 -286.5 -108.5
c-106.667 0 -195.334 31.333 -266.001 94s-107.667 143.334 -111 242.001z" />
    <glyph glyph-name="K" unicode="K" horiz-adv-x="1107" 
d="M174 0h-50v1443h50v-836h4l784 836h64l-594 -635l664 -808h-64l-636 773l-222 -237v-536z" />
    <glyph glyph-name="L" unicode="L" horiz-adv-x="1009" 
d="M949 47v-47h-825v1443h50v-1396h775z" />
    <glyph glyph-name="M" unicode="M" horiz-adv-x="1576" 
d="M1451 1443v-1443h-49v1328h-4l-584 -1327h-53l-584 1327h-4v-1328h-49v1443h53l609 -1380h4l606 1380h55z" />
    <glyph glyph-name="N" unicode="N" horiz-adv-x="1315" 
d="M174 0h-50v1443h55l958 -1348h4v1348h50v-1443h-46l-967 1359h-4v-1359z" />
    <glyph glyph-name="O" unicode="O" horiz-adv-x="1398" 
d="M699 1463c194 0 348.499 -66.833 463.499 -200.5s172.5 -313.834 172.5 -540.501c0 -227.333 -57.333 -407.833 -172 -541.5s-269.334 -200.5 -464.001 -200.5c-195.333 0 -350.166 66.833 -464.499 200.5s-171.5 314.167 -171.5 541.5
c0 226.667 57.333 406.834 172 540.501s269.334 200.5 464.001 200.5zM698.999 1416c-179.333 0 -321.833 -62.5 -427.5 -187.5s-158.5 -293.833 -158.5 -506.5c0 -212 53 -380.833 159 -506.5s248.333 -188.5 427 -188.5c178 0 320.167 62.833 426.5 188.5
s159.5 294.5 159.5 506.5s-53 380.667 -159 506s-248.333 188 -427 188z" />
    <glyph glyph-name="P" unicode="P" horiz-adv-x="1087" 
d="M124 1443h448c141.333 0 253.833 -38 337.5 -114s125.5 -178.333 125.5 -307s-42 -231 -126 -307s-196.667 -114 -338 -114h-397v-601h-50v1443zM174 1396v-748h394c128 0 229.5 33.5 304.5 100.5s112.5 158.167 112.5 273.5c0 116 -37.5 207.333 -112.5 274
s-176.5 100 -304.5 100h-394z" />
    <glyph glyph-name="Q" unicode="Q" horiz-adv-x="1398" 
d="M1215 -182h-59.001l-166 227c-86.667 -43.333 -183.667 -65 -291 -65c-195.333 0 -350.166 66.833 -464.499 200.5s-171.5 314.167 -171.5 541.5c0 226.667 57.333 406.834 172 540.501s269.334 200.5 464.001 200.5c194 0 348.5 -66.833 463.5 -200.5
s172.5 -313.834 172.5 -540.501c0 -149.333 -26.333 -280.5 -79 -393.5s-127.334 -199.833 -224.001 -260.5zM698.999 27c96.667 0 184.333 19.333 263 58l-201 275h59l183 -252c90.667 56 160.167 137 208.5 243s72.5 229.667 72.5 371c0 211.333 -53 379.833 -159 505.5
s-248 188.5 -426 188.5c-178.667 0 -321 -62.833 -427 -188.5s-159 -294.167 -159 -505.5c0 -212 53 -380.833 159 -506.5s248.333 -188.5 427 -188.5z" />
    <glyph glyph-name="R" unicode="R" horiz-adv-x="1124" 
d="M174 1396l-0.000976562 -719.998h397c128.667 0 229.834 32.167 303.501 96.5s110.5 152.166 110.5 263.499c0 113.333 -36.667 201.666 -110 264.999s-175 95 -305 95h-396zM173.999 630.002v-630h-50v1443h448c144 0 257.333 -36.167 340 -108.5
s124 -171.833 124 -298.5c0 -105.333 -30.667 -193 -92 -263s-146.333 -114.333 -255 -133l381 -640h-57l-376 632c-24 -1.33301 -46 -2 -66 -2h-397z" />
    <glyph glyph-name="S" unicode="S" horiz-adv-x="1114" 
d="M52 382l50 0.00195312c5.33301 -104 51.833 -189.333 139.5 -256s197.5 -100 329.5 -100c128.667 0 234 33.167 316 99.5s123 150.166 123 251.499c0 80 -28.333 144.333 -85 193s-149 89 -277 121l-167 42c-134.667 33.333 -233.167 77.833 -295.5 133.5
s-93.5 127.5 -93.5 215.5c0 108.667 45 199.334 135 272.001s198.667 109 326 109c133.333 0 245.333 -34.5 336 -103.5s138.334 -154.833 143.001 -257.5h-50c-4.66699 90 -47.667 165 -129 225s-181.333 90 -300 90c-114.667 0 -211.834 -31.833 -291.501 -95.5
s-119.5 -143.5 -119.5 -239.5c0 -76 28.333 -137.667 85 -185s146.667 -86.333 270 -117l165 -41c138 -34.667 238.833 -80.167 302.5 -136.5s95.5 -130.833 95.5 -223.5c0 -116.667 -45.5 -212.334 -136.5 -287.001s-209.167 -112 -354.5 -112
c-146 0 -267.333 37.667 -364 113s-147.667 171.666 -153 288.999z" />
    <glyph glyph-name="T" unicode="T" horiz-adv-x="1117" 
d="M583 0h-49v1396h-521v47h1091v-47h-521v-1396z" />
    <glyph glyph-name="U" unicode="U" horiz-adv-x="1307" 
d="M174 1443l0.000976562 -943c0 -145.333 43.167 -260.5 129.5 -345.5s202.833 -127.5 349.5 -127.5c147.333 0 264.166 42.5 350.499 127.5s129.5 200.167 129.5 345.5v943h50v-944c0 -158 -47.833 -284 -143.5 -378s-224.5 -141 -386.5 -141s-290.667 47 -386 141
s-143 220 -143 378v944h50z" />
    <glyph glyph-name="V" unicode="V" horiz-adv-x="1203" 
d="M627 0h-51l-556 1443h55l524 -1372h4l525 1372h54z" />
    <glyph glyph-name="W" unicode="W" horiz-adv-x="1777" 
d="M886 1338l-398 -1338h-41l-406 1443h52l374 -1344h4l396 1344h43l395 -1344h5l374 1344h51l-406 -1443h-40l-398 1338h-5z" />
    <glyph glyph-name="X" unicode="X" horiz-adv-x="1190" 
d="M41 0l524 721v1l-523 721h60l493 -680h1l494 680h59l-523 -721l522 -722h-60l-492 680h-1l-495 -680h-59z" />
    <glyph glyph-name="Y" unicode="Y" horiz-adv-x="1148" 
d="M600 0h-50v631l-529 812h60l492 -758h4l491 758h59l-527 -812v-631z" />
    <glyph glyph-name="Z" unicode="Z" horiz-adv-x="1147" 
d="M64 0v42l954 1350v4h-925v47h989v-43l-953 -1349v-4h954v-47h-1019z" />
    <glyph glyph-name="bracketleft" unicode="[" horiz-adv-x="556" 
d="M149 1443h346v-45h-297v-1589h312v-44h-361v1678z" />
    <glyph glyph-name="backslash" unicode="\" horiz-adv-x="497" 
d="M449 -332l-449 1775h49l448 -1775h-48z" />
    <glyph glyph-name="bracketright" unicode="]" horiz-adv-x="556" 
d="M407 1443v-1678h-361v44h312v1589h-297v45h346z" />
    <glyph glyph-name="asciicircum" unicode="^" horiz-adv-x="749" 
d="M373 1355l-266 -530h-55l302 596h41l302 -596h-55l-266 530h-3z" />
    <glyph glyph-name="underscore" unicode="_" horiz-adv-x="801" 
d="M867 -196h-933v44h933v-44z" />
    <glyph glyph-name="grave" unicode="`" horiz-adv-x="686" 
d="M509 1254h-53l-246 303h63z" />
    <glyph glyph-name="a" unicode="a" horiz-adv-x="1021" 
d="M449 30c112.667 0 209.168 35.833 289.501 107.5s120.5 157.834 120.5 258.501v182l-381 -29c-110 -8.66699 -193.833 -35.334 -251.5 -80.001s-86.5 -105.667 -86.5 -183c0 -74 29.167 -135.167 87.5 -183.5s132.166 -72.5 221.499 -72.5zM446.001 -16
c-104.667 0 -190.167 28.167 -256.5 84.5s-99.5 128.833 -99.5 217.5c0 91.333 32 162.666 96 213.999s158.667 82 284 92l389 30v97c0 102 -28.833 182 -86.5 240s-137.167 87 -238.5 87c-100.667 0 -182 -24.667 -244 -74s-100 -119 -114 -209h-47
c11.333 102 53.333 182.333 126 241s165.667 88 279 88c115.333 0 206.5 -33.167 273.5 -99.5s100.5 -156.5 100.5 -270.5v-722h-49v245h-1c-26 -77.333 -77.167 -140.166 -153.5 -188.499s-162.5 -72.5 -258.5 -72.5z" />
    <glyph glyph-name="b" unicode="b" horiz-adv-x="1116" 
d="M600 -16c-100.667 0 -189.167 30.333 -265.5 91s-127.5 142 -153.5 244h-2v-319h-49v1506h49v-745h2c25.333 100 75.833 180.167 151.5 240.5s164.5 90.5 266.5 90.5c133.333 0 242 -51.167 326 -153.5s126 -235.5 126 -399.5s-42 -297.5 -126 -400.5
s-192.333 -154.5 -325 -154.5zM595 1046c-121.333 0 -221.001 -47.667 -299.001 -143s-117 -217.333 -117 -366c0 -148 38.833 -269.333 116.5 -364s177.167 -142 298.5 -142c120.667 0 218.834 47 294.501 141s113.5 216.333 113.5 367c0 150 -37.667 272 -113 366
s-173.333 141 -294 141z" />
    <glyph glyph-name="c" unicode="c" horiz-adv-x="1019" 
d="M958 760l-50.001 -0.00195312c-17.333 84 -60.166 152.667 -128.499 206s-150.166 80 -245.499 80c-128.667 0 -230.667 -45.833 -306 -137.5s-113 -215.167 -113 -370.5s37.5 -278.666 112.5 -369.999s177.167 -137 306.5 -137c96.667 0 178.667 25.333 246 76
s109.333 117.334 126 200.001h50c-17.333 -96.667 -64.333 -174.667 -141 -234s-170.334 -89 -281.001 -89c-143.333 0 -257.333 49.833 -342 149.5s-127 234.5 -127 404.5c0 169.333 42.333 304 127 404s198.667 150 342 150c108.667 0 202 -31.167 280 -93.5
s126 -141.833 144 -238.5z" />
    <glyph glyph-name="d" unicode="d" horiz-adv-x="1126" 
d="M524 -16c-134.667 0 -244.833 51.5 -330.5 154.5s-128.5 236.167 -128.5 399.5c0 164 42.833 297.333 128.5 400s195.834 154 330.501 154c104 0 194.667 -31.667 272 -95s126.666 -142 147.999 -236h2v745h50v-1506h-46v322h-2
c-23.333 -97.333 -73.833 -178 -151.5 -242s-168.5 -96 -272.5 -96zM526.001 1046c-120.667 0 -219.334 -46.999 -296.001 -140.999s-115 -216 -115 -366c0 -150.667 38.333 -273 115 -367s175.334 -141 296.001 -141c122.667 0 223.334 47.167 302.001 141.5
s118 216.166 118 365.499s-39.333 271.333 -118 366s-179.334 142 -302.001 142z" />
    <glyph glyph-name="e" unicode="e" horiz-adv-x="1056" 
d="M533 1046c-120 0 -218 -42.5 -294 -127.5s-117 -197.5 -123 -337.5h825c0 138 -37.5 250 -112.5 336s-173.5 129 -295.5 129zM926 299l50.999 -0.000976562c-18.667 -93.333 -66.667 -169.166 -144 -227.499s-174.666 -87.5 -291.999 -87.5
c-146 0 -261.833 49 -347.5 147s-128.5 233.667 -128.5 407c0 166.667 42.667 300.667 128 402s198.666 152 339.999 152c136.667 0 247.167 -47.667 331.5 -143s126.5 -220.333 126.5 -375v-38h-876v-2c0 -158 38.667 -281.5 116 -370.5s181 -133.5 311 -133.5
c104 0 189.833 25 257.5 75s109.834 114.667 126.501 194z" />
    <glyph glyph-name="f" unicode="f" horiz-adv-x="509" 
d="M170 0v1031h-150v45h150v169c0 82 19.5 142.5 58.5 181.5s93.833 58.5 164.5 58.5c31.333 0 56 -3.33301 74 -10v-46c-20 6.66699 -44.333 10 -73 10c-116 0 -174 -67 -174 -201v-162h237v-45h-237v-1031h-50z" />
    <glyph glyph-name="g" unicode="g" horiz-adv-x="1106" 
d="M521 31c122.667 0 222.667 47.168 300 141.501s116 216.166 116 365.499s-38.667 271.333 -116 366s-177.333 142 -300 142c-120.667 0 -218.5 -47 -293.5 -141s-112.5 -216.667 -112.5 -368c0 -150 37.5 -271.833 112.5 -365.5s172.833 -140.5 293.5 -140.5z
M542 -353.999c-111.333 0 -203.667 21.332 -277 63.999s-118 99 -134 169h53c14 -55.333 53.5 -100.333 118.5 -135s145.833 -52 242.5 -52c116.667 0 211.167 27.333 283.5 82s108.5 129.334 108.5 224.001v318h-2c-22 -94.667 -71 -173.5 -147 -236.5
s-165.667 -94.5 -269 -94.5c-134.667 0 -244 51.167 -328 153.5s-126 235.5 -126 399.5s42.167 297.333 126.5 400s193.5 154 327.5 154c104 0 194 -31.833 270 -95.5s125.667 -144.167 149 -241.5h2v321h46v-1076c0 -110 -41 -196.5 -123 -259.5s-189 -94.5 -321 -94.5z
" />
    <glyph glyph-name="h" unicode="h" horiz-adv-x="1075" 
d="M130 0l-0.000976562 1506h49v-684h2c23.333 80 69.833 145 139.5 195s150.834 75 243.501 75c118.667 0 214.667 -36.167 288 -108.5s110 -168.5 110 -288.5v-695h-50v693c0 108.667 -32.5 194.667 -97.5 258s-150.5 95 -256.5 95c-110.667 0 -201.5 -37.333 -272.5 -112
s-106.5 -171 -106.5 -289v-645h-49z" />
    <glyph glyph-name="i" unicode="i" horiz-adv-x="309" 
d="M130 0v1076h49v-1076h-49zM155 1366c-13.333 0 -24.8311 4.66699 -34.498 14s-14.5 20.666 -14.5 33.999s4.83301 24.666 14.5 33.999s21.167 14 34.5 14s24.666 -4.66699 33.999 -14s14 -20.666 14 -33.999s-4.83301 -24.666 -14.5 -33.999s-20.834 -14 -33.501 -14z
" />
    <glyph glyph-name="j" unicode="j" horiz-adv-x="309" 
d="M179 1076l0.000976562 -1156c0 -92.667 -21.667 -159.5 -65 -200.5s-109.333 -61.5 -198 -61.5h-29v45h27c75.333 0 130.166 16.667 164.499 50s51.5 87.666 51.5 162.999v1160h49zM155.001 1366c-13.333 0 -24.8311 4.66699 -34.498 14s-14.5 20.666 -14.5 33.999
s4.83301 24.666 14.5 33.999s21.167 14 34.5 14s24.666 -4.66699 33.999 -14s14 -20.666 14 -33.999s-4.83301 -24.666 -14.5 -33.999s-20.834 -14 -33.501 -14z" />
    <glyph glyph-name="k" unicode="k" horiz-adv-x="913" 
d="M181 503l645 573h70l-517 -463l519 -613h-65l-493 583l-161 -142v-441h-49v1506h49v-1003h2z" />
    <glyph glyph-name="l" unicode="l" horiz-adv-x="309" 
d="M130 0v1506h49v-1506h-49z" />
    <glyph glyph-name="m" unicode="m" horiz-adv-x="1628" 
d="M120 0v1076h46v-254h2c19.333 79.333 57.833 144.166 115.5 194.499s129.167 75.5 214.5 75.5c86 0 158.833 -26 218.5 -78s96.834 -116.333 111.501 -193h2c16.667 75.333 56 139.333 118 192s137 79 225 79c102.667 0 185.334 -33.667 248.001 -101
s94 -157.333 94 -270v-721h-49v710c0 104 -26.833 186 -80.5 246s-126.834 90 -219.501 90c-96.667 0 -174.834 -35.333 -234.501 -106s-89.5 -162.667 -89.5 -276v-664h-49v708c0 100.667 -28 182.167 -84 244.5s-127.667 93.5 -215 93.5c-96.667 0 -175 -37.5 -235 -112.5
s-90 -175.167 -90 -300.5v-633h-49z" />
    <glyph glyph-name="n" unicode="n" horiz-adv-x="1063" 
d="M120 0l0.000976562 1076h46v-254h2c23.333 80.667 69.666 145.834 138.999 195.501s150.333 74.5 243 74.5c119.333 0 215.833 -36 289.5 -108s110.5 -168 110.5 -288v-696h-49v694c0 107.333 -33 192.833 -99 256.5s-152.333 95.5 -259 95.5
c-110 0 -199.833 -37.333 -269.5 -112s-104.5 -170.667 -104.5 -288v-646h-49z" />
    <glyph glyph-name="o" unicode="o" horiz-adv-x="1078" 
d="M539 -16c-142.667 0 -257.333 50.167 -344 150.5s-130 234.833 -130 403.5s43.5 303.167 130.5 403.5s201.5 150.5 343.5 150.5s256.5 -50.167 343.5 -150.5s130.5 -234.833 130.5 -403.5s-43.5 -303.167 -130.5 -403.5s-201.5 -150.5 -343.5 -150.5zM539.001 31
c128 0 230.833 45.8311 308.5 137.498s116.5 214.834 116.5 369.501c0 155.333 -38.833 278.833 -116.5 370.5s-180.5 137.5 -308.5 137.5s-230.667 -45.833 -308 -137.5s-116 -215.167 -116 -370.5s38.667 -278.666 116 -369.999s180 -137 308 -137z" />
    <glyph glyph-name="p" unicode="p" horiz-adv-x="1106" 
d="M587 1092c134 0 243.167 -51.333 327.5 -154s126.5 -236 126.5 -400c0 -164.667 -42 -298.167 -126 -400.5s-193.333 -153.5 -328 -153.5c-103.333 0 -193 31.5 -269 94.5s-125 141.833 -147 236.5h-2v-655h-49v1416h46v-321h2c22.667 96.667 72.167 177 148.5 241
s166.5 96 270.5 96zM584 31c120.667 0 218.834 46.832 294.501 140.499s113.5 215.5 113.5 365.5c0 150.667 -37.833 273.167 -113.5 367.5s-173.834 141.5 -294.501 141.5c-122 0 -221.667 -47.333 -299 -142s-116 -216.667 -116 -366s38.667 -271.166 116 -365.499
s177 -141.5 299 -141.5z" />
    <glyph glyph-name="q" unicode="q" horiz-adv-x="1116" 
d="M524 1092c104 0 194.833 -32 272.5 -96s128.167 -144.333 151.5 -241h2v321h46v-1416h-50v655h-2c-21.333 -94 -70.833 -172.667 -148.5 -236s-168.167 -95 -271.5 -95c-134.667 0 -244.834 51.333 -330.501 154s-128.5 236 -128.5 400
c0 163.333 42.833 296.5 128.5 399.5s195.834 154.5 330.501 154.5zM526 31c122.667 0 223.334 47.168 302.001 141.501s118 216.166 118 365.499s-39.333 271.333 -118 366s-179.334 142 -302.001 142c-120.667 0 -219.334 -47.333 -296.001 -142s-115 -217 -115 -367
c0 -149.333 38.333 -271 115 -365s175.334 -141 296.001 -141z" />
    <glyph glyph-name="r" unicode="r" horiz-adv-x="603" 
d="M120 0l0.000976562 1076h46v-223h2c23.333 78 60.166 137.333 110.499 178s112.5 61 186.5 61c39.333 0 75.333 -7 108 -21v-51c-33.333 16.667 -72 25 -116 25c-88 0 -158 -34.833 -210 -104.5s-78 -159.834 -78 -270.501v-670h-49z" />
    <glyph glyph-name="s" unicode="s" horiz-adv-x="905" 
d="M92 808c0 82.667 34.9971 150.666 104.997 203.999s155.667 80 257 80c107.333 0 194.833 -29.5 262.5 -88.5s106.167 -138.833 115.5 -239.5h-48c-9.33301 84 -43.166 152 -101.499 204s-134.5 78 -228.5 78c-86 0 -159.667 -22.333 -221 -67s-92 -101.334 -92 -170.001
c0 -56.667 19 -101.167 57 -133.5s98.667 -58.166 182 -77.499l167 -40c106.667 -26 183.667 -60.833 231 -104.5s71 -101.834 71 -174.501c0 -87.333 -36.667 -158.333 -110 -213s-167 -82 -281 -82c-112.667 0 -206.5 30.833 -281.5 92.5s-115.167 137.5 -120.5 227.5h50
c6.66699 -76.667 43 -141.5 109 -194.5s146.667 -79.5 242 -79.5c96.667 0 177.834 22.833 243.501 68.5s98.5 104.834 98.5 177.501c0 62 -20.667 111.333 -62 148s-109.666 66.334 -204.999 89.001l-169 39c-92 22 -160.167 53.333 -204.5 94s-66.5 94.667 -66.5 162z" />
    <glyph glyph-name="t" unicode="t" horiz-adv-x="527" 
d="M180 1364h49v-288h228v-45h-228v-796c0 -68 12.833 -116.667 38.5 -146s67.167 -44 124.5 -44l41 1h42v-46h-42c-28 -0.666992 -42.667 -1 -44 -1c-73.333 0 -126.5 18.333 -159.5 55s-49.5 96.667 -49.5 180v797h-160v45h160v288z" />
    <glyph glyph-name="u" unicode="u" horiz-adv-x="1063" 
d="M944 1076l0.00195312 -1076h-46v251h-2c-22 -76 -69.833 -139.5 -143.5 -190.5s-155.834 -76.5 -246.501 -76.5c-116.667 0 -211.334 35.5 -284.001 106.5s-109 165.833 -109 284.5v701h49v-694c0 -109.333 32.167 -195.166 96.5 -257.499s148.833 -93.5 253.5 -93.5
c108.667 0 199.5 36.333 272.5 109s109.5 168.334 109.5 287.001v649h50z" />
    <glyph glyph-name="v" unicode="v" horiz-adv-x="888" 
d="M886 1076l-408 -1076h-68l-408 1076h53l388 -1028h2l388 1028h53z" />
    <glyph glyph-name="w" unicode="w" horiz-adv-x="1406" 
d="M1404 1076l-317 -1076h-66l-317 1016h-2l-317 -1016h-66l-317 1076h55l294 -1021h2l317 1021h66l317 -1021h2l294 1021h55z" />
    <glyph glyph-name="x" unicode="x" horiz-adv-x="869" 
d="M436 506h-3l-370 -506h-61l403 548l-402 528h62l369 -489h2l369 489h62l-402 -527l401 -549h-60z" />
    <glyph glyph-name="y" unicode="y" horiz-adv-x="888" 
d="M178 -343c-17.333 0 -33.001 3 -47.001 9v47c14.667 -6 32.334 -9 53.001 -9c46.667 0 85.167 15.333 115.5 46s60.166 83.667 89.499 159l28 72l-415 1095h54l387 -1029h2l388 1029h54l-417 -1101c-49.333 -130 -92.666 -215.5 -129.999 -256.5
s-91.333 -61.5 -162 -61.5z" />
    <glyph glyph-name="z" unicode="z" horiz-adv-x="910" 
d="M58 0v47l734 982v2h-734v45h794v-47l-736 -982v-2h736v-45h-794z" />
    <glyph glyph-name="braceleft" unicode="{" horiz-adv-x="682" 
d="M146 620c58 -5.33301 100.165 -26.167 126.498 -62.5s39.5 -91.5 39.5 -165.5v-412c0 -161.333 85 -242 255 -242h71v-45h-48c-117.333 0 -201.166 24.167 -251.499 72.5s-75.5 129.166 -75.5 242.499v349c0 84 -13 142.667 -39 176s-71 50 -135 50v91
c64 0 109 17 135 51s39 93.333 39 178v292c0 111.333 24.833 190.166 74.5 236.499s133.834 69.5 252.501 69.5h48v-46h-71c-88 0 -152.5 -19.5 -193.5 -58.5s-61.5 -99.833 -61.5 -182.5v-347c0 -73.333 -13.167 -128.166 -39.5 -164.499s-68.5 -57.166 -126.5 -62.499v-20
z" />
    <glyph glyph-name="bar" unicode="|" horiz-adv-x="329" 
d="M188 -332h-47v1775h47v-1775z" />
    <glyph glyph-name="braceright" unicode="}" horiz-adv-x="683" 
d="M536 620l-0.00292969 20.001c-58 5.33301 -100.167 26.166 -126.5 62.499s-39.5 91.166 -39.5 164.499v347c0 82.667 -20.667 143.5 -62 182.5s-105.666 58.5 -192.999 58.5h-71v46h48c118.667 0 202.834 -23.167 252.501 -69.5s74.5 -125.166 74.5 -236.499v-292
c0 -84.667 13 -144 39 -178s71 -51 135 -51v-91c-64 0 -109 -16.667 -135 -50s-39 -92 -39 -176v-349c0 -113.333 -25.167 -194.166 -75.5 -242.499s-134.166 -72.5 -251.499 -72.5h-48v45h71c170 0 255 80.667 255 242v412c0 74 13.167 129.167 39.5 165.5
s68.5 57.166 126.5 62.499z" />
    <glyph glyph-name="asciitilde" unicode="~" horiz-adv-x="1179" 
d="M560 678c-48 44 -85.6689 73.833 -113.002 89.5s-55.666 23.5 -84.999 23.5c-50 0 -90.833 -21.333 -122.5 -64s-48.167 -98.334 -49.5 -167.001h-48c0 83.333 20.167 150.5 60.5 201.5s93.5 76.5 159.5 76.5c36 0 69.667 -8.5 101 -25.5s74 -49.833 128 -98.5
c44.667 -40.667 83.334 -69.667 116.001 -87s64.667 -26 96 -26c50 0 92.667 23.333 128 70s54.333 104.667 57 174h49c0 -81.333 -22.833 -150.166 -68.5 -206.499s-101.167 -84.5 -166.5 -84.5c-42.667 0 -80 8.16699 -112 24.5s-75.333 49.5 -130 99.5z" />
    <glyph glyph-name="nonbreakingspace" unicode="&#xa0;" horiz-adv-x="381" 
 />
    <glyph glyph-name="exclamdown" unicode="&#xa1;" horiz-adv-x="500" 
d="M223 -336l1 1031h52l1 -1031h-54zM250 1000c-16 0 -29.667 5.83301 -41 17.5s-17 25.5 -17 41.5s5.66699 29.667 17 41s25 17 41 17s29.667 -5.66699 41 -17s17 -25 17 -41s-5.66699 -29.833 -17 -41.5s-25 -17.5 -41 -17.5z" />
    <glyph glyph-name="cent" unicode="&#xa2;" horiz-adv-x="1179" 
d="M1071 461c-15.333 -94.667 -63.833 -171.165 -145.5 -229.498s-177.834 -89.833 -288.501 -94.5v-224h-49v225c-92 4 -174 28 -246 72s-129.333 107.667 -172 191s-64 180.333 -64 291c0 164.667 45.333 296.667 136 396s206 151.666 346 156.999v207h49v-207
c110 -4.66699 206 -37.167 288 -97.5s131.333 -138.5 148 -234.5h-50c-17.333 86 -64.833 155.333 -142.5 208s-167.5 79 -269.5 79c-131.333 0 -240.166 -45.833 -326.499 -137.5s-129.5 -215.167 -129.5 -370.5c0 -156 43 -280 129 -372s195 -138 327 -138
c102 0 192 25.167 270 75.5s124.667 118.166 140 203.499h50z" />
    <glyph glyph-name="sterling" unicode="&#xa3;" horiz-adv-x="1179" 
d="M173 46l949.998 0.000976562v-46h-1066v48c53.333 14 100.666 30.333 141.999 49s79.833 42 115.5 70s63.167 62.167 82.5 102.5s29 85.833 29 136.5c0 70 -22.667 164.667 -68 284h-257v46h240c-18 47.333 -32.167 86 -42.5 116s-20.166 67.667 -29.499 113
s-14 88.333 -14 129c0 114 39.167 205.667 117.5 275s187.5 104 327.5 104c70 0 134.5 -6.16699 193.5 -18.5s103.167 -26.166 132.5 -41.499v-49c-31.333 17.333 -75.666 32.166 -132.999 44.499s-121 18.5 -191 18.5c-126.667 0 -224.5 -30.667 -293.5 -92
s-103.5 -142 -103.5 -242c0 -40 5.16699 -83 15.5 -129s20 -82 29 -108l43.5 -120h468v-46h-451c42.667 -112 64 -206.667 64 -284c0 -51.333 -9.33301 -98.333 -28 -141s-43.667 -77.834 -75 -105.501s-63.166 -50.167 -95.499 -67.5s-66.5 -31.333 -102.5 -42v-4z" />
    <glyph glyph-name="currency" unicode="&#xa4;" horiz-adv-x="1179" 
d="M260 655c0 -90.667 32.167 -168.334 96.5 -233.001s141.833 -97 232.5 -97c91.333 0 169.166 32.333 233.499 97s96.5 142.334 96.5 233.001c0 91.333 -32.167 169.333 -96.5 234s-142.166 97 -233.499 97c-90.667 0 -168.167 -32.333 -232.5 -97
s-96.5 -142.667 -96.5 -234zM1039 1070l-167.001 -166.998c62 -70.667 93 -153.334 93 -248.001s-31.667 -177.334 -95 -248.001l169 -167l-35 -34l-167 168c-70.667 -63.333 -153.334 -95 -248.001 -95c-93.333 0 -175.666 31.333 -246.999 94l-168 -167l-34 34l167 168
c-62 70.667 -93 153 -93 247c0 95.333 31.333 178 94 248l-168 167l34 34l167 -167c71.333 62.667 154 94 248 94c94.667 0 177.334 -31 248.001 -93l167 166z" />
    <glyph glyph-name="yen" unicode="&#xa5;" horiz-adv-x="1179" 
d="M973 391h-358v-391h-50v391h-359v45h359v220h-359v44h331l-500 743h60l491 -730h4l491 730h59l-499 -743h330v-44h-358v-220h358v-45z" />
    <glyph glyph-name="brokenbar" unicode="&#xa6;" horiz-adv-x="329" 
d="M188 746h-47v697h47v-697zM188 -332h-47v703h47v-703z" />
    <glyph glyph-name="section" unicode="&#xa7;" horiz-adv-x="943" 
d="M423 340l77 -17c92.667 1.33301 168.167 25.166 226.5 71.499s87.5 105.166 87.5 176.499c0 62.667 -23.167 113.334 -69.5 152.001s-120.833 69.667 -223.5 93l-77 17c-92.667 -0.666992 -168.167 -24.167 -226.5 -70.5s-87.5 -105.166 -87.5 -176.499
c0 -62.667 23.333 -113.5 70 -152.5s121 -70.167 223 -93.5zM478 -235c-106 0 -194 24 -264 72s-109.333 111 -118 189h49c10 -64.667 45.5 -116.667 106.5 -156s136.5 -59 226.5 -59c89.333 0 163.333 21.5 222 64.5s88 97.833 88 164.5c0 58.667 -21.667 106.5 -65 143.5
s-111.666 65.833 -204.999 86.5l-106 24c-114.667 26 -198.834 62.167 -252.501 108.5s-80.5 105.833 -80.5 178.5c0 70.667 24.667 130.334 74 179.001s117.333 80.334 204 95.001v3c-85.333 22.667 -148.333 55 -189 97s-61 95.667 -61 161
c0 80 33.833 145.833 101.5 197.5s153.5 77.5 257.5 77.5c105.333 0 193 -23.667 263 -71s109.667 -110.333 119 -189h-50c-9.33301 64.667 -44.5 116.667 -105.5 156s-136.5 59 -226.5 59c-89.333 0 -163.166 -21.667 -221.499 -65s-87.5 -98 -87.5 -164
c0 -59.333 21.667 -107.333 65 -144s111.666 -65.334 204.999 -86.001l106 -25c114 -25.333 197.667 -61 251 -107s80 -105.667 80 -179c0 -70.667 -24.833 -130.5 -74.5 -179.5s-118.167 -80.833 -205.5 -95.5v-3c86.667 -22.667 150.5 -54.834 191.5 -96.501
s61.5 -95.167 61.5 -160.5c0 -80 -33.833 -146 -101.5 -198s-153.5 -78 -257.5 -78z" />
    <glyph glyph-name="dieresis" unicode="&#xa8;" horiz-adv-x="686" 
d="M204 1254c-14.667 0 -27.5 5.33301 -38.5 16s-16.5 23.334 -16.5 38.001s5.33301 27.167 16 37.5s23.667 15.5 39 15.5c14.667 0 27.334 -5.16699 38.001 -15.5s16 -22.833 16 -37.5s-5.33301 -27.334 -16 -38.001s-23.334 -16 -38.001 -16zM482 1254
c-14.667 0 -27.334 5.33301 -38.001 16s-16 23.334 -16 38.001s5.33301 27.167 16 37.5s23.334 15.5 38.001 15.5c15.333 0 28.333 -5.16699 39 -15.5s16 -22.833 16 -37.5s-5.5 -27.334 -16.5 -38.001s-23.833 -16 -38.5 -16z" />
    <glyph glyph-name="copyright" unicode="&#xa9;" horiz-adv-x="1739" 
d="M870 -138c-106 0 -206 19.502 -300 58.502s-174.833 92.167 -242.5 159.5s-121.334 148.5 -161.001 243.5s-59.5 195.833 -59.5 302.5c0 107.333 19.833 208.333 59.5 303s93.334 175.667 161.001 243s148.5 120.5 242.5 159.5s194 58.5 300 58.5
s206.167 -19.5 300.5 -58.5s175.333 -92.167 243 -159.5s121.167 -148.333 160.5 -243s59 -195.667 59 -303c0 -106.667 -19.667 -207.334 -59 -302.001s-92.833 -175.834 -160.5 -243.501s-148.667 -121 -243 -160s-194.5 -58.5 -300.5 -58.5zM870 -91.998
c132.667 0 253.667 30.999 363 92.999s195.5 148 258.5 258s94.5 232.333 94.5 367c0 135.333 -31.5 258 -94.5 368s-149.167 195.833 -258.5 257.5s-230.333 92.5 -363 92.5c-99.333 0 -193.166 -18.167 -281.499 -54.5s-164.333 -86 -228 -149s-114 -139.167 -151 -228.5
s-55.5 -184.666 -55.5 -285.999c0 -100.667 18.5 -195.667 55.5 -285s87.333 -165.5 151 -228.5s139.667 -112.833 228 -149.5s182.166 -55 281.499 -55zM1214 803.001l-47 -0.000976562c-17.333 63.333 -52.666 115 -105.999 155s-119.333 60 -198 60
c-101.333 0 -184.333 -34.5 -249 -103.5s-97 -162.833 -97 -281.5c0 -119.333 32.333 -214.333 97 -285s147.667 -106 249 -106c82.667 0 150.167 19 202.5 57s85.5 87 99.5 147h48c-16 -74.667 -54.667 -134.667 -116 -180s-139.333 -68 -234 -68
c-114.667 0 -208.834 39.333 -282.501 118s-110.5 184.334 -110.5 317.001c0 132 36.667 236.5 110 313.5s167.666 115.5 282.999 115.5c92.667 0 170.834 -25 234.501 -75s102.5 -111.333 116.5 -184z" />
    <glyph glyph-name="ordfeminine" unicode="&#xaa;" horiz-adv-x="877" 
d="M159 817c0 -60 22.5 -108.668 67.5 -146.001s103.5 -56 175.5 -56c86.667 0 161 27.167 223 81.5s93 119.833 93 196.5v151l-294 -25c-86 -7.33301 -151.667 -28.166 -197 -62.499s-68 -80.833 -68 -139.5zM397 572.999c-85.333 0 -154.168 22.333 -206.501 67
s-78.5 103.334 -78.5 176.001c0 72 25.667 128.5 77 169.5s126.333 65.5 225 73.5l303 24v88c0 74 -23.333 132.833 -70 176.5s-110 65.5 -190 65.5c-75.333 0 -135.5 -16.833 -180.5 -50.5s-73.167 -77.5 -84.5 -131.5h-46c10.667 66 42.834 119.667 96.501 161
s125.5 62 215.5 62c94.667 0 169.5 -25.333 224.5 -76s82.5 -119.334 82.5 -206.001v-594h-45v193h-5c-20.667 -58 -60.667 -105.5 -120 -142.5s-125.333 -55.5 -198 -55.5z" />
    <glyph glyph-name="guillemotleft" unicode="&#xab;" horiz-adv-x="1150" 
d="M623 571v-6l369 -407h-62l-377 408v4l377 408h62zM227 571v-6l370 -407h-63l-376 408v4l376 408h63z" />
    <glyph glyph-name="logicalnot" unicode="&#xac;" horiz-adv-x="1179" 
d="M1072 723v-540h-48v494h-917v46h965z" />
    <glyph glyph-name="registered" unicode="&#xae;" horiz-adv-x="1247" 
d="M623 463c-90.667 0 -174 22 -250 66s-136 104 -180 180s-66 159.333 -66 250s22 174.167 66 250.5s104 136.333 180 180s159.333 65.5 250 65.5c138.667 0 256.167 -48 352.5 -144s144.5 -213.333 144.5 -352c0 -138 -48.167 -255.167 -144.5 -351.5
s-213.833 -144.5 -352.5 -144.5zM623 507c126.667 0 233.832 43.667 321.499 131s131.5 194.333 131.5 321s-43.667 233.667 -131 321s-194.666 131 -321.999 131c-126.667 0 -233.667 -43.667 -321 -131s-131 -194.333 -131 -321s43.667 -233.667 131 -321
s194.333 -131 321 -131zM480.998 706l-44 -0.000976562v541h197c51.333 0 93.333 -14.5 126 -43.5s49 -69.167 49 -120.5c0 -43.333 -12.833 -79.166 -38.5 -107.499s-56.167 -44.5 -91.5 -48.5l157 -221h-53l-153 215h-149v-215zM480.998 1206v-245.001h140
c46.667 0 82.5 11.333 107.5 34s37.5 52.334 37.5 89.001s-12.833 66.167 -38.5 88.5s-61.167 33.5 -106.5 33.5h-140z" />
    <glyph glyph-name="macron" unicode="&#xaf;" horiz-adv-x="814" 
d="M699 1348v-43h-584v43h584z" />
    <glyph glyph-name="degree" unicode="&#xb0;" horiz-adv-x="550" 
d="M274 1038c-56 0 -103.833 19.832 -143.5 59.499s-59.5 87.834 -59.5 144.501c0 56 19.833 104 59.5 144s87.5 60 143.5 60c56.667 0 105 -20 145 -60s60 -88 60 -144s-20.167 -104 -60.5 -144s-88.5 -60 -144.5 -60zM274 1078c45.333 0 84 16 116 48s48 70.667 48 116
s-16 83.833 -48 115.5s-70.667 47.5 -116 47.5c-44.667 0 -83 -16 -115 -48s-48 -70.333 -48 -115c0 -45.333 16 -84 48 -116s70.333 -48 115 -48z" />
    <glyph glyph-name="plusminus" unicode="&#xb1;" horiz-adv-x="1179" 
d="M1074 113h-970v46h970v-46zM613 688v-367h-47v367h-462v45h462v344h47v-344h461v-45h-461z" />
    <glyph glyph-name="two.sups" unicode="&#xb2;" horiz-adv-x="550" 
d="M68 1588c0.666992 55.333 20.5029 101 59.5029 137s87.833 54 146.5 54c59.333 0 108.166 -17 146.499 -51s57.5 -77.333 57.5 -130c0 -34 -9.83301 -67.5 -29.5 -100.5s-55.834 -76.833 -108.501 -131.5l-202 -215v-2h362v-42h-430v35l239 253
c46.667 50 78.5 88.833 95.5 116.5s25.5 55.5 25.5 83.5c0 41.333 -14.833 75.333 -44.5 102s-67.167 40 -112.5 40c-44.667 0 -81.834 -14 -111.501 -42s-45.167 -63.667 -46.5 -107v-1h-47v1z" />
    <glyph glyph-name="three.sups" unicode="&#xb3;" horiz-adv-x="552" 
d="M189 1430l0.000976562 40h76c47.333 0 85.833 12.667 115.5 38s44.5 58 44.5 98c0 36.667 -14.833 67.667 -44.5 93s-66.834 38 -111.501 38c-44 0 -80.667 -12.333 -110 -37s-45.333 -56 -48 -94h-46c2.66699 50.667 23.167 92.167 61.5 124.5s86.5 48.5 144.5 48.5
c57.333 0 105.333 -16.167 144 -48.5s58 -72.5 58 -120.5c0 -40.667 -12.333 -75 -37 -103s-58.667 -46 -102 -54v-2c51.333 -2.66699 92.166 -19 122.499 -49s45.5 -68 45.5 -114c0 -54.667 -21.833 -100.167 -65.5 -136.5s-98.5 -54.5 -164.5 -54.5
c-64 0 -116.667 17 -158 51s-62.666 76.667 -63.999 128h47c1.33301 -38.667 18.333 -71.167 51 -97.5s74 -39.5 124 -39.5c52 0 95 14.167 129 42.5s51 63.833 51 106.5c0 44 -16.5 78.667 -49.5 104s-78.5 38 -136.5 38h-77z" />
    <glyph glyph-name="acute" unicode="&#xb4;" horiz-adv-x="686" 
d="M230 1254h-53l236 303h63z" />
    <glyph glyph-name="paragraph" unicode="&#xb6;" horiz-adv-x="1155" 
d="M733 -146l-50 -0.000976562v721h-20c-140 0 -254 40.833 -342 122.5s-132 184.834 -132 309.501c0 131.333 42.833 236.833 128.5 316.5s201.167 119.5 346.5 119.5h69v-1589zM915 -146.001v1589h50v-1589h-50z" />
    <glyph glyph-name="periodcentered" unicode="&#xb7;" horiz-adv-x="488" 
d="M244 538c-15.333 0 -28.666 5.66699 -39.999 17s-17 24.666 -17 39.999c0 16 5.66699 29.667 17 41s24.666 17 39.999 17c16 0 29.5 -5.66699 40.5 -17s16.5 -25 16.5 -41c0 -15.333 -5.5 -28.666 -16.5 -39.999s-24.5 -17 -40.5 -17z" />
    <glyph glyph-name="cedilla" unicode="&#xb8;" horiz-adv-x="686" 
d="M239 -182l0.000976562 33l69 155l44 -6l-59 -140c62.667 0 112.667 -14 150 -42s56 -65.333 56 -112c0 -49.333 -20 -89.5 -60 -120.5s-92 -46.833 -156 -47.5c-50.667 0 -91.334 5.66699 -122.001 17v43c30 -11.333 70.333 -17 121 -17c48 0 88.5 12 121.5 36
s49.5 53.333 49.5 88c0 36 -14.167 63.833 -42.5 83.5s-68.833 29.5 -121.5 29.5h-50z" />
    <glyph glyph-name="one.sups" unicode="&#xb9;" horiz-adv-x="416" 
d="M232 1107v614h-2l-179 -118v49l180 119h48v-664h-47z" />
    <glyph glyph-name="ordmasculine" unicode="&#xba;" horiz-adv-x="976" 
d="M159 1012c0 -120.667 29.833 -216.5 89.5 -287.5s139.167 -106.5 238.5 -106.5s179.166 35.5 239.499 106.5s90.5 166.833 90.5 287.5c0 122 -30.167 218.833 -90.5 290.5s-140.166 107.5 -239.499 107.5s-178.833 -35.833 -238.5 -107.5s-89.5 -168.5 -89.5 -290.5z
M487 572c-114.667 0 -206 39.667 -274 119s-102 186.333 -102 321c0 135.333 34.167 242.833 102.5 322.5s159.5 119.5 273.5 119.5c114.667 0 206.334 -39.833 275.001 -119.5s103 -187.167 103 -322.5c0 -134 -34.333 -240.833 -103 -320.5
s-160.334 -119.5 -275.001 -119.5z" />
    <glyph glyph-name="guillemotright" unicode="&#xbb;" horiz-adv-x="1150" 
d="M528 571l-370 407h63l376 -408v-4l-376 -408h-63l370 407v6zM923 571l-370 407h63l376 -408v-4l-376 -408h-63l370 407v6z" />
    <glyph glyph-name="onequarter" unicode="&#xbc;" horiz-adv-x="1374" 
d="M1184 0v160h-339v44c81.333 128 187.333 281.333 318 460h69v-462h102v-42h-102v-160h-48zM895 203v-1h290v418h-2c-115.333 -157.333 -211.333 -296.333 -288 -417zM233 779v614h-2l-179 -118v49l180 119h48v-664h-47zM148 1h-59l1081 1443h59z" />
    <glyph glyph-name="onehalf" unicode="&#xbd;" horiz-adv-x="1393" 
d="M912 481c0.666992 55.333 20.5029 101 59.5029 137s87.833 54 146.5 54c59.333 0 108.166 -17 146.499 -51s57.5 -77.333 57.5 -130c0 -34 -9.83301 -67.5 -29.5 -100.5s-55.834 -76.833 -108.501 -131.5l-202 -215v-2h362v-42h-430v35l239 253
c46.667 50 78.5 88.833 95.5 116.5s25.5 55.5 25.5 83.5c0 41.333 -14.833 75.333 -44.5 102s-67.167 40 -112.5 40c-44.667 0 -81.834 -14 -111.501 -42s-45.167 -63.667 -46.5 -107v-1h-47v1zM233.003 779v614h-2l-179 -118v49l180 119h48v-664h-47zM148.003 1h-59
l1081 1443h59z" />
    <glyph glyph-name="threequarters" unicode="&#xbe;" horiz-adv-x="1428" 
d="M180 1102l0.000976562 40h76c47.333 0 85.833 12.667 115.5 38s44.5 58 44.5 98c0 36.667 -14.833 67.667 -44.5 93s-66.834 38 -111.501 38c-44 0 -80.667 -12.333 -110 -37s-45.333 -56 -48 -94h-46c2.66699 50.667 23.167 92.167 61.5 124.5s86.5 48.5 144.5 48.5
c57.333 0 105.333 -16.167 144 -48.5s58 -72.5 58 -120.5c0 -40.667 -12.333 -75 -37 -103s-58.667 -46 -102 -54v-2c51.333 -2.66699 92.166 -19 122.499 -49s45.5 -68 45.5 -114c0 -54.667 -21.833 -100.167 -65.5 -136.5s-98.5 -54.5 -164.5 -54.5
c-64 0 -116.667 17 -158 51s-62.666 76.667 -63.999 128h47c1.33301 -38.667 18.333 -71.167 51 -97.5s74 -39.5 124 -39.5c52 0 95 14.167 129 42.5s51 63.833 51 106.5c0 44 -16.5 78.667 -49.5 104s-78.5 38 -136.5 38h-77zM1238 0v160h-339v44
c81.333 128 187.333 281.333 318 460h69v-462h102v-42h-102v-160h-48zM949.001 203v-1h290v418h-2c-115.333 -157.333 -211.333 -296.333 -288 -417zM239.001 1h-59l1081 1443h59z" />
    <glyph glyph-name="questiondown" unicode="&#xbf;" horiz-adv-x="911" 
d="M849 -7c-6.66699 -102.667 -46.1699 -187.831 -118.503 -255.498s-161.166 -101.5 -266.499 -101.5c-109.333 0 -200.333 33.5 -273 100.5s-109 150.5 -109 250.5c0 65.333 16.333 123.666 49 174.999s87.667 104.666 165 159.999c70 50 117.167 94.167 141.5 132.5
s36.5 87.833 36.5 148.5v97h49v-99c0 -66 -13.333 -121 -40 -165s-77 -93.333 -151 -148c-71.333 -52.667 -122.333 -102 -153 -148s-46 -96.333 -46 -151c0 -89.333 31.833 -162.833 95.5 -220.5s142.167 -86.5 235.5 -86.5c90.667 0 167.334 28.5 230.001 85.5
s98.334 132.167 107.001 225.5h48zM491.997 1000c-15.333 0 -28.666 5.83301 -39.999 17.5s-17 25.5 -17 41.5s5.66699 29.667 17 41s24.666 17 39.999 17c16 0 29.667 -5.66699 41 -17s17 -25 17 -41s-5.66699 -29.833 -17 -41.5s-25 -17.5 -41 -17.5z" />
    <glyph glyph-name="Agrave" unicode="&#xc0;" horiz-adv-x="1201" 
d="M1125 0l-189 501h-671l-190 -501h-55l555 1443h51l555 -1443h-56zM598 1374l-315 -827h635l-315 827h-5zM582 1554l-303 287h66l294 -287h-57z" />
    <glyph glyph-name="Aacute" unicode="&#xc1;" horiz-adv-x="1201" 
d="M1125 0l-189 501h-671l-190 -501h-55l555 1443h51l555 -1443h-56zM598 1374l-315 -827h635l-315 827h-5zM618 1554h-56l293 287h66z" />
    <glyph glyph-name="Acircumflex" unicode="&#xc2;" horiz-adv-x="1201" 
d="M1125 0l-189 501h-671l-190 -501h-55l555 1443h51l555 -1443h-56zM598 1374l-315 -827h635l-315 827h-5zM577 1841h46l266 -287h-59l-229 249h-2l-229 -249h-59z" />
    <glyph glyph-name="Atilde" unicode="&#xc3;" horiz-adv-x="1201" 
d="M1125 0l-189 501h-671l-190 -501h-55l555 1443h51l555 -1443h-56zM598 1374l-315 -827h635l-315 827h-5zM737 1552c-24 0 -46.667 5.83301 -68 17.5s-39.833 25.667 -55.5 42l-46 49c-15 16.333 -31.333 30.333 -49 42s-36.167 17.5 -55.5 17.5
c-64.667 0 -97 -52.667 -97 -158h-45c0 61.333 12 110.166 36 146.499s59.333 54.5 106 54.5c24 0 46.667 -5.66699 68 -17s39.833 -25.166 55.5 -41.499l46 -49.5c15 -16.667 31.5 -30.667 49.5 -42s36.333 -17 55 -17c64.667 0 97 52.667 97 158h45
c0 -62 -12 -111.167 -36 -147.5s-59.333 -54.5 -106 -54.5z" />
    <glyph glyph-name="Adieresis" unicode="&#xc4;" horiz-adv-x="1201" 
d="M1125 0l-189 501h-671l-190 -501h-55l555 1443h51l555 -1443h-56zM598 1374l-315 -827h635l-315 827h-5zM461 1556c-14.667 0 -27.5 5.33301 -38.5 16s-16.5 23.334 -16.5 38.001s5.33301 27.167 16 37.5s23.667 15.5 39 15.5c14.667 0 27.334 -5.16699 38.001 -15.5
s16 -22.833 16 -37.5s-5.33301 -27.334 -16 -38.001s-23.334 -16 -38.001 -16zM739 1556c-14.667 0 -27.334 5.33301 -38.001 16s-16 23.334 -16 38.001s5.33301 27.167 16 37.5s23.334 15.5 38.001 15.5c15.333 0 28.333 -5.16699 39 -15.5s16 -22.833 16 -37.5
s-5.5 -27.334 -16.5 -38.001s-23.833 -16 -38.5 -16z" />
    <glyph glyph-name="Aring" unicode="&#xc5;" horiz-adv-x="1201" 
d="M1125 0l-189 501h-671l-190 -501h-55l555 1443h51l555 -1443h-56zM598 1374l-315 -827h635l-315 827h-5zM600 1506c-45.333 0 -84.166 16.333 -116.499 49s-48.5 71.667 -48.5 117s16.167 84.166 48.5 116.499s71.166 48.5 116.499 48.5
c44.667 0 83.167 -16.167 115.5 -48.5s48.5 -71.166 48.5 -116.499s-16.167 -84.333 -48.5 -117s-70.833 -49 -115.5 -49zM600 1545c35.333 0 65.166 12.333 89.499 37s36.5 54.667 36.5 90s-12.167 65.333 -36.5 90s-54.166 37 -89.499 37c-36 0 -66.167 -12.333 -90.5 -37
s-36.5 -54.667 -36.5 -90s12.167 -65.333 36.5 -90s54.5 -37 90.5 -37z" />
    <glyph glyph-name="AE" unicode="&#xc6;" horiz-adv-x="1878" 
d="M819 1397l-476 -939h667v939h-191zM1010 0v411h-689l-208 -411h-55l733 1443h985v-47h-718v-633h681v-46h-681v-670h718v-47h-766z" />
    <glyph glyph-name="Ccedilla" unicode="&#xc7;" horiz-adv-x="1303" 
d="M1250 979l-48.999 -0.000976562c-13.333 122.667 -69 226.167 -167 310.5s-212 126.5 -342 126.5c-177.333 0 -318.166 -61.5 -422.499 -184.5s-156.5 -289.5 -156.5 -499.5c0 -216 52.5 -387.5 157.5 -514.5s245.5 -190.5 421.5 -190.5c135.333 0 251 38.333 347 115
s150 176 162 298h49c-7.33301 -87.333 -35.5 -165.666 -84.5 -234.999s-113.333 -123.666 -193 -162.999s-167.834 -60 -264.501 -62l-51 -120c62.667 0 112.667 -14 150 -42s56 -65.333 56 -112c0 -49.333 -20 -89.5 -60 -120.5s-92 -46.833 -156 -47.5
c-50.667 0 -91.334 5.66699 -122.001 17v43c30 -11.333 70.333 -17 121 -17c48 0 88.5 12 121.5 36s49.5 53.333 49.5 88c0 36 -14.167 63.833 -42.5 83.5s-68.833 29.5 -121.5 29.5h-50v33l58 130c-182.667 7.33301 -328 78.666 -436 213.999s-162 314.333 -162 537
c0 224.667 56.5 402.667 169.5 534s266.167 197 459.5 197c143.333 0 269 -46.833 377 -140.5s168.333 -208.167 181 -343.5z" />
    <glyph glyph-name="Egrave" unicode="&#xc8;" horiz-adv-x="1050" 
d="M519 1554l-303 287h66l294 -287h-57zM950 47v-47h-826v1443h826v-47h-776v-632h740v-46h-740v-671h776z" />
    <glyph glyph-name="Eacute" unicode="&#xc9;" horiz-adv-x="1050" 
d="M555 1554h-56l293 287h66zM950 47v-47h-826v1443h826v-47h-776v-632h740v-46h-740v-671h776z" />
    <glyph glyph-name="Ecircumflex" unicode="&#xca;" horiz-adv-x="1050" 
d="M514 1841h46l266 -287h-59l-229 249h-2l-229 -249h-59zM950 47v-47h-826v1443h826v-47h-776v-632h740v-46h-740v-671h776z" />
    <glyph glyph-name="Edieresis" unicode="&#xcb;" horiz-adv-x="1050" 
d="M398 1556c-14.667 0 -27.5 5.33301 -38.5 16s-16.5 23.334 -16.5 38.001s5.33301 27.167 16 37.5s23.667 15.5 39 15.5c14.667 0 27.334 -5.16699 38.001 -15.5s16 -22.833 16 -37.5s-5.33301 -27.334 -16 -38.001s-23.334 -16 -38.001 -16zM676 1556
c-14.667 0 -27.334 5.33301 -38.001 16s-16 23.334 -16 38.001s5.33301 27.167 16 37.5s23.334 15.5 38.001 15.5c15.333 0 28.333 -5.16699 39 -15.5s16 -22.833 16 -37.5s-5.5 -27.334 -16.5 -38.001s-23.833 -16 -38.5 -16zM950 47v-47h-826v1443h826v-47h-776v-632h740
v-46h-740v-671h776z" />
    <glyph glyph-name="Igrave" unicode="&#xcc;" horiz-adv-x="298" 
d="M174 0h-50v1443h50v-1443zM131 1554l-303 287h66l294 -287h-57z" />
    <glyph glyph-name="Iacute" unicode="&#xcd;" horiz-adv-x="298" 
d="M174 0h-50v1443h50v-1443zM167 1554h-56l293 287h66z" />
    <glyph glyph-name="Icircumflex" unicode="&#xce;" horiz-adv-x="298" 
d="M174 0h-50v1443h50v-1443zM126 1841h46l266 -287h-59l-229 249h-2l-229 -249h-59z" />
    <glyph glyph-name="Idieresis" unicode="&#xcf;" horiz-adv-x="298" 
d="M174 0h-50v1443h50v-1443zM10 1556c-14.667 0 -27.5 5.33301 -38.5 16s-16.5 23.334 -16.5 38.001s5.33301 27.167 16 37.5s23.667 15.5 39 15.5c14.667 0 27.334 -5.16699 38.001 -15.5s16 -22.833 16 -37.5s-5.33301 -27.334 -16 -38.001s-23.334 -16 -38.001 -16z
M288 1556c-14.667 0 -27.334 5.33301 -38.001 16s-16 23.334 -16 38.001s5.33301 27.167 16 37.5s23.334 15.5 38.001 15.5c15.333 0 28.333 -5.16699 39 -15.5s16 -22.833 16 -37.5s-5.5 -27.334 -16.5 -38.001s-23.833 -16 -38.5 -16z" />
    <glyph glyph-name="Eth" unicode="&#xd0;" horiz-adv-x="1383" 
d="M175 47l384 -0.000976562c205.333 0 363.5 58.333 474.5 175s166.5 283.334 166.5 500.001c0 216 -55.5 382.333 -166.5 499s-269.167 175 -474.5 175h-384v-632h382v-47h-382v-670zM124 1443h436c220 0 390 -62.667 510 -188s180 -303 180 -533
c0 -230.667 -60 -408.667 -180 -534s-290 -188 -510 -188h-436v717h-110v47h110v679z" />
    <glyph glyph-name="Ntilde" unicode="&#xd1;" horiz-adv-x="1315" 
d="M794 1552c-24 0 -46.667 5.83301 -68 17.5s-39.833 25.667 -55.5 42l-46 49c-15 16.333 -31.333 30.333 -49 42s-36.167 17.5 -55.5 17.5c-64.667 0 -97 -52.667 -97 -158h-45c0 61.333 12 110.166 36 146.499s59.333 54.5 106 54.5c24 0 46.667 -5.66699 68 -17
s39.833 -25.166 55.5 -41.499l46 -49.5c15 -16.667 31.5 -30.667 49.5 -42s36.333 -17 55 -17c64.667 0 97 52.667 97 158h45c0 -62 -12 -111.167 -36 -147.5s-59.333 -54.5 -106 -54.5zM174 0h-50v1443h55l958 -1348h4v1348h50v-1443h-46l-967 1359h-4v-1359z" />
    <glyph glyph-name="Ograve" unicode="&#xd2;" horiz-adv-x="1398" 
d="M681 1554l-303 287h66l294 -287h-57zM699 1463c194 0 348.499 -66.833 463.499 -200.5s172.5 -313.834 172.5 -540.501c0 -227.333 -57.333 -407.833 -172 -541.5s-269.334 -200.5 -464.001 -200.5c-195.333 0 -350.166 66.833 -464.499 200.5
s-171.5 314.167 -171.5 541.5c0 226.667 57.333 406.834 172 540.501s269.334 200.5 464.001 200.5zM698.999 1416c-179.333 0 -321.833 -62.5 -427.5 -187.5s-158.5 -293.833 -158.5 -506.5c0 -212 53 -380.833 159 -506.5s248.333 -188.5 427 -188.5
c178 0 320.167 62.833 426.5 188.5s159.5 294.5 159.5 506.5s-53 380.667 -159 506s-248.333 188 -427 188z" />
    <glyph glyph-name="Oacute" unicode="&#xd3;" horiz-adv-x="1398" 
d="M717 1554h-56l293 287h66zM699 1463c194 0 348.499 -66.833 463.499 -200.5s172.5 -313.834 172.5 -540.501c0 -227.333 -57.333 -407.833 -172 -541.5s-269.334 -200.5 -464.001 -200.5c-195.333 0 -350.166 66.833 -464.499 200.5s-171.5 314.167 -171.5 541.5
c0 226.667 57.333 406.834 172 540.501s269.334 200.5 464.001 200.5zM698.999 1416c-179.333 0 -321.833 -62.5 -427.5 -187.5s-158.5 -293.833 -158.5 -506.5c0 -212 53 -380.833 159 -506.5s248.333 -188.5 427 -188.5c178 0 320.167 62.833 426.5 188.5
s159.5 294.5 159.5 506.5s-53 380.667 -159 506s-248.333 188 -427 188z" />
    <glyph glyph-name="Ocircumflex" unicode="&#xd4;" horiz-adv-x="1398" 
d="M676 1841h46l266 -287h-59l-229 249h-2l-229 -249h-59zM699 1463c194 0 348.499 -66.833 463.499 -200.5s172.5 -313.834 172.5 -540.501c0 -227.333 -57.333 -407.833 -172 -541.5s-269.334 -200.5 -464.001 -200.5c-195.333 0 -350.166 66.833 -464.499 200.5
s-171.5 314.167 -171.5 541.5c0 226.667 57.333 406.834 172 540.501s269.334 200.5 464.001 200.5zM698.999 1416c-179.333 0 -321.833 -62.5 -427.5 -187.5s-158.5 -293.833 -158.5 -506.5c0 -212 53 -380.833 159 -506.5s248.333 -188.5 427 -188.5
c178 0 320.167 62.833 426.5 188.5s159.5 294.5 159.5 506.5s-53 380.667 -159 506s-248.333 188 -427 188z" />
    <glyph glyph-name="Otilde" unicode="&#xd5;" horiz-adv-x="1398" 
d="M699 1463c194 0 348.499 -66.833 463.499 -200.5s172.5 -313.834 172.5 -540.501c0 -227.333 -57.333 -407.833 -172 -541.5s-269.334 -200.5 -464.001 -200.5c-195.333 0 -350.166 66.833 -464.499 200.5s-171.5 314.167 -171.5 541.5
c0 226.667 57.333 406.834 172 540.501s269.334 200.5 464.001 200.5zM698.999 1416c-179.333 0 -321.833 -62.5 -427.5 -187.5s-158.5 -293.833 -158.5 -506.5c0 -212 53 -380.833 159 -506.5s248.333 -188.5 427 -188.5c178 0 320.167 62.833 426.5 188.5
s159.5 294.5 159.5 506.5s-53 380.667 -159 506s-248.333 188 -427 188zM835.999 1552c-24 0 -46.667 5.83301 -68 17.5s-39.833 25.667 -55.5 42l-46 49c-15 16.333 -31.333 30.333 -49 42s-36.167 17.5 -55.5 17.5c-64.667 0 -97 -52.667 -97 -158h-45
c0 61.333 12 110.166 36 146.499s59.333 54.5 106 54.5c24 0 46.667 -5.66699 68 -17s39.833 -25.166 55.5 -41.499l46 -49.5c15 -16.667 31.5 -30.667 49.5 -42s36.333 -17 55 -17c64.667 0 97 52.667 97 158h45c0 -62 -12 -111.167 -36 -147.5s-59.333 -54.5 -106 -54.5z
" />
    <glyph glyph-name="Odieresis" unicode="&#xd6;" horiz-adv-x="1398" 
d="M560 1556c-14.667 0 -27.5 5.33301 -38.5 16s-16.5 23.334 -16.5 38.001s5.33301 27.167 16 37.5s23.667 15.5 39 15.5c14.667 0 27.334 -5.16699 38.001 -15.5s16 -22.833 16 -37.5s-5.33301 -27.334 -16 -38.001s-23.334 -16 -38.001 -16zM838 1556
c-14.667 0 -27.334 5.33301 -38.001 16s-16 23.334 -16 38.001s5.33301 27.167 16 37.5s23.334 15.5 38.001 15.5c15.333 0 28.333 -5.16699 39 -15.5s16 -22.833 16 -37.5s-5.5 -27.334 -16.5 -38.001s-23.833 -16 -38.5 -16zM699 1463
c194 0 348.499 -66.833 463.499 -200.5s172.5 -313.834 172.5 -540.501c0 -227.333 -57.333 -407.833 -172 -541.5s-269.334 -200.5 -464.001 -200.5c-195.333 0 -350.166 66.833 -464.499 200.5s-171.5 314.167 -171.5 541.5c0 226.667 57.333 406.834 172 540.501
s269.334 200.5 464.001 200.5zM698.999 1416c-179.333 0 -321.833 -62.5 -427.5 -187.5s-158.5 -293.833 -158.5 -506.5c0 -212 53 -380.833 159 -506.5s248.333 -188.5 427 -188.5c178 0 320.167 62.833 426.5 188.5s159.5 294.5 159.5 506.5s-53 380.667 -159 506
s-248.333 188 -427 188z" />
    <glyph glyph-name="multiply" unicode="&#xd7;" horiz-adv-x="1179" 
d="M590 546l-326 -326l-34 32l326 327l-327 327l35 34l325 -328l327 326l33 -32l-325 -327l325 -325l-34 -34z" />
    <glyph glyph-name="Oslash" unicode="&#xd8;" horiz-adv-x="1398" 
d="M1136 1216l-818 -1049c101.333 -93.333 228.333 -140 381 -140c178 0 320.167 62.833 426.5 188.5s159.5 294.5 159.5 506.5c0 204 -49.667 368.667 -149 494zM287 199l820 1050c-104 111.333 -240 167 -408 167c-179.333 0 -321.833 -62.5 -427.5 -187.5
s-158.5 -293.833 -158.5 -506.5c0 -222 58 -396.333 174 -523zM1325 1458l-157.001 -202.001c111.333 -133.333 167 -311.333 167 -534c0 -227.333 -57.333 -407.833 -172 -541.5s-269.334 -200.5 -464.001 -200.5c-165.333 0 -302.666 49 -411.999 147l-173 -222l-37 25
l178 228c-128 134 -192 322 -192 564c0 226.667 57.333 406.834 172 540.501s269.334 200.5 464.001 200.5c180 0 326.333 -58 439 -174l151 194z" />
    <glyph glyph-name="Ugrave" unicode="&#xd9;" horiz-adv-x="1305" 
d="M635 1554l-303 287h66l294 -287h-57zM174 1443l0.000976562 -943c0 -145.333 43.167 -260.5 129.5 -345.5s202.833 -127.5 349.5 -127.5c147.333 0 264.166 42.5 350.499 127.5s129.5 200.167 129.5 345.5v943h50v-944c0 -158 -47.833 -284 -143.5 -378
s-224.5 -141 -386.5 -141s-290.667 47 -386 141s-143 220 -143 378v944h50z" />
    <glyph glyph-name="Uacute" unicode="&#xda;" horiz-adv-x="1305" 
d="M671 1554h-56l293 287h66zM174 1443l0.000976562 -943c0 -145.333 43.167 -260.5 129.5 -345.5s202.833 -127.5 349.5 -127.5c147.333 0 264.166 42.5 350.499 127.5s129.5 200.167 129.5 345.5v943h50v-944c0 -158 -47.833 -284 -143.5 -378s-224.5 -141 -386.5 -141
s-290.667 47 -386 141s-143 220 -143 378v944h50z" />
    <glyph glyph-name="Ucircumflex" unicode="&#xdb;" horiz-adv-x="1305" 
d="M630 1841h46l266 -287h-59l-229 249h-2l-229 -249h-59zM174 1443l0.000976562 -943c0 -145.333 43.167 -260.5 129.5 -345.5s202.833 -127.5 349.5 -127.5c147.333 0 264.166 42.5 350.499 127.5s129.5 200.167 129.5 345.5v943h50v-944c0 -158 -47.833 -284 -143.5 -378
s-224.5 -141 -386.5 -141s-290.667 47 -386 141s-143 220 -143 378v944h50z" />
    <glyph glyph-name="Udieresis" unicode="&#xdc;" horiz-adv-x="1305" 
d="M514 1556c-14.667 0 -27.5 5.33301 -38.5 16s-16.5 23.334 -16.5 38.001s5.33301 27.167 16 37.5s23.667 15.5 39 15.5c14.667 0 27.334 -5.16699 38.001 -15.5s16 -22.833 16 -37.5s-5.33301 -27.334 -16 -38.001s-23.334 -16 -38.001 -16zM792 1556
c-14.667 0 -27.334 5.33301 -38.001 16s-16 23.334 -16 38.001s5.33301 27.167 16 37.5s23.334 15.5 38.001 15.5c15.333 0 28.333 -5.16699 39 -15.5s16 -22.833 16 -37.5s-5.5 -27.334 -16.5 -38.001s-23.833 -16 -38.5 -16zM174 1443l0.000976562 -943
c0 -145.333 43.167 -260.5 129.5 -345.5s202.833 -127.5 349.5 -127.5c147.333 0 264.166 42.5 350.499 127.5s129.5 200.167 129.5 345.5v943h50v-944c0 -158 -47.833 -284 -143.5 -378s-224.5 -141 -386.5 -141s-290.667 47 -386 141s-143 220 -143 378v944h50z" />
    <glyph glyph-name="Yacute" unicode="&#xdd;" horiz-adv-x="1148" 
d="M600 0h-50v631l-529 812h60l492 -758h4l491 758h59l-527 -812v-631zM592 1554h-56l293 287h66z" />
    <glyph glyph-name="Thorn" unicode="&#xde;" horiz-adv-x="1202" 
d="M164 1443h49.999v-291h413c136.667 0 245.334 -35.667 326.001 -107s121 -169 121 -293s-40 -221.333 -120 -292s-189 -106 -327 -106h-413v-354h-50v1443zM213.999 1105l0.00195312 -704h411c125.333 0 223.166 31.5 293.499 94.5s105.5 148.5 105.5 256.5
s-35.333 193.833 -106 257.5s-168.334 95.5 -293.001 95.5h-411z" />
    <glyph glyph-name="germandbls" unicode="&#xdf;" horiz-adv-x="1047" 
d="M169 0l-48.9961 -0.000976562v1064c0 118 32.167 209.5 96.5 274.5s154.833 97.5 271.5 97.5c112 0 202.5 -30.5 271.5 -91.5s103.5 -141.167 103.5 -240.5c0 -83.333 -26.167 -157 -78.5 -221s-115.833 -104.333 -190.5 -121v-3
c113.333 -9.33301 206.666 -47.833 279.999 -115.5s110 -152.5 110 -254.5c0 -116 -42.333 -213.167 -127 -291.5s-190 -117.5 -316 -117.5c-58 0 -117.667 5.66699 -179 17v49c51.333 -13.333 110.666 -20 177.999 -20c110 0 203.333 34.833 280 104.5
s115 155.834 115 258.501c0 100 -41.167 181.833 -123.5 245.5s-188.5 95.5 -318.5 95.5h-109v47h108c87.333 0 162.666 32.333 225.999 97s95 141 95 229c0 84.667 -30 153.667 -90 207s-137.667 80 -233 80c-100.667 0 -179.334 -29 -236.001 -87s-85 -138 -85 -240v-1063
z" />
    <glyph glyph-name="agrave" unicode="&#xe0;" horiz-adv-x="1021" 
d="M449 30c112.667 0 209.168 35.833 289.501 107.5s120.5 157.834 120.5 258.501v182l-381 -29c-110 -8.66699 -193.833 -35.334 -251.5 -80.001s-86.5 -105.667 -86.5 -183c0 -74 29.167 -135.167 87.5 -183.5s132.166 -72.5 221.499 -72.5zM446.001 -16
c-104.667 0 -190.167 28.167 -256.5 84.5s-99.5 128.833 -99.5 217.5c0 91.333 32 162.666 96 213.999s158.667 82 284 92l389 30v97c0 102 -28.833 182 -86.5 240s-137.167 87 -238.5 87c-100.667 0 -182 -24.667 -244 -74s-100 -119 -114 -209h-47
c11.333 102 53.333 182.333 126 241s165.667 88 279 88c115.333 0 206.5 -33.167 273.5 -99.5s100.5 -156.5 100.5 -270.5v-722h-49v245h-1c-26 -77.333 -77.167 -140.166 -153.5 -188.499s-162.5 -72.5 -258.5 -72.5zM581.001 1254h-53l-246 303h63z" />
    <glyph glyph-name="aacute" unicode="&#xe1;" horiz-adv-x="1021" 
d="M449 30c112.667 0 209.168 35.833 289.501 107.5s120.5 157.834 120.5 258.501v182l-381 -29c-110 -8.66699 -193.833 -35.334 -251.5 -80.001s-86.5 -105.667 -86.5 -183c0 -74 29.167 -135.167 87.5 -183.5s132.166 -72.5 221.499 -72.5zM446.001 -16
c-104.667 0 -190.167 28.167 -256.5 84.5s-99.5 128.833 -99.5 217.5c0 91.333 32 162.666 96 213.999s158.667 82 284 92l389 30v97c0 102 -28.833 182 -86.5 240s-137.167 87 -238.5 87c-100.667 0 -182 -24.667 -244 -74s-100 -119 -114 -209h-47
c11.333 102 53.333 182.333 126 241s165.667 88 279 88c115.333 0 206.5 -33.167 273.5 -99.5s100.5 -156.5 100.5 -270.5v-722h-49v245h-1c-26 -77.333 -77.167 -140.166 -153.5 -188.499s-162.5 -72.5 -258.5 -72.5zM538.001 1254h-53l236 303h63z" />
    <glyph glyph-name="acircumflex" unicode="&#xe2;" horiz-adv-x="1021" 
d="M449 30c112.667 0 209.168 35.833 289.501 107.5s120.5 157.834 120.5 258.501v182l-381 -29c-110 -8.66699 -193.833 -35.334 -251.5 -80.001s-86.5 -105.667 -86.5 -183c0 -74 29.167 -135.167 87.5 -183.5s132.166 -72.5 221.499 -72.5zM446.001 -16
c-104.667 0 -190.167 28.167 -256.5 84.5s-99.5 128.833 -99.5 217.5c0 91.333 32 162.666 96 213.999s158.667 82 284 92l389 30v97c0 102 -28.833 182 -86.5 240s-137.167 87 -238.5 87c-100.667 0 -182 -24.667 -244 -74s-100 -119 -114 -209h-47
c11.333 102 53.333 182.333 126 241s165.667 88 279 88c115.333 0 206.5 -33.167 273.5 -99.5s100.5 -156.5 100.5 -270.5v-722h-49v245h-1c-26 -77.333 -77.167 -140.166 -153.5 -188.499s-162.5 -72.5 -258.5 -72.5zM555.001 1557l265 -303h-56l-230 264h-2l-230 -264h-56
l265 303h44z" />
    <glyph glyph-name="atilde" unicode="&#xe3;" horiz-adv-x="1021" 
d="M449 30c112.667 0 209.168 35.833 289.501 107.5s120.5 157.834 120.5 258.501v182l-381 -29c-110 -8.66699 -193.833 -35.334 -251.5 -80.001s-86.5 -105.667 -86.5 -183c0 -74 29.167 -135.167 87.5 -183.5s132.166 -72.5 221.499 -72.5zM446.001 -16
c-104.667 0 -190.167 28.167 -256.5 84.5s-99.5 128.833 -99.5 217.5c0 91.333 32 162.666 96 213.999s158.667 82 284 92l389 30v97c0 102 -28.833 182 -86.5 240s-137.167 87 -238.5 87c-100.667 0 -182 -24.667 -244 -74s-100 -119 -114 -209h-47
c11.333 102 53.333 182.333 126 241s165.667 88 279 88c115.333 0 206.5 -33.167 273.5 -99.5s100.5 -156.5 100.5 -270.5v-722h-49v245h-1c-26 -77.333 -77.167 -140.166 -153.5 -188.499s-162.5 -72.5 -258.5 -72.5zM670.001 1254c-24 0 -46.667 5.83301 -68 17.5
s-39.833 25.667 -55.5 42l-46 49c-15 16.333 -31.333 30.333 -49 42s-36.167 17.5 -55.5 17.5c-64.667 0 -97 -52.667 -97 -158h-45c0 61.333 12 110.166 36 146.499s59.333 54.5 106 54.5c24 0 46.667 -5.66699 68 -17s39.833 -25.166 55.5 -41.499l46 -49.5
c15 -16.667 31.5 -30.667 49.5 -42s36.333 -17 55 -17c64.667 0 97 52.667 97 158h45c0 -62 -12 -111.167 -36 -147.5s-59.333 -54.5 -106 -54.5z" />
    <glyph glyph-name="adieresis" unicode="&#xe4;" horiz-adv-x="1021" 
d="M449 30c112.667 0 209.168 35.833 289.501 107.5s120.5 157.834 120.5 258.501v182l-381 -29c-110 -8.66699 -193.833 -35.334 -251.5 -80.001s-86.5 -105.667 -86.5 -183c0 -74 29.167 -135.167 87.5 -183.5s132.166 -72.5 221.499 -72.5zM446.001 -16
c-104.667 0 -190.167 28.167 -256.5 84.5s-99.5 128.833 -99.5 217.5c0 91.333 32 162.666 96 213.999s158.667 82 284 92l389 30v97c0 102 -28.833 182 -86.5 240s-137.167 87 -238.5 87c-100.667 0 -182 -24.667 -244 -74s-100 -119 -114 -209h-47
c11.333 102 53.333 182.333 126 241s165.667 88 279 88c115.333 0 206.5 -33.167 273.5 -99.5s100.5 -156.5 100.5 -270.5v-722h-49v245h-1c-26 -77.333 -77.167 -140.166 -153.5 -188.499s-162.5 -72.5 -258.5 -72.5zM394.001 1254c-14.667 0 -27.5 5.33301 -38.5 16
s-16.5 23.334 -16.5 38.001s5.33301 27.167 16 37.5s23.667 15.5 39 15.5c14.667 0 27.334 -5.16699 38.001 -15.5s16 -22.833 16 -37.5s-5.33301 -27.334 -16 -38.001s-23.334 -16 -38.001 -16zM672.001 1254c-14.667 0 -27.334 5.33301 -38.001 16s-16 23.334 -16 38.001
s5.33301 27.167 16 37.5s23.334 15.5 38.001 15.5c15.333 0 28.333 -5.16699 39 -15.5s16 -22.833 16 -37.5s-5.5 -27.334 -16.5 -38.001s-23.833 -16 -38.5 -16z" />
    <glyph glyph-name="aring" unicode="&#xe5;" horiz-adv-x="1021" 
d="M449 30c112.667 0 209.168 35.833 289.501 107.5s120.5 157.834 120.5 258.501v182l-381 -29c-110 -8.66699 -193.833 -35.334 -251.5 -80.001s-86.5 -105.667 -86.5 -183c0 -74 29.167 -135.167 87.5 -183.5s132.166 -72.5 221.499 -72.5zM446.001 -16
c-104.667 0 -190.167 28.167 -256.5 84.5s-99.5 128.833 -99.5 217.5c0 91.333 32 162.666 96 213.999s158.667 82 284 92l389 30v97c0 102 -28.833 182 -86.5 240s-137.167 87 -238.5 87c-100.667 0 -182 -24.667 -244 -74s-100 -119 -114 -209h-47
c11.333 102 53.333 182.333 126 241s165.667 88 279 88c115.333 0 206.5 -33.167 273.5 -99.5s100.5 -156.5 100.5 -270.5v-722h-49v245h-1c-26 -77.333 -77.167 -140.166 -153.5 -188.499s-162.5 -72.5 -258.5 -72.5zM533.001 1249c-45.333 0 -84.166 16.333 -116.499 49
s-48.5 71.667 -48.5 117s16.167 84.166 48.5 116.499s71.166 48.5 116.499 48.5c44.667 0 83.167 -16.167 115.5 -48.5s48.5 -71.166 48.5 -116.499s-16.167 -84.333 -48.5 -117s-70.833 -49 -115.5 -49zM533.001 1288c35.333 0 65.166 12.333 89.499 37
s36.5 54.667 36.5 90s-12.167 65.333 -36.5 90s-54.166 37 -89.499 37c-36 0 -66.167 -12.333 -90.5 -37s-36.5 -54.667 -36.5 -90s12.167 -65.333 36.5 -90s54.5 -37 90.5 -37z" />
    <glyph glyph-name="ae" unicode="&#xe6;" horiz-adv-x="1848" 
d="M1335 -16c-107.333 0 -199 28 -275 84s-130.333 137 -163 243h-4c-25.333 -100 -78.166 -179.5 -158.499 -238.5s-174.833 -88.5 -283.5 -88.5c-107.333 0 -194.333 27.667 -261 83s-100 127 -100 215c0 86 31.667 153.333 95 202s156.666 77 279.999 85l394 27v141
c0 97.333 -29.333 173.166 -88 227.499s-139.334 81.5 -242.001 81.5c-98.667 0 -179.667 -25 -243 -75s-101.333 -119.333 -114 -208h-48c10.667 100 52.834 179.833 126.501 239.5s166.5 89.5 278.5 89.5c106 0 193 -27.5 261 -82.5s104.333 -130.167 109 -225.5h5
c29.333 91.333 81.333 165.5 156 222.5s165.334 85.5 272.001 85.5c137.333 0 246.833 -46.167 328.5 -138.5s122.5 -215.833 122.5 -370.5v-40h-875v-7c0 -153.333 39 -276 117 -368s181.667 -138 311 -138c102 0 186.333 25 253 75s108.334 114.667 125.001 194h51
c-18.667 -93.333 -66.334 -169.166 -143.001 -227.499s-172.334 -87.5 -287.001 -87.5zM1331 1046c-122 0 -221.334 -42 -298.001 -126s-118 -194.667 -124 -332h824c0 137.333 -36.667 248 -110 332s-170.666 126 -291.999 126zM451.999 30c112.667 0 208.667 36 288 108
s119 159.667 119 263v150l-384 -26c-110 -6.66699 -193.333 -30.834 -250 -72.501s-85 -98.5 -85 -170.5c0 -73.333 29 -133.666 87 -180.999s133 -71 225 -71z" />
    <glyph glyph-name="ccedilla" unicode="&#xe7;" horiz-adv-x="1019" 
d="M958 760l-50.002 -0.00195312c-17.333 84 -60.166 152.667 -128.499 206s-150.166 80 -245.499 80c-128.667 0 -230.667 -45.833 -306 -137.5s-113 -215.167 -113 -370.5s37.5 -278.666 112.5 -369.999s177.167 -137 306.5 -137c96.667 0 178.667 25.333 246 76
s109.333 117.334 126 200.001h50c-16.667 -94 -61.667 -170.5 -135 -229.5s-163.666 -90.167 -270.999 -93.5l-52 -124c62.667 0 112.667 -14 150 -42s56 -65.333 56 -112c0 -49.333 -20 -89.5 -60 -120.5s-92 -46.833 -156 -47.5c-50.667 0 -91.334 5.66699 -122.001 17v43
c30 -11.333 70.333 -17 121 -17c48 0 88.5 12 121.5 36s49.5 53.333 49.5 88c0 36 -14.167 63.833 -42.5 83.5s-68.833 29.5 -121.5 29.5h-50v33l60 134c-135.333 7.33301 -242.333 60.333 -321 159s-118 230 -118 394c0 169.333 42.333 304 127 404s198.667 150 342 150
c108.667 0 202 -31.167 280 -93.5s126 -141.833 144 -238.5z" />
    <glyph glyph-name="egrave" unicode="&#xe8;" horiz-adv-x="1056" 
d="M581 1254h-53l-246 303h63zM533 1046c-120 0 -218 -42.5 -294 -127.5s-117 -197.5 -123 -337.5h825c0 138 -37.5 250 -112.5 336s-173.5 129 -295.5 129zM926 299l50.999 -0.000976562c-18.667 -93.333 -66.667 -169.166 -144 -227.499s-174.666 -87.5 -291.999 -87.5
c-146 0 -261.833 49 -347.5 147s-128.5 233.667 -128.5 407c0 166.667 42.667 300.667 128 402s198.666 152 339.999 152c136.667 0 247.167 -47.667 331.5 -143s126.5 -220.333 126.5 -375v-38h-876v-2c0 -158 38.667 -281.5 116 -370.5s181 -133.5 311 -133.5
c104 0 189.833 25 257.5 75s109.834 114.667 126.501 194z" />
    <glyph glyph-name="eacute" unicode="&#xe9;" horiz-adv-x="1056" 
d="M538 1254h-53l236 303h63zM533 1046c-120 0 -218 -42.5 -294 -127.5s-117 -197.5 -123 -337.5h825c0 138 -37.5 250 -112.5 336s-173.5 129 -295.5 129zM926 299l50.999 -0.000976562c-18.667 -93.333 -66.667 -169.166 -144 -227.499s-174.666 -87.5 -291.999 -87.5
c-146 0 -261.833 49 -347.5 147s-128.5 233.667 -128.5 407c0 166.667 42.667 300.667 128 402s198.666 152 339.999 152c136.667 0 247.167 -47.667 331.5 -143s126.5 -220.333 126.5 -375v-38h-876v-2c0 -158 38.667 -281.5 116 -370.5s181 -133.5 311 -133.5
c104 0 189.833 25 257.5 75s109.834 114.667 126.501 194z" />
    <glyph glyph-name="ecircumflex" unicode="&#xea;" horiz-adv-x="1056" 
d="M555 1557l265 -303h-56l-230 264h-2l-230 -264h-56l265 303h44zM533 1046c-120 0 -218 -42.5 -294 -127.5s-117 -197.5 -123 -337.5h825c0 138 -37.5 250 -112.5 336s-173.5 129 -295.5 129zM926 299l50.999 -0.000976562
c-18.667 -93.333 -66.667 -169.166 -144 -227.499s-174.666 -87.5 -291.999 -87.5c-146 0 -261.833 49 -347.5 147s-128.5 233.667 -128.5 407c0 166.667 42.667 300.667 128 402s198.666 152 339.999 152c136.667 0 247.167 -47.667 331.5 -143s126.5 -220.333 126.5 -375
v-38h-876v-2c0 -158 38.667 -281.5 116 -370.5s181 -133.5 311 -133.5c104 0 189.833 25 257.5 75s109.834 114.667 126.501 194z" />
    <glyph glyph-name="edieresis" unicode="&#xeb;" horiz-adv-x="1056" 
d="M533 1046c-120 0 -218 -42.5 -294 -127.5s-117 -197.5 -123 -337.5h825c0 138 -37.5 250 -112.5 336s-173.5 129 -295.5 129zM926 299l50.999 -0.000976562c-18.667 -93.333 -66.667 -169.166 -144 -227.499s-174.666 -87.5 -291.999 -87.5
c-146 0 -261.833 49 -347.5 147s-128.5 233.667 -128.5 407c0 166.667 42.667 300.667 128 402s198.666 152 339.999 152c136.667 0 247.167 -47.667 331.5 -143s126.5 -220.333 126.5 -375v-38h-876v-2c0 -158 38.667 -281.5 116 -370.5s181 -133.5 311 -133.5
c104 0 189.833 25 257.5 75s109.834 114.667 126.501 194zM393.999 1254c-14.667 0 -27.5 5.33301 -38.5 16s-16.5 23.334 -16.5 38.001s5.33301 27.167 16 37.5s23.667 15.5 39 15.5c14.667 0 27.334 -5.16699 38.001 -15.5s16 -22.833 16 -37.5
s-5.33301 -27.334 -16 -38.001s-23.334 -16 -38.001 -16zM671.999 1254c-14.667 0 -27.334 5.33301 -38.001 16s-16 23.334 -16 38.001s5.33301 27.167 16 37.5s23.334 15.5 38.001 15.5c15.333 0 28.333 -5.16699 39 -15.5s16 -22.833 16 -37.5s-5.5 -27.334 -16.5 -38.001
s-23.833 -16 -38.5 -16z" />
    <glyph glyph-name="igrave" unicode="&#xec;" horiz-adv-x="309" 
d="M203 1254h-53l-246 303h63zM130 0v1076h49v-1076h-49z" />
    <glyph glyph-name="iacute" unicode="&#xed;" horiz-adv-x="309" 
d="M160 1254h-53l236 303h63zM130 0v1076h49v-1076h-49z" />
    <glyph glyph-name="icircumflex" unicode="&#xee;" horiz-adv-x="309" 
d="M177 1557l265 -303h-56l-230 264h-2l-230 -264h-56l265 303h44zM130 0v1076h49v-1076h-49z" />
    <glyph glyph-name="idieresis" unicode="&#xef;" horiz-adv-x="309" 
d="M130 0v1076h49v-1076h-49zM16 1254c-14.667 0 -27.5 5.33301 -38.5 16s-16.5 23.334 -16.5 38.001s5.33301 27.167 16 37.5s23.667 15.5 39 15.5c14.667 0 27.334 -5.16699 38.001 -15.5s16 -22.833 16 -37.5s-5.33301 -27.334 -16 -38.001s-23.334 -16 -38.001 -16z
M294 1254c-14.667 0 -27.334 5.33301 -38.001 16s-16 23.334 -16 38.001s5.33301 27.167 16 37.5s23.334 15.5 38.001 15.5c15.333 0 28.333 -5.16699 39 -15.5s16 -22.833 16 -37.5s-5.5 -27.334 -16.5 -38.001s-23.833 -16 -38.5 -16z" />
    <glyph glyph-name="eth" unicode="&#xf0;" horiz-adv-x="1114" 
d="M539 -16c-139.333 0 -253.001 51.168 -341.001 153.501s-132 235.166 -132 398.499c0 149.333 43.833 272.666 131.5 369.999s198.834 146 333.501 146c88 0 166.5 -21.167 235.5 -63.5s122.5 -102.166 160.5 -179.499h4c-39.333 198 -118 357 -236 477l-292 -126l-16 40
l277 118c-54.667 50 -135.667 103.333 -243 160h79c90.667 -48.667 160 -96 208 -142l272 115l16 -39l-256 -108c171.333 -183.333 257 -433 257 -749c0 -174 -41.5 -312.667 -124.5 -416s-194.167 -155 -333.5 -155zM531.999 1006
c-120.667 0 -220.168 -44.1689 -298.501 -132.502s-117.5 -200.5 -117.5 -336.5c0 -149.333 39.333 -271.166 118 -365.499s180.334 -141.5 305.001 -141.5c120.667 0 219 46 295 138s114 211.333 114 358s-37.667 263.334 -113 350.001s-176.333 130 -303 130z" />
    <glyph glyph-name="ntilde" unicode="&#xf1;" horiz-adv-x="1063" 
d="M674 1254c-24 0 -46.667 5.83301 -68 17.5s-39.833 25.667 -55.5 42l-46 49c-15 16.333 -31.333 30.333 -49 42s-36.167 17.5 -55.5 17.5c-64.667 0 -97 -52.667 -97 -158h-45c0 61.333 12 110.166 36 146.499s59.333 54.5 106 54.5c24 0 46.667 -5.66699 68 -17
s39.833 -25.166 55.5 -41.499l46 -49.5c15 -16.667 31.5 -30.667 49.5 -42s36.333 -17 55 -17c64.667 0 97 52.667 97 158h45c0 -62 -12 -111.167 -36 -147.5s-59.333 -54.5 -106 -54.5zM120 0l0.000976562 1076h46v-254h2c23.333 80.667 69.666 145.834 138.999 195.501
s150.333 74.5 243 74.5c119.333 0 215.833 -36 289.5 -108s110.5 -168 110.5 -288v-696h-49v694c0 107.333 -33 192.833 -99 256.5s-152.333 95.5 -259 95.5c-110 0 -199.833 -37.333 -269.5 -112s-104.5 -170.667 -104.5 -288v-646h-49z" />
    <glyph glyph-name="ograve" unicode="&#xf2;" horiz-adv-x="1078" 
d="M587 1253h-53l-246 303h63zM539 -16c-142.667 0 -257.333 50.167 -344 150.5s-130 234.833 -130 403.5s43.5 303.167 130.5 403.5s201.5 150.5 343.5 150.5s256.5 -50.167 343.5 -150.5s130.5 -234.833 130.5 -403.5s-43.5 -303.167 -130.5 -403.5
s-201.5 -150.5 -343.5 -150.5zM539.001 31c128 0 230.833 45.8311 308.5 137.498s116.5 214.834 116.5 369.501c0 155.333 -38.833 278.833 -116.5 370.5s-180.5 137.5 -308.5 137.5s-230.667 -45.833 -308 -137.5s-116 -215.167 -116 -370.5s38.667 -278.666 116 -369.999
s180 -137 308 -137z" />
    <glyph glyph-name="oacute" unicode="&#xf3;" horiz-adv-x="1078" 
d="M544 1253h-53l236 303h63zM539 -16c-142.667 0 -257.333 50.167 -344 150.5s-130 234.833 -130 403.5s43.5 303.167 130.5 403.5s201.5 150.5 343.5 150.5s256.5 -50.167 343.5 -150.5s130.5 -234.833 130.5 -403.5s-43.5 -303.167 -130.5 -403.5
s-201.5 -150.5 -343.5 -150.5zM539.001 31c128 0 230.833 45.8311 308.5 137.498s116.5 214.834 116.5 369.501c0 155.333 -38.833 278.833 -116.5 370.5s-180.5 137.5 -308.5 137.5s-230.667 -45.833 -308 -137.5s-116 -215.167 -116 -370.5s38.667 -278.666 116 -369.999
s180 -137 308 -137z" />
    <glyph glyph-name="ocircumflex" unicode="&#xf4;" horiz-adv-x="1078" 
d="M561 1556l265 -303h-56l-230 264h-2l-230 -264h-56l265 303h44zM539 -16c-142.667 0 -257.333 50.167 -344 150.5s-130 234.833 -130 403.5s43.5 303.167 130.5 403.5s201.5 150.5 343.5 150.5s256.5 -50.167 343.5 -150.5s130.5 -234.833 130.5 -403.5
s-43.5 -303.167 -130.5 -403.5s-201.5 -150.5 -343.5 -150.5zM539.001 31c128 0 230.833 45.8311 308.5 137.498s116.5 214.834 116.5 369.501c0 155.333 -38.833 278.833 -116.5 370.5s-180.5 137.5 -308.5 137.5s-230.667 -45.833 -308 -137.5s-116 -215.167 -116 -370.5
s38.667 -278.666 116 -369.999s180 -137 308 -137z" />
    <glyph glyph-name="otilde" unicode="&#xf5;" horiz-adv-x="1078" 
d="M675 1253c-24 0 -46.667 5.83301 -68 17.5s-39.833 25.667 -55.5 42l-46 49c-15 16.333 -31.333 30.333 -49 42s-36.167 17.5 -55.5 17.5c-64.667 0 -97 -52.667 -97 -158h-45c0 61.333 12 110.166 36 146.499s59.333 54.5 106 54.5c24 0 46.667 -5.66699 68 -17
s39.833 -25.333 55.5 -42l46 -49.5c15 -16.333 31.5 -30.166 49.5 -41.499s36.333 -17 55 -17c64.667 0 97 52.667 97 158h45c0 -62 -12 -111.167 -36 -147.5s-59.333 -54.5 -106 -54.5zM539 -16c-142.667 0 -257.333 50.167 -344 150.5s-130 234.833 -130 403.5
s43.5 303.167 130.5 403.5s201.5 150.5 343.5 150.5s256.5 -50.167 343.5 -150.5s130.5 -234.833 130.5 -403.5s-43.5 -303.167 -130.5 -403.5s-201.5 -150.5 -343.5 -150.5zM539.001 31c128 0 230.833 45.8311 308.5 137.498s116.5 214.834 116.5 369.501
c0 155.333 -38.833 278.833 -116.5 370.5s-180.5 137.5 -308.5 137.5s-230.667 -45.833 -308 -137.5s-116 -215.167 -116 -370.5s38.667 -278.666 116 -369.999s180 -137 308 -137z" />
    <glyph glyph-name="odieresis" unicode="&#xf6;" horiz-adv-x="1078" 
d="M400 1253c-14.667 0 -27.5 5.33301 -38.5 16s-16.5 23.334 -16.5 38.001s5.33301 27.167 16 37.5s23.667 15.5 39 15.5c14.667 0 27.334 -5.16699 38.001 -15.5s16 -22.833 16 -37.5s-5.33301 -27.334 -16 -38.001s-23.334 -16 -38.001 -16zM678 1253
c-14.667 0 -27.334 5.33301 -38.001 16s-16 23.334 -16 38.001s5.33301 27.167 16 37.5s23.334 15.5 38.001 15.5c15.333 0 28.333 -5.16699 39 -15.5s16 -22.833 16 -37.5s-5.5 -27.334 -16.5 -38.001s-23.833 -16 -38.5 -16zM539 -16
c-142.667 0 -257.333 50.167 -344 150.5s-130 234.833 -130 403.5s43.5 303.167 130.5 403.5s201.5 150.5 343.5 150.5s256.5 -50.167 343.5 -150.5s130.5 -234.833 130.5 -403.5s-43.5 -303.167 -130.5 -403.5s-201.5 -150.5 -343.5 -150.5zM539.001 31
c128 0 230.833 45.8311 308.5 137.498s116.5 214.834 116.5 369.501c0 155.333 -38.833 278.833 -116.5 370.5s-180.5 137.5 -308.5 137.5s-230.667 -45.833 -308 -137.5s-116 -215.167 -116 -370.5s38.667 -278.666 116 -369.999s180 -137 308 -137z" />
    <glyph glyph-name="divide" unicode="&#xf7;" horiz-adv-x="1179" 
d="M590 841c-18.667 0 -35 6.83301 -49 20.5s-21 30.167 -21 49.5c0 20 6.83301 36.667 20.5 50s30.167 20 49.5 20s35.833 -6.66699 49.5 -20s20.5 -30 20.5 -50c0 -19.333 -6.83301 -35.833 -20.5 -49.5s-30.167 -20.5 -49.5 -20.5zM590 152c-18.667 0 -35 7 -49 21
s-21 30.333 -21 49c0 20 6.83301 36.667 20.5 50s30.167 20 49.5 20s35.833 -6.66699 49.5 -20s20.5 -30 20.5 -50c0 -19.333 -6.83301 -35.833 -20.5 -49.5s-30.167 -20.5 -49.5 -20.5zM1074 555h-970v45h970v-45z" />
    <glyph glyph-name="oslash" unicode="&#xf8;" horiz-adv-x="1078" 
d="M850 905l-566 -788c69.333 -57.333 154.333 -86 255 -86c128 0 230.833 45.833 308.5 137.5s116.5 214.834 116.5 369.501c0 153.333 -38 275.666 -114 366.999zM250 147l569 790.999c-74 72 -167.333 108 -280 108c-128 0 -230.667 -45.833 -308 -137.5
s-116 -215.167 -116 -370.5c0 -167.333 45 -297.666 135 -390.999zM999 1112l-120 -167c89.333 -100.667 134 -236.334 134 -407.001c0 -168.667 -43.5 -303.167 -130.5 -403.5s-201.5 -150.5 -343.5 -150.5c-110 0 -204.667 31 -284 93l-125 -174l-37 26l128 178
c-104 100.667 -156 244.334 -156 431.001c0 168.667 43.5 303.167 130.5 403.5s201.5 150.5 343.5 150.5c123.333 0 226 -38 308 -114l115 159z" />
    <glyph glyph-name="ugrave" unicode="&#xf9;" horiz-adv-x="1063" 
d="M576 1253h-53l-246 303h63zM944 1076l0.00195312 -1076h-46v251h-2c-22 -76 -69.833 -139.5 -143.5 -190.5s-155.834 -76.5 -246.501 -76.5c-116.667 0 -211.334 35.5 -284.001 106.5s-109 165.833 -109 284.5v701h49v-694c0 -109.333 32.167 -195.166 96.5 -257.499
s148.833 -93.5 253.5 -93.5c108.667 0 199.5 36.333 272.5 109s109.5 168.334 109.5 287.001v649h50z" />
    <glyph glyph-name="uacute" unicode="&#xfa;" horiz-adv-x="1063" 
d="M533 1253h-53l236 303h63zM944 1076l0.00195312 -1076h-46v251h-2c-22 -76 -69.833 -139.5 -143.5 -190.5s-155.834 -76.5 -246.501 -76.5c-116.667 0 -211.334 35.5 -284.001 106.5s-109 165.833 -109 284.5v701h49v-694c0 -109.333 32.167 -195.166 96.5 -257.499
s148.833 -93.5 253.5 -93.5c108.667 0 199.5 36.333 272.5 109s109.5 168.334 109.5 287.001v649h50z" />
    <glyph glyph-name="ucircumflex" unicode="&#xfb;" horiz-adv-x="1063" 
d="M550 1556l265 -303h-56l-230 264h-2l-230 -264h-56l265 303h44zM944 1076l0.00195312 -1076h-46v251h-2c-22 -76 -69.833 -139.5 -143.5 -190.5s-155.834 -76.5 -246.501 -76.5c-116.667 0 -211.334 35.5 -284.001 106.5s-109 165.833 -109 284.5v701h49v-694
c0 -109.333 32.167 -195.166 96.5 -257.499s148.833 -93.5 253.5 -93.5c108.667 0 199.5 36.333 272.5 109s109.5 168.334 109.5 287.001v649h50z" />
    <glyph glyph-name="udieresis" unicode="&#xfc;" horiz-adv-x="1063" 
d="M944 1076l0.00195312 -1076h-46v251h-2c-22 -76 -69.833 -139.5 -143.5 -190.5s-155.834 -76.5 -246.501 -76.5c-116.667 0 -211.334 35.5 -284.001 106.5s-109 165.833 -109 284.5v701h49v-694c0 -109.333 32.167 -195.166 96.5 -257.499s148.833 -93.5 253.5 -93.5
c108.667 0 199.5 36.333 272.5 109s109.5 168.334 109.5 287.001v649h50zM389.002 1253c-14.667 0 -27.5 5.33301 -38.5 16s-16.5 23.334 -16.5 38.001s5.33301 27.167 16 37.5s23.667 15.5 39 15.5c14.667 0 27.334 -5.16699 38.001 -15.5s16 -22.833 16 -37.5
s-5.33301 -27.334 -16 -38.001s-23.334 -16 -38.001 -16zM667.002 1253c-14.667 0 -27.334 5.33301 -38.001 16s-16 23.334 -16 38.001s5.33301 27.167 16 37.5s23.334 15.5 38.001 15.5c15.333 0 28.333 -5.16699 39 -15.5s16 -22.833 16 -37.5s-5.5 -27.334 -16.5 -38.001
s-23.833 -16 -38.5 -16z" />
    <glyph glyph-name="yacute" unicode="&#xfd;" horiz-adv-x="888" 
d="M178 -343c-17.333 0 -33.001 3 -47.001 9v47c14.667 -6 32.334 -9 53.001 -9c46.667 0 85.167 15.333 115.5 46s60.166 83.667 89.499 159l28 72l-415 1095h54l387 -1029h2l388 1029h54l-417 -1101c-49.333 -130 -92.666 -215.5 -129.999 -256.5
s-91.333 -61.5 -162 -61.5zM448.999 1253h-53l236 303h63z" />
    <glyph glyph-name="thorn" unicode="&#xfe;" horiz-adv-x="1116" 
d="M597 1092c134.667 0 244 -51.167 328 -153.5s126 -235.833 126 -400.5s-42 -298.167 -126 -400.5s-193.333 -153.5 -328 -153.5c-96 0 -181.167 27.5 -255.5 82.5s-126.833 129.5 -157.5 223.5h-5v-683h-49v1869h47v-701h5c29.333 96.667 81.333 173.667 156 231
s161 86 259 86zM594 30c121.333 0 219.5 46.832 294.5 140.499s112.5 215.834 112.5 366.501s-37.667 273.167 -113 367.5s-173.333 141.5 -294 141.5c-122 0 -221.667 -47.333 -299 -142s-116 -216.667 -116 -366c0 -148.667 38.833 -270.5 116.5 -365.5
s177.167 -142.5 298.5 -142.5z" />
    <glyph glyph-name="ydieresis" unicode="&#xff;" horiz-adv-x="888" 
d="M178 -343c-17.333 0 -33.001 3 -47.001 9v47c14.667 -6 32.334 -9 53.001 -9c46.667 0 85.167 15.333 115.5 46s60.166 83.667 89.499 159l28 72l-415 1095h54l387 -1029h2l388 1029h54l-417 -1101c-49.333 -130 -92.666 -215.5 -129.999 -256.5
s-91.333 -61.5 -162 -61.5zM304.999 1253c-14.667 0 -27.5 5.33301 -38.5 16s-16.5 23.334 -16.5 38.001s5.33301 27.167 16 37.5s23.667 15.5 39 15.5c14.667 0 27.334 -5.16699 38.001 -15.5s16 -22.833 16 -37.5s-5.33301 -27.334 -16 -38.001s-23.334 -16 -38.001 -16z
M582.999 1253c-14.667 0 -27.334 5.33301 -38.001 16s-16 23.334 -16 38.001s5.33301 27.167 16 37.5s23.334 15.5 38.001 15.5c15.333 0 28.333 -5.16699 39 -15.5s16 -22.833 16 -37.5s-5.5 -27.334 -16.5 -38.001s-23.833 -16 -38.5 -16z" />
    <glyph glyph-name="Amacron" unicode="&#x100;" horiz-adv-x="1201" 
d="M1125 0l-189 501h-671l-190 -501h-55l555 1443h51l555 -1443h-56zM598 1374l-315 -827h635l-315 827h-5zM882 1659v-43h-564v43h564z" />
    <glyph glyph-name="amacron" unicode="&#x101;" horiz-adv-x="1021" 
d="M449 30c112.667 0 209.168 35.833 289.501 107.5s120.5 157.834 120.5 258.501v182l-381 -29c-110 -8.66699 -193.833 -35.334 -251.5 -80.001s-86.5 -105.667 -86.5 -183c0 -74 29.167 -135.167 87.5 -183.5s132.166 -72.5 221.499 -72.5zM446.001 -16
c-104.667 0 -190.167 28.167 -256.5 84.5s-99.5 128.833 -99.5 217.5c0 91.333 32 162.666 96 213.999s158.667 82 284 92l389 30v97c0 102 -28.833 182 -86.5 240s-137.167 87 -238.5 87c-100.667 0 -182 -24.667 -244 -74s-100 -119 -114 -209h-47
c11.333 102 53.333 182.333 126 241s165.667 88 279 88c115.333 0 206.5 -33.167 273.5 -99.5s100.5 -156.5 100.5 -270.5v-722h-49v245h-1c-26 -77.333 -77.167 -140.166 -153.5 -188.499s-162.5 -72.5 -258.5 -72.5zM818.001 1348v-43h-584v43h584z" />
    <glyph glyph-name="Abreve" unicode="&#x102;" horiz-adv-x="1201" 
d="M1125 0l-189 501h-671l-190 -501h-55l555 1443h51l555 -1443h-56zM598 1374l-315 -827h635l-315 827h-5zM343 1771h45c0 -50 19.5 -91.667 58.5 -125s90.167 -50 153.5 -50s114.5 16.667 153.5 50s58.5 75 58.5 125h45c0 -66 -23.833 -118.667 -71.5 -158
s-109.5 -59 -185.5 -59s-137.833 19.667 -185.5 59s-71.5 92 -71.5 158z" />
    <glyph glyph-name="abreve" unicode="&#x103;" horiz-adv-x="1021" 
d="M449 30c112.667 0 209.168 35.833 289.501 107.5s120.5 157.834 120.5 258.501v182l-381 -29c-110 -8.66699 -193.833 -35.334 -251.5 -80.001s-86.5 -105.667 -86.5 -183c0 -74 29.167 -135.167 87.5 -183.5s132.166 -72.5 221.499 -72.5zM446.001 -16
c-104.667 0 -190.167 28.167 -256.5 84.5s-99.5 128.833 -99.5 217.5c0 91.333 32 162.666 96 213.999s158.667 82 284 92l389 30v97c0 102 -28.833 182 -86.5 240s-137.167 87 -238.5 87c-100.667 0 -182 -24.667 -244 -74s-100 -119 -114 -209h-47
c11.333 102 53.333 182.333 126 241s165.667 88 279 88c115.333 0 206.5 -33.167 273.5 -99.5s100.5 -156.5 100.5 -270.5v-722h-49v245h-1c-26 -77.333 -77.167 -140.166 -153.5 -188.499s-162.5 -72.5 -258.5 -72.5zM275.001 1490h44.998
c0 -58.667 19.333 -105.667 58 -141s90.334 -53 155.001 -53s116.334 17.667 155.001 53s58 82.333 58 141h45c0 -74.667 -24 -132.834 -72 -174.501s-110 -62.5 -186 -62.5s-138 20.833 -186 62.5s-72 99.834 -72 174.501z" />
    <glyph glyph-name="Aogonek" unicode="&#x104;" horiz-adv-x="1201" 
d="M1156 -406c-55.333 0 -100.501 16.833 -135.501 50.5s-52.5 77.167 -52.5 130.5c0 89.333 51.333 168.333 154 237l-186 488h-671l-190 -500h-55l555 1443h51l554 -1445c-108.667 -60.667 -163 -133.667 -163 -219c0 -41.333 13.833 -74.833 41.5 -100.5
s63.5 -38.5 107.5 -38.5h15v-45c-1.33301 -0.666992 -9.66602 -1 -24.999 -1zM597.999 1373l-315 -826h635l-315 826h-5z" />
    <glyph glyph-name="aogonek" unicode="&#x105;" horiz-adv-x="1021" 
d="M883 -406c-55.333 0 -100.501 16.834 -135.501 50.501s-52.5 77.167 -52.5 130.5c0 89.333 54.667 169.333 164 240v230h-1c-26 -77.333 -77.167 -140.166 -153.5 -188.499s-162.5 -72.5 -258.5 -72.5c-104.667 0 -190.167 28.167 -256.5 84.5s-99.5 128.833 -99.5 217.5
c0 91.333 32 162.666 96 213.999s158.667 82 284 92l389 30v97c0 102 -28.833 182 -86.5 240s-137.167 87 -238.5 87c-100.667 0 -182 -24.667 -244 -74s-100 -119 -114 -209h-47c11.333 102 53.333 182.333 126 241s165.667 88 279 88c115.333 0 206.5 -33.167 273.5 -99.5
s100.5 -156.5 100.5 -270.5v-725c-60 -37.333 -102.333 -72.333 -127 -105s-37 -70.334 -37 -113.001c0 -41.333 13.833 -74.833 41.5 -100.5s63.5 -38.5 107.5 -38.5h15v-45c-1.33301 -0.666992 -9.66602 -1 -24.999 -1zM448.999 30.001
c112.667 0 209.168 35.833 289.501 107.5s120.5 157.834 120.5 258.501v182l-381 -29c-110 -8.66699 -193.833 -35.334 -251.5 -80.001s-86.5 -105.667 -86.5 -183c0 -74 29.167 -135.167 87.5 -183.5s132.166 -72.5 221.499 -72.5z" />
    <glyph glyph-name="Cacute" unicode="&#x106;" horiz-adv-x="1303" 
d="M711 1554h-56l293 287h66zM692 -20c-191.333 0 -344.004 68 -458.004 204s-171 318.667 -171 548c0 224.667 56.5 402.667 169.5 534s266.167 197 459.5 197c143.333 0 269 -46.833 377 -140.5s168.333 -208.167 181 -343.5h-49c-13.333 122.667 -69 226.167 -167 310.5
s-212 126.5 -342 126.5c-177.333 0 -318.166 -61.5 -422.499 -184.5s-156.5 -289.5 -156.5 -499.5c0 -216 52.5 -387.5 157.5 -514.5s245.5 -190.5 421.5 -190.5c135.333 0 251 38.333 347 115s150 176 162 298h49c-7.33301 -89.333 -36.166 -169 -86.499 -239
s-116.666 -124.333 -198.999 -163s-173.166 -58 -272.499 -58z" />
    <glyph glyph-name="cacute" unicode="&#x107;" horiz-adv-x="1019" 
d="M958 760l-50.001 -0.00195312c-17.333 84 -60.166 152.667 -128.499 206s-150.166 80 -245.499 80c-128.667 0 -230.667 -45.833 -306 -137.5s-113 -215.167 -113 -370.5s37.5 -278.666 112.5 -369.999s177.167 -137 306.5 -137c96.667 0 178.667 25.333 246 76
s109.333 117.334 126 200.001h50c-17.333 -96.667 -64.333 -174.667 -141 -234s-170.334 -89 -281.001 -89c-143.333 0 -257.333 49.833 -342 149.5s-127 234.5 -127 404.5c0 169.333 42.333 304 127 404s198.667 150 342 150c108.667 0 202 -31.167 280 -93.5
s126 -141.833 144 -238.5zM538.999 1254h-53l236 303h63z" />
    <glyph glyph-name="Ccircumflex" unicode="&#x108;" horiz-adv-x="1303" 
d="M692 -20c-191.333 0 -344.004 68 -458.004 204s-171 318.667 -171 548c0 224.667 56.5 402.667 169.5 534s266.167 197 459.5 197c143.333 0 269 -46.833 377 -140.5s168.333 -208.167 181 -343.5h-49c-13.333 122.667 -69 226.167 -167 310.5s-212 126.5 -342 126.5
c-177.333 0 -318.166 -61.5 -422.499 -184.5s-156.5 -289.5 -156.5 -499.5c0 -216 52.5 -387.5 157.5 -514.5s245.5 -190.5 421.5 -190.5c135.333 0 251 38.333 347 115s150 176 162 298h49c-7.33301 -89.333 -36.166 -169 -86.499 -239s-116.666 -124.333 -198.999 -163
s-173.166 -58 -272.499 -58zM669.996 1841h46l266 -287h-59l-229 249h-2l-229 -249h-59z" />
    <glyph glyph-name="ccircumflex" unicode="&#x109;" horiz-adv-x="1019" 
d="M556 1557l265 -303h-56l-230 264h-2l-230 -264h-56l265 303h44zM958 760l-50.001 -0.00195312c-17.333 84 -60.166 152.667 -128.499 206s-150.166 80 -245.499 80c-128.667 0 -230.667 -45.833 -306 -137.5s-113 -215.167 -113 -370.5s37.5 -278.666 112.5 -369.999
s177.167 -137 306.5 -137c96.667 0 178.667 25.333 246 76s109.333 117.334 126 200.001h50c-17.333 -96.667 -64.333 -174.667 -141 -234s-170.334 -89 -281.001 -89c-143.333 0 -257.333 49.833 -342 149.5s-127 234.5 -127 404.5c0 169.333 42.333 304 127 404
s198.667 150 342 150c108.667 0 202 -31.167 280 -93.5s126 -141.833 144 -238.5z" />
    <glyph glyph-name="Cdotaccent" unicode="&#x10a;" horiz-adv-x="1303" 
d="M693 1556c-17.333 0 -32.333 6.33301 -45 19s-19 27.667 -19 45c0 16.667 6.33301 31.334 19 44.001s27.667 19 45 19s32.333 -6.33301 45 -19s19 -27.334 19 -44.001c0 -17.333 -6.33301 -32.333 -19 -45s-27.667 -19 -45 -19zM692 -20
c-191.333 0 -344.004 68 -458.004 204s-171 318.667 -171 548c0 224.667 56.5 402.667 169.5 534s266.167 197 459.5 197c143.333 0 269 -46.833 377 -140.5s168.333 -208.167 181 -343.5h-49c-13.333 122.667 -69 226.167 -167 310.5s-212 126.5 -342 126.5
c-177.333 0 -318.166 -61.5 -422.499 -184.5s-156.5 -289.5 -156.5 -499.5c0 -216 52.5 -387.5 157.5 -514.5s245.5 -190.5 421.5 -190.5c135.333 0 251 38.333 347 115s150 176 162 298h49c-7.33301 -89.333 -36.166 -169 -86.499 -239s-116.666 -124.333 -198.999 -163
s-173.166 -58 -272.499 -58z" />
    <glyph glyph-name="cdotaccent" unicode="&#x10b;" horiz-adv-x="1019" 
d="M958 760l-50.001 -0.00195312c-17.333 84 -60.166 152.667 -128.499 206s-150.166 80 -245.499 80c-128.667 0 -230.667 -45.833 -306 -137.5s-113 -215.167 -113 -370.5s37.5 -278.666 112.5 -369.999s177.167 -137 306.5 -137c96.667 0 178.667 25.333 246 76
s109.333 117.334 126 200.001h50c-17.333 -96.667 -64.333 -174.667 -141 -234s-170.334 -89 -281.001 -89c-143.333 0 -257.333 49.833 -342 149.5s-127 234.5 -127 404.5c0 169.333 42.333 304 127 404s198.667 150 342 150c108.667 0 202 -31.167 280 -93.5
s126 -141.833 144 -238.5zM533.999 1254c-17.333 0 -32.333 6.33301 -45 19s-19 27.667 -19 45s6.33301 32.333 19 45s27.667 19 45 19s32.5 -6.33301 45.5 -19s19.5 -27.667 19.5 -45s-6.5 -32.333 -19.5 -45s-28.167 -19 -45.5 -19z" />
    <glyph glyph-name="Ccaron" unicode="&#x10c;" horiz-adv-x="1303" 
d="M692 -20c-191.333 0 -344.004 68 -458.004 204s-171 318.667 -171 548c0 224.667 56.5 402.667 169.5 534s266.167 197 459.5 197c143.333 0 269 -46.833 377 -140.5s168.333 -208.167 181 -343.5h-49c-13.333 122.667 -69 226.167 -167 310.5s-212 126.5 -342 126.5
c-177.333 0 -318.166 -61.5 -422.499 -184.5s-156.5 -289.5 -156.5 -499.5c0 -216 52.5 -387.5 157.5 -514.5s245.5 -190.5 421.5 -190.5c135.333 0 251 38.333 347 115s150 176 162 298h49c-7.33301 -89.333 -36.166 -169 -86.499 -239s-116.666 -124.333 -198.999 -163
s-173.166 -58 -272.499 -58zM669.996 1554l-266 287h59l229 -250h2l229 250h59l-266 -287h-46z" />
    <glyph glyph-name="ccaron" unicode="&#x10d;" horiz-adv-x="1019" 
d="M556 1254h-44l-265 303h56l230 -264h2l230 264h56zM958 760l-50.001 -0.00195312c-17.333 84 -60.166 152.667 -128.499 206s-150.166 80 -245.499 80c-128.667 0 -230.667 -45.833 -306 -137.5s-113 -215.167 -113 -370.5s37.5 -278.666 112.5 -369.999
s177.167 -137 306.5 -137c96.667 0 178.667 25.333 246 76s109.333 117.334 126 200.001h50c-17.333 -96.667 -64.333 -174.667 -141 -234s-170.334 -89 -281.001 -89c-143.333 0 -257.333 49.833 -342 149.5s-127 234.5 -127 404.5c0 169.333 42.333 304 127 404
s198.667 150 342 150c108.667 0 202 -31.167 280 -93.5s126 -141.833 144 -238.5z" />
    <glyph glyph-name="Dcaron" unicode="&#x10e;" horiz-adv-x="1313" 
d="M530 1554l-266 287h59l229 -250h2l229 250h59l-266 -287h-46zM124 1443h436c220 0 390 -62.667 510 -188s180 -303 180 -533c0 -230.667 -60 -408.667 -180 -534s-290 -188 -510 -188h-436v1443zM175 1396v-1349h384c205.333 0 363.5 58.333 474.5 175
s166.5 283.334 166.5 500.001c0 216 -55.5 382.333 -166.5 499s-269.167 175 -474.5 175h-384z" />
    <glyph glyph-name="dcaron" unicode="&#x10f;" horiz-adv-x="1209" 
d="M1192 1476h47l-10 -355h-37v355zM524 -16c-134.667 0 -244.833 51.5 -330.5 154.5s-128.5 236.167 -128.5 399.5c0 164 42.833 297.333 128.5 400s195.834 154 330.501 154c104 0 194.667 -31.667 272 -95s126.666 -142 147.999 -236h2v745h50v-1506h-46v322h-2
c-23.333 -97.333 -73.833 -178 -151.5 -242s-168.5 -96 -272.5 -96zM526.001 1046c-120.667 0 -219.334 -46.999 -296.001 -140.999s-115 -216 -115 -366c0 -150.667 38.333 -273 115 -367s175.334 -141 296.001 -141c122.667 0 223.334 47.167 302.001 141.5
s118 216.166 118 365.499s-39.333 271.333 -118 366s-179.334 142 -302.001 142z" />
    <glyph glyph-name="Dcroat" unicode="&#x110;" horiz-adv-x="1367" 
d="M218 47l384 -0.000976562c205.333 0 363.5 58.333 474.5 175s166.5 283.334 166.5 500.001c0 216 -55.5 382.333 -166.5 499s-269.167 175 -474.5 175h-384v-632h382v-47h-382v-670zM167 1443h436c220 0 390 -62.667 510 -188s180 -303 180 -533
c0 -230.667 -60 -408.667 -180 -534s-290 -188 -510 -188h-436v717h-110v47h110v679z" />
    <glyph glyph-name="dcroat" unicode="&#x111;" horiz-adv-x="1128" 
d="M532 30c122.667 0 222.667 47.333 300 142s116 216.667 116 366c0 148.667 -38.833 270.5 -116.5 365.5s-177.5 142.5 -299.5 142.5s-221.833 -47.333 -299.5 -142s-116.5 -216.667 -116.5 -366c0 -148.667 38.833 -270.5 116.5 -365.5s177.5 -142.5 299.5 -142.5z
M1104 1326v-44.001h-107v-1282h-47v300h-5c-29.333 -96.667 -81.333 -173.5 -156 -230.5s-161 -85.5 -259 -85.5c-136.667 0 -248.167 51.5 -334.5 154.5s-129.5 235.833 -129.5 398.5s43.333 295.834 130 399.501s198 155.5 334 155.5c96 0 181.167 -27.667 255.5 -83
s126.833 -130 157.5 -224h5v497h-298v44h298v184h49v-184h107z" />
    <glyph glyph-name="Emacron" unicode="&#x112;" horiz-adv-x="1050" 
d="M950 47v-47h-826v1443h826v-47h-776v-632h740v-46h-740v-671h776zM819 1659v-43h-564v43h564z" />
    <glyph glyph-name="emacron" unicode="&#x113;" horiz-adv-x="1056" 
d="M533 1046c-120 0 -218 -42.5 -294 -127.5s-117 -197.5 -123 -337.5h825c0 138 -37.5 250 -112.5 336s-173.5 129 -295.5 129zM926 299l50.999 -0.000976562c-18.667 -93.333 -66.667 -169.166 -144 -227.499s-174.666 -87.5 -291.999 -87.5
c-146 0 -261.833 49 -347.5 147s-128.5 233.667 -128.5 407c0 166.667 42.667 300.667 128 402s198.666 152 339.999 152c136.667 0 247.167 -47.667 331.5 -143s126.5 -220.333 126.5 -375v-38h-876v-2c0 -158 38.667 -281.5 116 -370.5s181 -133.5 311 -133.5
c104 0 189.833 25 257.5 75s109.834 114.667 126.501 194zM817.999 1348v-43h-584v43h584z" />
    <glyph glyph-name="Ebreve" unicode="&#x114;" horiz-adv-x="1050" 
d="M950 47v-47h-826v1443h826v-47h-776v-632h740v-46h-740v-671h776zM280 1771h45c0 -50 19.5 -91.667 58.5 -125s90.167 -50 153.5 -50s114.5 16.667 153.5 50s58.5 75 58.5 125h45c0 -66 -23.833 -118.667 -71.5 -158s-109.5 -59 -185.5 -59s-137.833 19.667 -185.5 59
s-71.5 92 -71.5 158z" />
    <glyph glyph-name="ebreve" unicode="&#x115;" horiz-adv-x="1056" 
d="M533 1046c-120 0 -218 -42.5 -294 -127.5s-117 -197.5 -123 -337.5h825c0 138 -37.5 250 -112.5 336s-173.5 129 -295.5 129zM926 299l50.999 -0.000976562c-18.667 -93.333 -66.667 -169.166 -144 -227.499s-174.666 -87.5 -291.999 -87.5
c-146 0 -261.833 49 -347.5 147s-128.5 233.667 -128.5 407c0 166.667 42.667 300.667 128 402s198.666 152 339.999 152c136.667 0 247.167 -47.667 331.5 -143s126.5 -220.333 126.5 -375v-38h-876v-2c0 -158 38.667 -281.5 116 -370.5s181 -133.5 311 -133.5
c104 0 189.833 25 257.5 75s109.834 114.667 126.501 194zM274.999 1490h44.998c0 -58.667 19.333 -105.667 58 -141s90.334 -53 155.001 -53s116.334 17.667 155.001 53s58 82.333 58 141h45c0 -74.667 -24 -132.834 -72 -174.501s-110 -62.5 -186 -62.5
s-138 20.833 -186 62.5s-72 99.834 -72 174.501z" />
    <glyph glyph-name="Edotaccent" unicode="&#x116;" horiz-adv-x="1050" 
d="M537 1556c-17.333 0 -32.333 6.33301 -45 19s-19 27.667 -19 45c0 16.667 6.33301 31.334 19 44.001s27.667 19 45 19s32.333 -6.33301 45 -19s19 -27.334 19 -44.001c0 -17.333 -6.33301 -32.333 -19 -45s-27.667 -19 -45 -19zM950 47v-47h-826v1443h826v-47h-776v-632
h740v-46h-740v-671h776z" />
    <glyph glyph-name="edotaccent" unicode="&#x117;" horiz-adv-x="1056" 
d="M533 1254c-16.667 0 -31.5 6.33301 -44.5 19s-19.5 27.667 -19.5 45s6.33301 32.333 19 45s27.667 19 45 19s32.5 -6.33301 45.5 -19s19.5 -27.667 19.5 -45s-6.5 -32.333 -19.5 -45s-28.167 -19 -45.5 -19zM533 1046c-120 0 -218 -42.5 -294 -127.5
s-117 -197.5 -123 -337.5h825c0 138 -37.5 250 -112.5 336s-173.5 129 -295.5 129zM926 299l50.999 -0.000976562c-18.667 -93.333 -66.667 -169.166 -144 -227.499s-174.666 -87.5 -291.999 -87.5c-146 0 -261.833 49 -347.5 147s-128.5 233.667 -128.5 407
c0 166.667 42.667 300.667 128 402s198.666 152 339.999 152c136.667 0 247.167 -47.667 331.5 -143s126.5 -220.333 126.5 -375v-38h-876v-2c0 -158 38.667 -281.5 116 -370.5s181 -133.5 311 -133.5c104 0 189.833 25 257.5 75s109.834 114.667 126.501 194z" />
    <glyph glyph-name="Eogonek" unicode="&#x118;" horiz-adv-x="1050" 
d="M870 0l-746.001 -0.000976562v1443h826v-47h-776v-632h740v-46h-740v-671h776v-44c-110.667 -62 -166 -136 -166 -222c0 -41.333 13.833 -75.166 41.5 -101.499s63.5 -39.5 107.5 -39.5h17v-45l-12 -1h-15c-55.333 0 -100.666 17 -135.999 51s-53 77.667 -53 131
c0 83.333 45.333 158 136 224z" />
    <glyph glyph-name="eogonek" unicode="&#x119;" horiz-adv-x="1056" 
d="M719 -406c-53.333 0 -97.999 18.001 -133.999 54.001s-54 81 -54 135c0 81.333 41 151.333 123 210v2c-27.333 -7.33301 -65 -11 -113 -11c-147.333 0 -263.5 49.5 -348.5 148.5s-127.5 234.167 -127.5 405.5c0 166.667 42.667 300.667 128 402s198.666 152 339.999 152
c136.667 0 247.167 -47.667 331.5 -143s126.5 -220.333 126.5 -375v-38h-876v-2c0 -156 38 -279 114 -369s180.333 -135 313 -135c100.667 0 185.5 24.167 254.5 72.5s112.167 113.833 129.5 196.5h51c-22.667 -112.667 -86 -200.334 -190 -263.001
c-72.667 -43.333 -125.334 -84.833 -158.001 -124.5s-49 -81.5 -49 -125.5c0 -42.667 14 -77.667 42 -105s63.667 -41 107 -41c10.667 0 16.334 0.333008 17.001 1v-46c-0.666992 0 -5 -0.166992 -13 -0.5s-12.667 -0.5 -14 -0.5zM533.001 1046
c-120 0 -218.001 -42.501 -294.001 -127.501s-117 -197.5 -123 -337.5h825c0 138.667 -37.667 250.834 -113 336.501s-173.666 128.5 -294.999 128.5z" />
    <glyph glyph-name="Ecaron" unicode="&#x11a;" horiz-adv-x="1050" 
d="M514 1554l-266 287h59l229 -250h2l229 250h59l-266 -287h-46zM950 47v-47h-826v1443h826v-47h-776v-632h740v-46h-740v-671h776z" />
    <glyph glyph-name="ecaron" unicode="&#x11b;" horiz-adv-x="1056" 
d="M555 1254h-44l-265 303h56l230 -264h2l230 264h56zM533 1046c-120 0 -218 -42.5 -294 -127.5s-117 -197.5 -123 -337.5h825c0 138 -37.5 250 -112.5 336s-173.5 129 -295.5 129zM926 299l50.999 -0.000976562c-18.667 -93.333 -66.667 -169.166 -144 -227.499
s-174.666 -87.5 -291.999 -87.5c-146 0 -261.833 49 -347.5 147s-128.5 233.667 -128.5 407c0 166.667 42.667 300.667 128 402s198.666 152 339.999 152c136.667 0 247.167 -47.667 331.5 -143s126.5 -220.333 126.5 -375v-38h-876v-2c0 -158 38.667 -281.5 116 -370.5
s181 -133.5 311 -133.5c104 0 189.833 25 257.5 75s109.834 114.667 126.501 194z" />
    <glyph glyph-name="Gcircumflex" unicode="&#x11c;" horiz-adv-x="1332" 
d="M662 1841h46l266 -287h-59l-229 249h-2l-229 -249h-59zM1259 564c0 -181.333 -51.1709 -323.999 -153.504 -427.999s-242.5 -156 -420.5 -156c-121.333 0 -229.166 31.5 -323.499 94.5s-167.666 151.5 -219.999 265.5s-78.5 244.333 -78.5 391
c0 219.333 57 396.166 171 530.499s264.333 201.5 451 201.5c142 0 264.833 -39.333 368.5 -118s168.834 -181.667 195.501 -309h-49c-28 114.667 -89 206.667 -183 276s-204.667 104 -332 104c-172 0 -310.333 -62.667 -415 -188s-157 -291 -157 -497
c0 -208.667 53 -378.167 159 -508.5s243.667 -195.5 413 -195.5c162.667 0 290.834 47.667 384.501 143s140.5 226 140.5 392v100h-531v46h580v-144z" />
    <glyph glyph-name="gcircumflex" unicode="&#x11d;" horiz-adv-x="1106" 
d="M581 1557l265 -303h-56l-230 264h-2l-230 -264h-56l265 303h44zM521 31c122.667 0 222.667 47.168 300 141.501s116 216.166 116 365.499s-38.667 271.333 -116 366s-177.333 142 -300 142c-120.667 0 -218.5 -47 -293.5 -141s-112.5 -216.667 -112.5 -368
c0 -150 37.5 -271.833 112.5 -365.5s172.833 -140.5 293.5 -140.5zM542 -353.999c-111.333 0 -203.667 21.332 -277 63.999s-118 99 -134 169h53c14 -55.333 53.5 -100.333 118.5 -135s145.833 -52 242.5 -52c116.667 0 211.167 27.333 283.5 82
s108.5 129.334 108.5 224.001v318h-2c-22 -94.667 -71 -173.5 -147 -236.5s-165.667 -94.5 -269 -94.5c-134.667 0 -244 51.167 -328 153.5s-126 235.5 -126 399.5s42.167 297.333 126.5 400s193.5 154 327.5 154c104 0 194 -31.833 270 -95.5s125.667 -144.167 149 -241.5
h2v321h46v-1076c0 -110 -41 -196.5 -123 -259.5s-189 -94.5 -321 -94.5z" />
    <glyph glyph-name="Gbreve" unicode="&#x11e;" horiz-adv-x="1332" 
d="M1259 564c0 -181.333 -51.1709 -323.999 -153.504 -427.999s-242.5 -156 -420.5 -156c-121.333 0 -229.166 31.5 -323.499 94.5s-167.666 151.5 -219.999 265.5s-78.5 244.333 -78.5 391c0 219.333 57 396.166 171 530.499s264.333 201.5 451 201.5
c142 0 264.833 -39.333 368.5 -118s168.834 -181.667 195.501 -309h-49c-28 114.667 -89 206.667 -183 276s-204.667 104 -332 104c-172 0 -310.333 -62.667 -415 -188s-157 -291 -157 -497c0 -208.667 53 -378.167 159 -508.5s243.667 -195.5 413 -195.5
c162.667 0 290.834 47.667 384.501 143s140.5 226 140.5 392v100h-531v46h580v-144zM427.996 1771h45c0 -50 19.5 -91.667 58.5 -125s90.167 -50 153.5 -50s114.5 16.667 153.5 50s58.5 75 58.5 125h45c0 -66 -23.833 -118.667 -71.5 -158s-109.5 -59 -185.5 -59
s-137.833 19.667 -185.5 59s-71.5 92 -71.5 158z" />
    <glyph glyph-name="gbreve" unicode="&#x11f;" horiz-adv-x="1106" 
d="M301 1490h44.998c0 -58.667 19.333 -105.667 58 -141s90.334 -53 155.001 -53s116.334 17.667 155.001 53s58 82.333 58 141h45c0 -74.667 -24 -132.834 -72 -174.501s-110 -62.5 -186 -62.5s-138 20.833 -186 62.5s-72 99.834 -72 174.501zM520.998 31
c122.667 0 222.667 47.168 300 141.501s116 216.166 116 365.499s-38.667 271.333 -116 366s-177.333 142 -300 142c-120.667 0 -218.5 -47 -293.5 -141s-112.5 -216.667 -112.5 -368c0 -150 37.5 -271.833 112.5 -365.5s172.833 -140.5 293.5 -140.5zM541.998 -353.999
c-111.333 0 -203.667 21.332 -277 63.999s-118 99 -134 169h53c14 -55.333 53.5 -100.333 118.5 -135s145.833 -52 242.5 -52c116.667 0 211.167 27.333 283.5 82s108.5 129.334 108.5 224.001v318h-2c-22 -94.667 -71 -173.5 -147 -236.5s-165.667 -94.5 -269 -94.5
c-134.667 0 -244 51.167 -328 153.5s-126 235.5 -126 399.5s42.167 297.333 126.5 400s193.5 154 327.5 154c104 0 194 -31.833 270 -95.5s125.667 -144.167 149 -241.5h2v321h46v-1076c0 -110 -41 -196.5 -123 -259.5s-189 -94.5 -321 -94.5z" />
    <glyph glyph-name="Gdotaccent" unicode="&#x120;" horiz-adv-x="1332" 
d="M685 1556c-17.333 0 -32.333 6.33301 -45 19s-19 27.667 -19 45c0 16.667 6.33301 31.334 19 44.001s27.667 19 45 19s32.333 -6.33301 45 -19s19 -27.334 19 -44.001c0 -17.333 -6.33301 -32.333 -19 -45s-27.667 -19 -45 -19zM1259 564
c0 -181.333 -51.1709 -323.999 -153.504 -427.999s-242.5 -156 -420.5 -156c-121.333 0 -229.166 31.5 -323.499 94.5s-167.666 151.5 -219.999 265.5s-78.5 244.333 -78.5 391c0 219.333 57 396.166 171 530.499s264.333 201.5 451 201.5c142 0 264.833 -39.333 368.5 -118
s168.834 -181.667 195.501 -309h-49c-28 114.667 -89 206.667 -183 276s-204.667 104 -332 104c-172 0 -310.333 -62.667 -415 -188s-157 -291 -157 -497c0 -208.667 53 -378.167 159 -508.5s243.667 -195.5 413 -195.5c162.667 0 290.834 47.667 384.501 143
s140.5 226 140.5 392v100h-531v46h580v-144z" />
    <glyph glyph-name="gdotaccent" unicode="&#x121;" horiz-adv-x="1106" 
d="M559 1254c-16.667 0 -31.5 6.33301 -44.5 19s-19.5 27.667 -19.5 45s6.33301 32.333 19 45s27.667 19 45 19s32.5 -6.33301 45.5 -19s19.5 -27.667 19.5 -45s-6.5 -32.333 -19.5 -45s-28.167 -19 -45.5 -19zM521 31c122.667 0 222.667 47.168 300 141.501
s116 216.166 116 365.499s-38.667 271.333 -116 366s-177.333 142 -300 142c-120.667 0 -218.5 -47 -293.5 -141s-112.5 -216.667 -112.5 -368c0 -150 37.5 -271.833 112.5 -365.5s172.833 -140.5 293.5 -140.5zM542 -353.999c-111.333 0 -203.667 21.332 -277 63.999
s-118 99 -134 169h53c14 -55.333 53.5 -100.333 118.5 -135s145.833 -52 242.5 -52c116.667 0 211.167 27.333 283.5 82s108.5 129.334 108.5 224.001v318h-2c-22 -94.667 -71 -173.5 -147 -236.5s-165.667 -94.5 -269 -94.5c-134.667 0 -244 51.167 -328 153.5
s-126 235.5 -126 399.5s42.167 297.333 126.5 400s193.5 154 327.5 154c104 0 194 -31.833 270 -95.5s125.667 -144.167 149 -241.5h2v321h46v-1076c0 -110 -41 -196.5 -123 -259.5s-189 -94.5 -321 -94.5z" />
    <glyph glyph-name="Gcommaaccent" unicode="&#x122;" horiz-adv-x="1332" 
d="M616 -480h-46l102 338h57zM1259 564c0 -181.333 -51.1709 -323.999 -153.504 -427.999s-242.5 -156 -420.5 -156c-121.333 0 -229.166 31.5 -323.499 94.5s-167.666 151.5 -219.999 265.5s-78.5 244.333 -78.5 391c0 219.333 57 396.166 171 530.499
s264.333 201.5 451 201.5c142 0 264.833 -39.333 368.5 -118s168.834 -181.667 195.501 -309h-49c-28 114.667 -89 206.667 -183 276s-204.667 104 -332 104c-172 0 -310.333 -62.667 -415 -188s-157 -291 -157 -497c0 -208.667 53 -378.167 159 -508.5
s243.667 -195.5 413 -195.5c162.667 0 290.834 47.667 384.501 143s140.5 226 140.5 392v100h-531v46h580v-144z" />
    <glyph glyph-name="gcommaaccent" unicode="&#x123;" horiz-adv-x="1106" 
d="M473 -833h-46l102 338h57zM521 31c122.667 0 222.667 47.168 300 141.501s116 216.166 116 365.499s-38.667 271.333 -116 366s-177.333 142 -300 142c-120.667 0 -218.5 -47 -293.5 -141s-112.5 -216.667 -112.5 -368c0 -150 37.5 -271.833 112.5 -365.5
s172.833 -140.5 293.5 -140.5zM542 -353.999c-111.333 0 -203.667 21.332 -277 63.999s-118 99 -134 169h53c14 -55.333 53.5 -100.333 118.5 -135s145.833 -52 242.5 -52c116.667 0 211.167 27.333 283.5 82s108.5 129.334 108.5 224.001v318h-2
c-22 -94.667 -71 -173.5 -147 -236.5s-165.667 -94.5 -269 -94.5c-134.667 0 -244 51.167 -328 153.5s-126 235.5 -126 399.5s42.167 297.333 126.5 400s193.5 154 327.5 154c104 0 194 -31.833 270 -95.5s125.667 -144.167 149 -241.5h2v321h46v-1076
c0 -110 -41 -196.5 -123 -259.5s-189 -94.5 -321 -94.5z" />
    <glyph glyph-name="Hcircumflex" unicode="&#x124;" horiz-adv-x="1296" 
d="M1172 0h-50v718h-948v-718h-50v1443h50v-678h948v678h50v-1443zM625 1841h46l266 -287h-59l-229 249h-2l-229 -249h-59z" />
    <glyph glyph-name="hcircumflex" unicode="&#x125;" horiz-adv-x="1075" 
d="M130 0l-0.000976562 1506h49v-684h2c23.333 80 69.833 145 139.5 195s150.834 75 243.501 75c118.667 0 214.667 -36.167 288 -108.5s110 -168.5 110 -288.5v-695h-50v693c0 108.667 -32.5 194.667 -97.5 258s-150.5 95 -256.5 95c-110.667 0 -201.5 -37.333 -272.5 -112
s-106.5 -171 -106.5 -289v-645h-49zM131.999 1904h46l266 -287h-59l-229 249h-2l-229 -249h-59z" />
    <glyph glyph-name="Hbar" unicode="&#x126;" horiz-adv-x="1373" 
d="M1160 765v370h-948v-370h948zM1354 1181v-46h-144v-1135h-50v718h-948v-718h-50v1135h-143v46h143v262h50v-262h948v262h50v-262h144z" />
    <glyph glyph-name="hbar" unicode="&#x127;" horiz-adv-x="1152" 
d="M218 831h3.99902c26 80 73.167 143.5 141.5 190.5s147.5 70.5 237.5 70.5c118 0 214 -35.167 288 -105.5s111 -164.5 111 -282.5v-704h-49v694c0 105.333 -33.667 190.333 -101 255s-151.666 97 -252.999 97c-108 0 -198.167 -37.5 -270.5 -112.5
s-108.5 -172.167 -108.5 -291.5v-642h-50v1280h-148v44h148v186h50v-186h297v-44h-297v-449z" />
    <glyph glyph-name="Itilde" unicode="&#x128;" horiz-adv-x="298" 
d="M174 0h-50v1443h50v-1443zM286 1552c-24 0 -46.667 5.83301 -68 17.5s-39.833 25.667 -55.5 42l-46 49c-15 16.333 -31.333 30.333 -49 42s-36.167 17.5 -55.5 17.5c-64.667 0 -97 -52.667 -97 -158h-45c0 61.333 12 110.166 36 146.499s59.333 54.5 106 54.5
c24 0 46.667 -5.66699 68 -17s39.833 -25.166 55.5 -41.499l46 -49.5c15 -16.667 31.5 -30.667 49.5 -42s36.333 -17 55 -17c64.667 0 97 52.667 97 158h45c0 -62 -12 -111.167 -36 -147.5s-59.333 -54.5 -106 -54.5z" />
    <glyph glyph-name="itilde" unicode="&#x129;" horiz-adv-x="309" 
d="M130 0v1076h49v-1076h-49zM291 1254c-24 0 -46.667 5.83301 -68 17.5s-39.833 25.667 -55.5 42l-46 49c-15 16.333 -31.333 30.333 -49 42s-36.167 17.5 -55.5 17.5c-64.667 0 -97 -52.667 -97 -158h-45c0 61.333 12 110.166 36 146.499s59.333 54.5 106 54.5
c24 0 46.667 -5.66699 68 -17s39.833 -25.166 55.5 -41.499l46 -49.5c15 -16.667 31.5 -30.667 49.5 -42s36.333 -17 55 -17c64.667 0 97 52.667 97 158h45c0 -62 -12 -111.167 -36 -147.5s-59.333 -54.5 -106 -54.5z" />
    <glyph glyph-name="Imacron" unicode="&#x12a;" horiz-adv-x="298" 
d="M174 0h-50v1443h50v-1443zM431 1659v-43h-564v43h564z" />
    <glyph glyph-name="imacron" unicode="&#x12b;" horiz-adv-x="309" 
d="M130 0v1076h49v-1076h-49zM440 1348v-43h-584v43h584z" />
    <glyph glyph-name="Ibreve" unicode="&#x12c;" horiz-adv-x="298" 
d="M174 0h-50v1443h50v-1443zM-108 1771h45c0 -50 19.5 -91.667 58.5 -125s90.167 -50 153.5 -50s114.5 16.667 153.5 50s58.5 75 58.5 125h45c0 -66 -23.833 -118.667 -71.5 -158s-109.5 -59 -185.5 -59s-137.833 19.667 -185.5 59s-71.5 92 -71.5 158z" />
    <glyph glyph-name="ibreve" unicode="&#x12d;" horiz-adv-x="309" 
d="M130 0v1076h49v-1076h-49zM-103 1490h44.998c0 -58.667 19.333 -105.667 58 -141s90.334 -53 155.001 -53s116.334 17.667 155.001 53s58 82.333 58 141h45c0 -74.667 -24 -132.834 -72 -174.501s-110 -62.5 -186 -62.5s-138 20.833 -186 62.5s-72 99.834 -72 174.501z
" />
    <glyph glyph-name="Iogonek" unicode="&#x12e;" horiz-adv-x="298" 
d="M149 -406c-55.333 0 -100.501 16.833 -135.501 50.5s-52.5 77.167 -52.5 130.5c0 90 54.333 170 163 240v1428h50v-1447c-60 -37.333 -102.333 -72.333 -127 -105s-37 -70 -37 -112c0 -41.333 13.833 -74.833 41.5 -100.5s63.5 -38.5 107.5 -38.5h15v-45
c-1.33301 -0.666992 -9.66602 -1 -24.999 -1z" />
    <glyph glyph-name="iogonek" unicode="&#x12f;" horiz-adv-x="309" 
d="M155 1366c-13.333 0 -24.8311 4.66699 -34.498 14s-14.5 20.666 -14.5 33.999s4.83301 24.666 14.5 33.999s21.167 14 34.5 14s24.666 -4.66699 33.999 -14s14 -20.666 14 -33.999s-4.83301 -24.666 -14.5 -33.999s-20.834 -14 -33.501 -14zM154.002 -406
c-55.333 0 -100.501 16.833 -135.501 50.5s-52.5 77.167 -52.5 130.5c0 90 54.667 170 164 240v1061h49v-1079c-60 -38 -102.333 -73.333 -127 -106s-37 -70 -37 -112c0 -41.333 13.833 -74.833 41.5 -100.5s63.5 -38.5 107.5 -38.5h15v-45
c-1.33301 -0.666992 -9.66602 -1 -24.999 -1z" />
    <glyph glyph-name="Idotaccent" unicode="&#x130;" horiz-adv-x="298" 
d="M174 0h-50v1443h50v-1443zM149 1556c-17.333 0 -32.333 6.33301 -45 19s-19 27.667 -19 45c0 16.667 6.33301 31.334 19 44.001s27.667 19 45 19s32.333 -6.33301 45 -19s19 -27.334 19 -44.001c0 -17.333 -6.33301 -32.333 -19 -45s-27.667 -19 -45 -19z" />
    <glyph glyph-name="dotlessi" unicode="&#x131;" horiz-adv-x="309" 
d="M130 0v1076h49v-1076h-49z" />
    <glyph glyph-name="u0132" unicode="&#x132;" horiz-adv-x="1231" 
d="M174 0h-50v1443h50v-1443zM339 315l49.001 -0.00195312c4.66699 -85.333 37.5 -154.833 98.5 -208.5s137.5 -80.5 229.5 -80.5c106 0 189.333 31.667 250 95s91 151 91 263v1059h50v-1062c0 -123.333 -34.833 -221.166 -104.5 -293.499s-165.167 -108.5 -286.5 -108.5
c-106.667 0 -195.334 31.333 -266.001 94s-107.667 143.334 -111 242.001z" />
    <glyph glyph-name="u0133" unicode="&#x133;" horiz-adv-x="618" 
d="M130 0v1076h49v-1076h-49zM155 1366c-13.333 0 -24.8311 4.66699 -34.498 14s-14.5 20.666 -14.5 33.999s4.83301 24.666 14.5 33.999s21.167 14 34.5 14s24.666 -4.66699 33.999 -14s14 -20.666 14 -33.999s-4.83301 -24.666 -14.5 -33.999s-20.834 -14 -33.501 -14z
M488.002 1076l0.000976562 -1156c0 -92.667 -21.667 -159.5 -65 -200.5s-109.333 -61.5 -198 -61.5h-29v45h27c75.333 0 130.166 16.667 164.499 50s51.5 87.666 51.5 162.999v1160h49zM464.003 1366c-13.333 0 -24.833 4.66699 -34.5 14s-14.5 20.666 -14.5 33.999
s4.83301 24.666 14.5 33.999s21.167 14 34.5 14s24.666 -4.66699 33.999 -14s14 -20.666 14 -33.999s-4.66699 -24.666 -14 -33.999s-20.666 -14 -33.999 -14z" />
    <glyph glyph-name="Jcircumflex" unicode="&#x134;" horiz-adv-x="933" 
d="M41 315l49.001 -0.00195312c4.66699 -85.333 37.5 -154.833 98.5 -208.5s137.5 -80.5 229.5 -80.5c106 0 189.333 31.667 250 95s91 151 91 263v1059h50v-1062c0 -123.333 -34.833 -221.166 -104.5 -293.499s-165.167 -108.5 -286.5 -108.5
c-106.667 0 -195.334 31.333 -266.001 94s-107.667 143.334 -111 242.001zM761.001 1841h46l266 -287h-59l-229 249h-2l-229 -249h-59z" />
    <glyph glyph-name="jcircumflex" unicode="&#x135;" horiz-adv-x="309" 
d="M179 1076l0.000976562 -1156c0 -92.667 -21.667 -159.5 -65 -200.5s-109.333 -61.5 -198 -61.5h-29v45h27c75.333 0 130.166 16.667 164.499 50s51.5 87.666 51.5 162.999v1160h49zM176.001 1557l265 -303h-56l-230 264h-2l-230 -264h-56l265 303h44z" />
    <glyph glyph-name="Kcommaaccent" unicode="&#x136;" horiz-adv-x="1107" 
d="M174 0h-50v1443h50v-836h4l784 836h64l-594 -635l664 -808h-64l-636 773l-222 -237v-536zM456 -480h-46l102 338h57z" />
    <glyph glyph-name="kcommaaccent" unicode="&#x137;" horiz-adv-x="913" 
d="M181 503l645 573h70l-517 -463l519 -613h-65l-493 583l-161 -142v-441h-49v1506h49v-1003h2zM398 -480h-46l102 338h57z" />
    <glyph glyph-name="Lacute" unicode="&#x139;" horiz-adv-x="1009" 
d="M167 1554h-56l293 287h66zM949 47v-47h-825v1443h50v-1396h775z" />
    <glyph glyph-name="lacute" unicode="&#x13a;" horiz-adv-x="309" 
d="M173 1617h-56l293 287h66zM130 0v1506h49v-1506h-49z" />
    <glyph glyph-name="Lcommaaccent" unicode="&#x13b;" horiz-adv-x="1009" 
d="M468 -480h-46l102 338h57zM949 47v-47h-825v1443h50v-1396h775z" />
    <glyph glyph-name="lcommaaccent" unicode="&#x13c;" horiz-adv-x="309" 
d="M86 -480h-46l102 338h57zM130 0v1506h49v-1506h-49z" />
    <glyph glyph-name="Lcaron" unicode="&#x13d;" horiz-adv-x="1009" 
d="M408 1443h49l-12 -355h-37v355zM949 47v-47h-825v1443h50v-1396h775z" />
    <glyph glyph-name="lcaron" unicode="&#x13e;" horiz-adv-x="393" 
d="M376 1476h47l-11 -355h-36v355zM130 0v1506h49v-1506h-49z" />
    <glyph glyph-name="Lslash" unicode="&#x141;" horiz-adv-x="1046" 
d="M211 47h775v-47h-825v721l-128 -71v47l128 71v675h50v-648l406 224v-47l-406 -224v-701z" />
    <glyph glyph-name="lslash" unicode="&#x142;" horiz-adv-x="312" 
d="M297 899v-51l-118 -73v-775h-49v745l-116 -71v51l116 71v710h49v-680z" />
    <glyph glyph-name="Nacute" unicode="&#x143;" horiz-adv-x="1315" 
d="M675 1554h-56l293 287h66zM174 0h-50v1443h55l958 -1348h4v1348h50v-1443h-46l-967 1359h-4v-1359z" />
    <glyph glyph-name="nacute" unicode="&#x144;" horiz-adv-x="1063" 
d="M543 1254h-53l236 303h63zM120 0l0.000976562 1076h46v-254h2c23.333 80.667 69.666 145.834 138.999 195.501s150.333 74.5 243 74.5c119.333 0 215.833 -36 289.5 -108s110.5 -168 110.5 -288v-696h-49v694c0 107.333 -33 192.833 -99 256.5s-152.333 95.5 -259 95.5
c-110 0 -199.833 -37.333 -269.5 -112s-104.5 -170.667 -104.5 -288v-646h-49z" />
    <glyph glyph-name="Ncommaaccent" unicode="&#x145;" horiz-adv-x="1315" 
d="M588 -480h-46l102 338h57zM174 0h-50v1443h55l958 -1348h4v1348h50v-1443h-46l-967 1359h-4v-1359z" />
    <glyph glyph-name="ncommaaccent" unicode="&#x146;" horiz-adv-x="1063" 
d="M451 -480h-46l102 338h57zM120 0l0.000976562 1076h46v-254h2c23.333 80.667 69.666 145.834 138.999 195.501s150.333 74.5 243 74.5c119.333 0 215.833 -36 289.5 -108s110.5 -168 110.5 -288v-696h-49v694c0 107.333 -33 192.833 -99 256.5s-152.333 95.5 -259 95.5
c-110 0 -199.833 -37.333 -269.5 -112s-104.5 -170.667 -104.5 -288v-646h-49z" />
    <glyph glyph-name="Ncaron" unicode="&#x147;" horiz-adv-x="1315" 
d="M634 1554l-266 287h59l229 -250h2l229 250h59l-266 -287h-46zM174 0h-50v1443h55l958 -1348h4v1348h50v-1443h-46l-967 1359h-4v-1359z" />
    <glyph glyph-name="ncaron" unicode="&#x148;" horiz-adv-x="1063" 
d="M560 1254h-44l-265 303h56l230 -264h2l230 264h56zM120 0l0.000976562 1076h46v-254h2c23.333 80.667 69.666 145.834 138.999 195.501s150.333 74.5 243 74.5c119.333 0 215.833 -36 289.5 -108s110.5 -168 110.5 -288v-696h-49v694c0 107.333 -33 192.833 -99 256.5
s-152.333 95.5 -259 95.5c-110 0 -199.833 -37.333 -269.5 -112s-104.5 -170.667 -104.5 -288v-646h-49z" />
    <glyph glyph-name="Omacron" unicode="&#x14c;" horiz-adv-x="1398" 
d="M699 1463c194 0 348.499 -66.833 463.499 -200.5s172.5 -313.834 172.5 -540.501c0 -227.333 -57.333 -407.833 -172 -541.5s-269.334 -200.5 -464.001 -200.5c-195.333 0 -350.166 66.833 -464.499 200.5s-171.5 314.167 -171.5 541.5
c0 226.667 57.333 406.834 172 540.501s269.334 200.5 464.001 200.5zM698.999 1416c-179.333 0 -321.833 -62.5 -427.5 -187.5s-158.5 -293.833 -158.5 -506.5c0 -212 53 -380.833 159 -506.5s248.333 -188.5 427 -188.5c178 0 320.167 62.833 426.5 188.5
s159.5 294.5 159.5 506.5s-53 380.667 -159 506s-248.333 188 -427 188zM980.999 1659v-43h-564v43h564z" />
    <glyph glyph-name="omacron" unicode="&#x14d;" horiz-adv-x="1078" 
d="M824 1347v-43h-584v43h584zM539 -16c-142.667 0 -257.333 50.167 -344 150.5s-130 234.833 -130 403.5s43.5 303.167 130.5 403.5s201.5 150.5 343.5 150.5s256.5 -50.167 343.5 -150.5s130.5 -234.833 130.5 -403.5s-43.5 -303.167 -130.5 -403.5
s-201.5 -150.5 -343.5 -150.5zM539.001 31c128 0 230.833 45.8311 308.5 137.498s116.5 214.834 116.5 369.501c0 155.333 -38.833 278.833 -116.5 370.5s-180.5 137.5 -308.5 137.5s-230.667 -45.833 -308 -137.5s-116 -215.167 -116 -370.5s38.667 -278.666 116 -369.999
s180 -137 308 -137z" />
    <glyph glyph-name="Obreve" unicode="&#x14e;" horiz-adv-x="1398" 
d="M699 1463c194 0 348.499 -66.833 463.499 -200.5s172.5 -313.834 172.5 -540.501c0 -227.333 -57.333 -407.833 -172 -541.5s-269.334 -200.5 -464.001 -200.5c-195.333 0 -350.166 66.833 -464.499 200.5s-171.5 314.167 -171.5 541.5
c0 226.667 57.333 406.834 172 540.501s269.334 200.5 464.001 200.5zM698.999 1416c-179.333 0 -321.833 -62.5 -427.5 -187.5s-158.5 -293.833 -158.5 -506.5c0 -212 53 -380.833 159 -506.5s248.333 -188.5 427 -188.5c178 0 320.167 62.833 426.5 188.5
s159.5 294.5 159.5 506.5s-53 380.667 -159 506s-248.333 188 -427 188zM441.999 1771h45c0 -50 19.5 -91.667 58.5 -125s90.167 -50 153.5 -50s114.5 16.667 153.5 50s58.5 75 58.5 125h45c0 -66 -23.833 -118.667 -71.5 -158s-109.5 -59 -185.5 -59
s-137.833 19.667 -185.5 59s-71.5 92 -71.5 158z" />
    <glyph glyph-name="obreve" unicode="&#x14f;" horiz-adv-x="1078" 
d="M281 1489h44.998c0 -58.667 19.333 -105.667 58 -141s90.334 -53 155.001 -53s116.334 17.667 155.001 53s58 82.333 58 141h45c0 -74.667 -24 -132.834 -72 -174.501s-110 -62.5 -186 -62.5s-138 20.833 -186 62.5s-72 99.834 -72 174.501zM538.998 -16
c-142.667 0 -257.333 50.167 -344 150.5s-130 234.833 -130 403.5s43.5 303.167 130.5 403.5s201.5 150.5 343.5 150.5s256.5 -50.167 343.5 -150.5s130.5 -234.833 130.5 -403.5s-43.5 -303.167 -130.5 -403.5s-201.5 -150.5 -343.5 -150.5zM538.999 31
c128 0 230.833 45.8311 308.5 137.498s116.5 214.834 116.5 369.501c0 155.333 -38.833 278.833 -116.5 370.5s-180.5 137.5 -308.5 137.5s-230.667 -45.833 -308 -137.5s-116 -215.167 -116 -370.5s38.667 -278.666 116 -369.999s180 -137 308 -137z" />
    <glyph glyph-name="Ohungarumlaut" unicode="&#x150;" horiz-adv-x="1398" 
d="M863 1554h-56l294 287h65zM609 1554h-56l293 287h66zM699 1463c194 0 348.499 -66.833 463.499 -200.5s172.5 -313.834 172.5 -540.501c0 -227.333 -57.333 -407.833 -172 -541.5s-269.334 -200.5 -464.001 -200.5c-195.333 0 -350.166 66.833 -464.499 200.5
s-171.5 314.167 -171.5 541.5c0 226.667 57.333 406.834 172 540.501s269.334 200.5 464.001 200.5zM698.999 1416c-179.333 0 -321.833 -62.5 -427.5 -187.5s-158.5 -293.833 -158.5 -506.5c0 -212 53 -380.833 159 -506.5s248.333 -188.5 427 -188.5
c178 0 320.167 62.833 426.5 188.5s159.5 294.5 159.5 506.5s-53 380.667 -159 506s-248.333 188 -427 188z" />
    <glyph glyph-name="ohungarumlaut" unicode="&#x151;" horiz-adv-x="1078" 
d="M623 1253l235 303h62l-245 -303h-52zM400 1253l235 303h62l-245 -303h-52zM539 -16c-142.667 0 -257.333 50.167 -344 150.5s-130 234.833 -130 403.5s43.5 303.167 130.5 403.5s201.5 150.5 343.5 150.5s256.5 -50.167 343.5 -150.5s130.5 -234.833 130.5 -403.5
s-43.5 -303.167 -130.5 -403.5s-201.5 -150.5 -343.5 -150.5zM539.001 31c128 0 230.833 45.8311 308.5 137.498s116.5 214.834 116.5 369.501c0 155.333 -38.833 278.833 -116.5 370.5s-180.5 137.5 -308.5 137.5s-230.667 -45.833 -308 -137.5s-116 -215.167 -116 -370.5
s38.667 -278.666 116 -369.999s180 -137 308 -137z" />
    <glyph glyph-name="OE" unicode="&#x152;" horiz-adv-x="2167" 
d="M705 1416c-180.667 0 -324.5 -62.833 -431.5 -188.5s-160.5 -294.167 -160.5 -505.5s53.5 -380 160.5 -506s250.833 -189 431.5 -189s324.5 62.833 431.5 188.5s160.5 294.5 160.5 506.5c0 211.333 -53.667 379.833 -161 505.5s-251 188.5 -431 188.5zM1297 0v413.999
c-43.333 -138.667 -116.5 -245.667 -219.5 -321s-227.167 -113 -372.5 -113c-198 0 -354.5 66.5 -469.5 199.5s-172.5 313.833 -172.5 542.5s57.5 409.334 172.5 542.001s271.5 199 469.5 199c145.333 0 269.5 -37.667 372.5 -113s176.167 -182 219.5 -320v413h797v-47h-747
v-632h711v-46h-711v-671h747v-47h-797z" />
    <glyph glyph-name="oe" unicode="&#x153;" horiz-adv-x="1955" 
d="M1441 -16c-118.667 0 -219.499 36.333 -302.499 109s-132.167 164.667 -147.5 276h-5c-15.333 -114.667 -64 -208 -146 -280s-182.333 -108 -301 -108c-144 0 -259 49.833 -345 149.5s-129 234.167 -129 403.5c0 170 43.167 305 129.5 405s201.166 150 344.499 150
c118 0 218 -35.833 300 -107.5s131 -163.834 147 -276.501h5c15.333 112 63.833 204.5 145.5 277.5s180.167 109.5 295.5 109.5c136.667 0 247.167 -47.5 331.5 -142.5s126.5 -219.833 126.5 -374.5v-40h-876v-2c0 -150.667 38.833 -272.167 116.5 -364.5
s181.167 -138.5 310.5 -138.5c103.333 0 188.833 25 256.5 75s110.167 114.667 127.5 194h51c-18.667 -93.333 -66.667 -169.166 -144 -227.499s-174.333 -87.5 -291 -87.5zM1840 580c0 137.333 -37.8311 249.333 -113.498 336s-173.834 130 -294.501 130
c-118.667 0 -216.334 -42.833 -293.001 -128.5s-118 -198.167 -124 -337.5h825zM115.003 534c0 -154.667 38.667 -277.833 116 -369.5s180 -137.5 308 -137.5s230.833 46 308.5 138s116.5 215 116.5 369c0 155.333 -38.833 279 -116.5 371s-180.5 138 -308.5 138
s-230.667 -46 -308 -138s-116 -215.667 -116 -371z" />
    <glyph glyph-name="Racute" unicode="&#x154;" horiz-adv-x="1124" 
d="M501 1554h-56l293 287h66zM174 1396l-0.000976562 -719.998h397c128.667 0 229.834 32.167 303.501 96.5s110.5 152.166 110.5 263.499c0 113.333 -36.667 201.666 -110 264.999s-175 95 -305 95h-396zM173.999 630.002v-630h-50v1443h448
c144 0 257.333 -36.167 340 -108.5s124 -171.833 124 -298.5c0 -105.333 -30.667 -193 -92 -263s-146.333 -114.333 -255 -133l381 -640h-57l-376 632c-24 -1.33301 -46 -2 -66 -2h-397z" />
    <glyph glyph-name="racute" unicode="&#x155;" horiz-adv-x="603" 
d="M339 1254h-53l236 303h63zM120 0l0.000976562 1076h46v-223h2c23.333 78 60.166 137.333 110.499 178s112.5 61 186.5 61c39.333 0 75.333 -7 108 -21v-51c-33.333 16.667 -72 25 -116 25c-88 0 -158 -34.833 -210 -104.5s-78 -159.834 -78 -270.501v-670h-49z" />
    <glyph glyph-name="Rcommaaccent" unicode="&#x156;" horiz-adv-x="1124" 
d="M174 1396l-0.000976562 -719.998h397c128.667 0 229.834 32.167 303.501 96.5s110.5 152.166 110.5 263.499c0 113.333 -36.667 201.666 -110 264.999s-175 95 -305 95h-396zM173.999 630.002v-630h-50v1443h448c144 0 257.333 -36.167 340 -108.5
s124 -171.833 124 -298.5c0 -105.333 -30.667 -193 -92 -263s-146.333 -114.333 -255 -133l381 -640h-57l-376 632c-24 -1.33301 -46 -2 -66 -2h-397zM413.999 -479.998h-46l102 338h57z" />
    <glyph glyph-name="rcommaaccent" unicode="&#x157;" horiz-adv-x="603" 
d="M120 0l0.000976562 1076h46v-223h2c23.333 78 60.166 137.333 110.499 178s112.5 61 186.5 61c39.333 0 75.333 -7 108 -21v-51c-33.333 16.667 -72 25 -116 25c-88 0 -158 -34.833 -210 -104.5s-78 -159.834 -78 -270.501v-670h-49zM76.001 -479.999h-46l102 338h57z
" />
    <glyph glyph-name="Rcaron" unicode="&#x158;" horiz-adv-x="1124" 
d="M174 1396l-0.000976562 -719.998h397c128.667 0 229.834 32.167 303.501 96.5s110.5 152.166 110.5 263.499c0 113.333 -36.667 201.666 -110 264.999s-175 95 -305 95h-396zM173.999 630.002v-630h-50v1443h448c144 0 257.333 -36.167 340 -108.5
s124 -171.833 124 -298.5c0 -105.333 -30.667 -193 -92 -263s-146.333 -114.333 -255 -133l381 -640h-57l-376 632c-24 -1.33301 -46 -2 -66 -2h-397zM459.999 1554l-266 287h59l229 -250h2l229 250h59l-266 -287h-46z" />
    <glyph glyph-name="rcaron" unicode="&#x159;" horiz-adv-x="603" 
d="M356 1254h-44l-265 303h56l230 -264h2l230 264h56zM120 0l0.000976562 1076h46v-223h2c23.333 78 60.166 137.333 110.499 178s112.5 61 186.5 61c39.333 0 75.333 -7 108 -21v-51c-33.333 16.667 -72 25 -116 25c-88 0 -158 -34.833 -210 -104.5
s-78 -159.834 -78 -270.501v-670h-49z" />
    <glyph glyph-name="Sacute" unicode="&#x15a;" horiz-adv-x="1114" 
d="M571 1554h-56l293 287h66zM52 382l50 0.00195312c5.33301 -104 51.833 -189.333 139.5 -256s197.5 -100 329.5 -100c128.667 0 234 33.167 316 99.5s123 150.166 123 251.499c0 80 -28.333 144.333 -85 193s-149 89 -277 121l-167 42
c-134.667 33.333 -233.167 77.833 -295.5 133.5s-93.5 127.5 -93.5 215.5c0 108.667 45 199.334 135 272.001s198.667 109 326 109c133.333 0 245.333 -34.5 336 -103.5s138.334 -154.833 143.001 -257.5h-50c-4.66699 90 -47.667 165 -129 225s-181.333 90 -300 90
c-114.667 0 -211.834 -31.833 -291.501 -95.5s-119.5 -143.5 -119.5 -239.5c0 -76 28.333 -137.667 85 -185s146.667 -86.333 270 -117l165 -41c138 -34.667 238.833 -80.167 302.5 -136.5s95.5 -130.833 95.5 -223.5c0 -116.667 -45.5 -212.334 -136.5 -287.001
s-209.167 -112 -354.5 -112c-146 0 -267.333 37.667 -364 113s-147.667 171.666 -153 288.999z" />
    <glyph glyph-name="sacute" unicode="&#x15b;" horiz-adv-x="905" 
d="M92 808c0 82.667 34.9971 150.666 104.997 203.999s155.667 80 257 80c107.333 0 194.833 -29.5 262.5 -88.5s106.167 -138.833 115.5 -239.5h-48c-9.33301 84 -43.166 152 -101.499 204s-134.5 78 -228.5 78c-86 0 -159.667 -22.333 -221 -67s-92 -101.334 -92 -170.001
c0 -56.667 19 -101.167 57 -133.5s98.667 -58.166 182 -77.499l167 -40c106.667 -26 183.667 -60.833 231 -104.5s71 -101.834 71 -174.501c0 -87.333 -36.667 -158.333 -110 -213s-167 -82 -281 -82c-112.667 0 -206.5 30.833 -281.5 92.5s-115.167 137.5 -120.5 227.5h50
c6.66699 -76.667 43 -141.5 109 -194.5s146.667 -79.5 242 -79.5c96.667 0 177.834 22.833 243.501 68.5s98.5 104.834 98.5 177.501c0 62 -20.667 111.333 -62 148s-109.666 66.334 -204.999 89.001l-169 39c-92 22 -160.167 53.333 -204.5 94s-66.5 94.667 -66.5 162z
M458.997 1254h-53l236 303h63z" />
    <glyph glyph-name="Scircumflex" unicode="&#x15c;" horiz-adv-x="1114" 
d="M52 382l50 0.00195312c5.33301 -104 51.833 -189.333 139.5 -256s197.5 -100 329.5 -100c128.667 0 234 33.167 316 99.5s123 150.166 123 251.499c0 80 -28.333 144.333 -85 193s-149 89 -277 121l-167 42c-134.667 33.333 -233.167 77.833 -295.5 133.5
s-93.5 127.5 -93.5 215.5c0 108.667 45 199.334 135 272.001s198.667 109 326 109c133.333 0 245.333 -34.5 336 -103.5s138.334 -154.833 143.001 -257.5h-50c-4.66699 90 -47.667 165 -129 225s-181.333 90 -300 90c-114.667 0 -211.834 -31.833 -291.501 -95.5
s-119.5 -143.5 -119.5 -239.5c0 -76 28.333 -137.667 85 -185s146.667 -86.333 270 -117l165 -41c138 -34.667 238.833 -80.167 302.5 -136.5s95.5 -130.833 95.5 -223.5c0 -116.667 -45.5 -212.334 -136.5 -287.001s-209.167 -112 -354.5 -112
c-146 0 -267.333 37.667 -364 113s-147.667 171.666 -153 288.999zM530 1841h46l266 -287h-59l-229 249h-2l-229 -249h-59z" />
    <glyph glyph-name="scircumflex" unicode="&#x15d;" horiz-adv-x="905" 
d="M476 1557l265 -303h-56l-230 264h-2l-230 -264h-56l265 303h44zM92 808c0 82.667 34.9971 150.666 104.997 203.999s155.667 80 257 80c107.333 0 194.833 -29.5 262.5 -88.5s106.167 -138.833 115.5 -239.5h-48c-9.33301 84 -43.166 152 -101.499 204
s-134.5 78 -228.5 78c-86 0 -159.667 -22.333 -221 -67s-92 -101.334 -92 -170.001c0 -56.667 19 -101.167 57 -133.5s98.667 -58.166 182 -77.499l167 -40c106.667 -26 183.667 -60.833 231 -104.5s71 -101.834 71 -174.501c0 -87.333 -36.667 -158.333 -110 -213
s-167 -82 -281 -82c-112.667 0 -206.5 30.833 -281.5 92.5s-115.167 137.5 -120.5 227.5h50c6.66699 -76.667 43 -141.5 109 -194.5s146.667 -79.5 242 -79.5c96.667 0 177.834 22.833 243.501 68.5s98.5 104.834 98.5 177.501c0 62 -20.667 111.333 -62 148
s-109.666 66.334 -204.999 89.001l-169 39c-92 22 -160.167 53.333 -204.5 94s-66.5 94.667 -66.5 162z" />
    <glyph glyph-name="Scedilla" unicode="&#x15e;" horiz-adv-x="1114" 
d="M497 780l165.001 -40.9971c138 -34.667 238.833 -80.167 302.5 -136.5s95.5 -130.833 95.5 -223.5c0 -114 -43.833 -208.333 -131.5 -283s-202.167 -113.334 -343.5 -116.001l-51 -120c62.667 0 112.667 -14 150 -42s56 -65.333 56 -112c0 -49.333 -20 -89.5 -60 -120.5
s-92 -46.833 -156 -47.5c-50.667 0 -91.334 5.66699 -122.001 17v43c30 -11.333 70.333 -17 121 -17c48 0 88.5 12 121.5 36s49.5 53.333 49.5 88c0 36 -14.167 63.833 -42.5 83.5s-68.833 29.5 -121.5 29.5h-50v33l58 130c-138.667 5.33301 -253 45.166 -343 119.499
s-137.667 168.166 -143 281.499h50c5.33301 -104 51.833 -189.333 139.5 -256s197.5 -100 329.5 -100c128.667 0 234 33.167 316 99.5s123 150.166 123 251.499c0 80 -28.333 144.333 -85 193s-149 89 -277 121l-167 42c-134.667 33.333 -233.167 77.833 -295.5 133.5
s-93.5 127.5 -93.5 215.5c0 108.667 45 199.334 135 272.001s198.667 109 326 109c133.333 0 245.333 -34.5 336 -103.5s138.334 -154.833 143.001 -257.5h-50c-4.66699 90 -47.667 165 -129 225s-181.333 90 -300 90c-114.667 0 -211.834 -31.833 -291.501 -95.5
s-119.5 -143.5 -119.5 -239.5c0 -76 28.333 -137.667 85 -185s146.667 -86.333 270 -117z" />
    <glyph glyph-name="scedilla" unicode="&#x15f;" horiz-adv-x="905" 
d="M380 598l166.998 -40.002c106.667 -26 183.667 -60.833 231 -104.5s71 -101.834 71 -174.501c0 -84.667 -34.833 -154.167 -104.5 -208.5s-159.5 -83.166 -269.5 -86.499l-52 -124c62.667 0 112.667 -14 150 -42s56 -65.333 56 -112c0 -49.333 -20 -89.5 -60 -120.5
s-92 -46.833 -156 -47.5c-50.667 0 -91.334 5.66699 -122.001 17v43c30 -11.333 70.333 -17 121 -17c48 0 88.5 12 121.5 36s49.5 53.333 49.5 88c0 36 -14.167 63.833 -42.5 83.5s-68.833 29.5 -121.5 29.5h-50v33l60 134c-106 6 -193.333 39.333 -262 100
s-105.667 133.667 -111 219h50c6.66699 -76.667 43 -141.5 109 -194.5s146.667 -79.5 242 -79.5c96.667 0 177.834 22.833 243.501 68.5s98.5 104.834 98.5 177.501c0 62 -20.667 111.333 -62 148s-109.666 66.334 -204.999 89.001l-169 39
c-92 22 -160.167 53.333 -204.5 94s-66.5 94.667 -66.5 162c0 82.667 35 150.667 105 204s155.667 80 257 80c107.333 0 194.833 -29.5 262.5 -88.5s106.167 -138.833 115.5 -239.5h-48c-9.33301 84 -43.166 152 -101.499 204s-134.5 78 -228.5 78
c-86 0 -159.667 -22.333 -221 -67s-92 -101.334 -92 -170.001c0 -56.667 19 -101.167 57 -133.5s98.667 -58.166 182 -77.499z" />
    <glyph glyph-name="Scaron" unicode="&#x160;" horiz-adv-x="1114" 
d="M52 382l50 0.00195312c5.33301 -104 51.833 -189.333 139.5 -256s197.5 -100 329.5 -100c128.667 0 234 33.167 316 99.5s123 150.166 123 251.499c0 80 -28.333 144.333 -85 193s-149 89 -277 121l-167 42c-134.667 33.333 -233.167 77.833 -295.5 133.5
s-93.5 127.5 -93.5 215.5c0 108.667 45 199.334 135 272.001s198.667 109 326 109c133.333 0 245.333 -34.5 336 -103.5s138.334 -154.833 143.001 -257.5h-50c-4.66699 90 -47.667 165 -129 225s-181.333 90 -300 90c-114.667 0 -211.834 -31.833 -291.501 -95.5
s-119.5 -143.5 -119.5 -239.5c0 -76 28.333 -137.667 85 -185s146.667 -86.333 270 -117l165 -41c138 -34.667 238.833 -80.167 302.5 -136.5s95.5 -130.833 95.5 -223.5c0 -116.667 -45.5 -212.334 -136.5 -287.001s-209.167 -112 -354.5 -112
c-146 0 -267.333 37.667 -364 113s-147.667 171.666 -153 288.999zM530 1554l-266 287h59l229 -250h2l229 250h59l-266 -287h-46z" />
    <glyph glyph-name="scaron" unicode="&#x161;" horiz-adv-x="905" 
d="M476 1254h-44l-265 303h56l230 -264h2l230 264h56zM92 808c0 82.667 34.9971 150.666 104.997 203.999s155.667 80 257 80c107.333 0 194.833 -29.5 262.5 -88.5s106.167 -138.833 115.5 -239.5h-48c-9.33301 84 -43.166 152 -101.499 204s-134.5 78 -228.5 78
c-86 0 -159.667 -22.333 -221 -67s-92 -101.334 -92 -170.001c0 -56.667 19 -101.167 57 -133.5s98.667 -58.166 182 -77.499l167 -40c106.667 -26 183.667 -60.833 231 -104.5s71 -101.834 71 -174.501c0 -87.333 -36.667 -158.333 -110 -213s-167 -82 -281 -82
c-112.667 0 -206.5 30.833 -281.5 92.5s-115.167 137.5 -120.5 227.5h50c6.66699 -76.667 43 -141.5 109 -194.5s146.667 -79.5 242 -79.5c96.667 0 177.834 22.833 243.501 68.5s98.5 104.834 98.5 177.501c0 62 -20.667 111.333 -62 148s-109.666 66.334 -204.999 89.001
l-169 39c-92 22 -160.167 53.333 -204.5 94s-66.5 94.667 -66.5 162z" />
    <glyph glyph-name="Tcedilla" unicode="&#x162;" horiz-adv-x="1117" 
d="M583 0h-0.999023l-59 -140c62.667 0 112.667 -14 150 -42s56 -65.333 56 -112c0 -49.333 -20 -89.5 -60 -120.5s-92 -46.833 -156 -47.5c-50.667 0 -91.334 5.66699 -122.001 17v43c30 -11.333 70.333 -17 121 -17c48 0 88.5 12 121.5 36s49.5 53.333 49.5 88
c0 36 -14.167 63.833 -42.5 83.5s-68.833 29.5 -121.5 29.5h-50v33l66 149h-1v1396h-521v47h1091v-47h-521v-1396z" />
    <glyph glyph-name="tcedilla" unicode="&#x163;" horiz-adv-x="527" 
d="M375 -1l-58.999 -139.001c62.667 0 112.667 -14 150 -42s56 -65.333 56 -112c0 -49.333 -20 -89.5 -60 -120.5s-92 -46.833 -156 -47.5c-50.667 0 -91.334 5.66699 -122.001 17v43c30 -11.333 70.333 -17 121 -17c48 0 88.5 12 121.5 36s49.5 53.333 49.5 88
c0 36 -14.167 63.833 -42.5 83.5s-68.833 29.5 -121.5 29.5h-50v33l68 153c-52 8.66699 -90 31.334 -114 68.001s-36 90.667 -36 162v797h-160v45h160v288h49v-288h228v-45h-228v-796c0 -68 12.833 -116.667 38.5 -146s67.167 -44 124.5 -44l41 1h42v-46h-42
c-28 -0.666992 -42.667 -1 -44 -1h-14z" />
    <glyph glyph-name="Tcaron" unicode="&#x164;" horiz-adv-x="1117" 
d="M536 1554l-266 287h59l229 -250h2l229 250h59l-266 -287h-46zM583 0h-49v1396h-521v47h1091v-47h-521v-1396z" />
    <glyph glyph-name="tcaron" unicode="&#x165;" horiz-adv-x="637" 
d="M370 1590h47l-11 -355h-36v355zM180 1364h49v-288h228v-45h-228v-796c0 -68 12.833 -116.667 38.5 -146s67.167 -44 124.5 -44l41 1h42v-46h-42c-28 -0.666992 -42.667 -1 -44 -1c-73.333 0 -126.5 18.333 -159.5 55s-49.5 96.667 -49.5 180v797h-160v45h160v288z" />
    <glyph glyph-name="Tbar" unicode="&#x166;" horiz-adv-x="1120" 
d="M1104 1396h-521v-617h302v-45h-302v-734h-49v734h-299v45h299v617h-521v47h1091v-47z" />
    <glyph glyph-name="tbar" unicode="&#x167;" horiz-adv-x="527" 
d="M229 628v-393c0 -68 12.833 -116.667 38.5 -146s67.167 -44 124.5 -44l41 1h42v-46h-42c-28 -0.666992 -42.667 -1 -44 -1c-73.333 0 -126.5 18.333 -159.5 55s-49.5 96.667 -49.5 180v394h-160v45h160v358h-160v45h160v288h49v-288h228v-45h-228v-358h228v-45h-228z" />
    <glyph glyph-name="Utilde" unicode="&#x168;" horiz-adv-x="1305" 
d="M174 1443l0.000976562 -943c0 -145.333 43.167 -260.5 129.5 -345.5s202.833 -127.5 349.5 -127.5c147.333 0 264.166 42.5 350.499 127.5s129.5 200.167 129.5 345.5v943h50v-944c0 -158 -47.833 -284 -143.5 -378s-224.5 -141 -386.5 -141s-290.667 47 -386 141
s-143 220 -143 378v944h50zM790.001 1552c-24 0 -46.667 5.83301 -68 17.5s-39.833 25.667 -55.5 42l-46 49c-15 16.333 -31.333 30.333 -49 42s-36.167 17.5 -55.5 17.5c-64.667 0 -97 -52.667 -97 -158h-45c0 61.333 12 110.166 36 146.499s59.333 54.5 106 54.5
c24 0 46.667 -5.66699 68 -17s39.833 -25.166 55.5 -41.499l46 -49.5c15 -16.667 31.5 -30.667 49.5 -42s36.333 -17 55 -17c64.667 0 97 52.667 97 158h45c0 -62 -12 -111.167 -36 -147.5s-59.333 -54.5 -106 -54.5z" />
    <glyph glyph-name="utilde" unicode="&#x169;" horiz-adv-x="1063" 
d="M944 1076l0.00195312 -1076h-46v251h-2c-22 -76 -69.833 -139.5 -143.5 -190.5s-155.834 -76.5 -246.501 -76.5c-116.667 0 -211.334 35.5 -284.001 106.5s-109 165.833 -109 284.5v701h49v-694c0 -109.333 32.167 -195.166 96.5 -257.499s148.833 -93.5 253.5 -93.5
c108.667 0 199.5 36.333 272.5 109s109.5 168.334 109.5 287.001v649h50zM664.002 1253c-24 0 -46.667 5.83301 -68 17.5s-39.833 25.667 -55.5 42l-46 49c-15 16.333 -31.333 30.333 -49 42s-36.167 17.5 -55.5 17.5c-64.667 0 -97 -52.667 -97 -158h-45
c0 61.333 12 110.166 36 146.499s59.333 54.5 106 54.5c24 0 46.667 -5.66699 68 -17s39.833 -25.333 55.5 -42l46 -49.5c15 -16.333 31.5 -30.166 49.5 -41.499s36.333 -17 55 -17c64.667 0 97 52.667 97 158h45c0 -62 -12 -111.167 -36 -147.5s-59.333 -54.5 -106 -54.5z
" />
    <glyph glyph-name="Umacron" unicode="&#x16a;" horiz-adv-x="1305" 
d="M174 1443l0.000976562 -943c0 -145.333 43.167 -260.5 129.5 -345.5s202.833 -127.5 349.5 -127.5c147.333 0 264.166 42.5 350.499 127.5s129.5 200.167 129.5 345.5v943h50v-944c0 -158 -47.833 -284 -143.5 -378s-224.5 -141 -386.5 -141s-290.667 47 -386 141
s-143 220 -143 378v944h50zM935.001 1659v-43h-564v43h564z" />
    <glyph glyph-name="umacron" unicode="&#x16b;" horiz-adv-x="1063" 
d="M944 1076l0.00195312 -1076h-46v251h-2c-22 -76 -69.833 -139.5 -143.5 -190.5s-155.834 -76.5 -246.501 -76.5c-116.667 0 -211.334 35.5 -284.001 106.5s-109 165.833 -109 284.5v701h49v-694c0 -109.333 32.167 -195.166 96.5 -257.499s148.833 -93.5 253.5 -93.5
c108.667 0 199.5 36.333 272.5 109s109.5 168.334 109.5 287.001v649h50zM813.002 1347v-43h-584v43h584z" />
    <glyph glyph-name="Ubreve" unicode="&#x16c;" horiz-adv-x="1305" 
d="M174 1443l0.000976562 -943c0 -145.333 43.167 -260.5 129.5 -345.5s202.833 -127.5 349.5 -127.5c147.333 0 264.166 42.5 350.499 127.5s129.5 200.167 129.5 345.5v943h50v-944c0 -158 -47.833 -284 -143.5 -378s-224.5 -141 -386.5 -141s-290.667 47 -386 141
s-143 220 -143 378v944h50zM396.001 1771h45c0 -50 19.5 -91.667 58.5 -125s90.167 -50 153.5 -50s114.5 16.667 153.5 50s58.5 75 58.5 125h45c0 -66 -23.833 -118.667 -71.5 -158s-109.5 -59 -185.5 -59s-137.833 19.667 -185.5 59s-71.5 92 -71.5 158z" />
    <glyph glyph-name="ubreve" unicode="&#x16d;" horiz-adv-x="1063" 
d="M944 1076l0.00195312 -1076h-46v251h-2c-22 -76 -69.833 -139.5 -143.5 -190.5s-155.834 -76.5 -246.501 -76.5c-116.667 0 -211.334 35.5 -284.001 106.5s-109 165.833 -109 284.5v701h49v-694c0 -109.333 32.167 -195.166 96.5 -257.499s148.833 -93.5 253.5 -93.5
c108.667 0 199.5 36.333 272.5 109s109.5 168.334 109.5 287.001v649h50zM270.002 1489h44.998c0 -58.667 19.333 -105.667 58 -141s90.334 -53 155.001 -53s116.334 17.667 155.001 53s58 82.333 58 141h45c0 -74.667 -24 -132.834 -72 -174.501s-110 -62.5 -186 -62.5
s-138 20.833 -186 62.5s-72 99.834 -72 174.501z" />
    <glyph glyph-name="Uring" unicode="&#x16e;" horiz-adv-x="1305" 
d="M653 1506c-45.333 0 -84.166 16.333 -116.499 49s-48.5 71.667 -48.5 117s16.167 84.166 48.5 116.499s71.166 48.5 116.499 48.5c44.667 0 83.167 -16.167 115.5 -48.5s48.5 -71.166 48.5 -116.499s-16.167 -84.333 -48.5 -117s-70.833 -49 -115.5 -49zM653 1545
c35.333 0 65.166 12.333 89.499 37s36.5 54.667 36.5 90s-12.167 65.333 -36.5 90s-54.166 37 -89.499 37c-36 0 -66.167 -12.333 -90.5 -37s-36.5 -54.667 -36.5 -90s12.167 -65.333 36.5 -90s54.5 -37 90.5 -37zM174 1443l0.000976562 -943
c0 -145.333 43.167 -260.5 129.5 -345.5s202.833 -127.5 349.5 -127.5c147.333 0 264.166 42.5 350.499 127.5s129.5 200.167 129.5 345.5v943h50v-944c0 -158 -47.833 -284 -143.5 -378s-224.5 -141 -386.5 -141s-290.667 47 -386 141s-143 220 -143 378v944h50z" />
    <glyph glyph-name="uring" unicode="&#x16f;" horiz-adv-x="1063" 
d="M944 1076l0.00195312 -1076h-46v251h-2c-22 -76 -69.833 -139.5 -143.5 -190.5s-155.834 -76.5 -246.501 -76.5c-116.667 0 -211.334 35.5 -284.001 106.5s-109 165.833 -109 284.5v701h49v-694c0 -109.333 32.167 -195.166 96.5 -257.499s148.833 -93.5 253.5 -93.5
c108.667 0 199.5 36.333 272.5 109s109.5 168.334 109.5 287.001v649h50zM528.002 1248c-45.333 0 -84.166 16.333 -116.499 49s-48.5 71.667 -48.5 117s16.167 84.166 48.5 116.499s71.166 48.5 116.499 48.5c44.667 0 83.167 -16.167 115.5 -48.5
s48.5 -71.166 48.5 -116.499s-16.167 -84.333 -48.5 -117s-70.833 -49 -115.5 -49zM528.002 1287c35.333 0 65.166 12.333 89.499 37s36.5 54.667 36.5 90s-12.167 65.333 -36.5 90s-54.166 37 -89.499 37c-36 0 -66.167 -12.333 -90.5 -37s-36.5 -54.667 -36.5 -90
s12.167 -65.333 36.5 -90s54.5 -37 90.5 -37z" />
    <glyph glyph-name="Uhungarumlaut" unicode="&#x170;" horiz-adv-x="1305" 
d="M174 1443l0.000976562 -943c0 -145.333 43.167 -260.5 129.5 -345.5s202.833 -127.5 349.5 -127.5c147.333 0 264.166 42.5 350.499 127.5s129.5 200.167 129.5 345.5v943h50v-944c0 -158 -47.833 -284 -143.5 -378s-224.5 -141 -386.5 -141s-290.667 47 -386 141
s-143 220 -143 378v944h50zM817.001 1554h-56l294 287h65zM563.001 1554h-56l293 287h66z" />
    <glyph glyph-name="uhungarumlaut" unicode="&#x171;" horiz-adv-x="1063" 
d="M612 1253l235 303h62l-245 -303h-52zM389 1253l235 303h62l-245 -303h-52zM944 1076l0.00195312 -1076h-46v251h-2c-22 -76 -69.833 -139.5 -143.5 -190.5s-155.834 -76.5 -246.501 -76.5c-116.667 0 -211.334 35.5 -284.001 106.5s-109 165.833 -109 284.5v701h49v-694
c0 -109.333 32.167 -195.166 96.5 -257.499s148.833 -93.5 253.5 -93.5c108.667 0 199.5 36.333 272.5 109s109.5 168.334 109.5 287.001v649h50z" />
    <glyph glyph-name="Uogonek" unicode="&#x172;" horiz-adv-x="1307" 
d="M839 -406c-55.333 0 -100.666 16.8301 -135.999 50.4971s-53 76.834 -53 129.501c0 42.667 10.667 81 32 115s56.333 68.667 105 104v4c-39.333 -11.333 -84 -17 -134 -17c-161.333 0 -289.833 46.833 -385.5 140.5s-143.5 219.834 -143.5 378.501v944h50v-943
c0 -142 43.833 -256.333 131.5 -343s203.5 -130 347.5 -130c143.333 0 259.166 43.5 347.499 130.5s132.5 201.167 132.5 342.5v943h50v-944c0 -114.667 -24.167 -210 -72.5 -286s-129.166 -147.333 -242.499 -214c-112 -67.333 -168 -140.666 -168 -219.999
c0 -41.333 13.833 -74.833 41.5 -100.5s63.5 -38.5 107.5 -38.5h16v-45c-0.666992 0 -4.83398 -0.166992 -12.501 -0.5s-12.167 -0.5 -13.5 -0.5z" />
    <glyph glyph-name="uogonek" unicode="&#x173;" horiz-adv-x="1063" 
d="M944 -405c-1.33301 -0.666992 -9.66602 -0.996094 -24.999 -0.996094c-55.333 0 -100.5 16.833 -135.5 50.5s-52.5 77.167 -52.5 130.5c0 88.667 55.333 168.667 166 240v230h-4c-26.667 -80.667 -74.334 -144.334 -143.001 -191.001s-149.667 -70 -243 -70
c-117.333 0 -212.333 35.667 -285 107s-109 164.666 -109 279.999v705h49v-691c0 -106.667 32 -192.334 96 -257.001s148.667 -97 254 -97c111.333 0 202.833 37.5 274.5 112.5s107.5 171.167 107.5 288.5v644h50v-1079c-60 -37.333 -102.333 -72.333 -127 -105
s-37 -70.334 -37 -113.001c0 -40.667 13.833 -74 41.5 -100s63.167 -39 106.5 -39h16v-45z" />
    <glyph glyph-name="Wcircumflex" unicode="&#x174;" horiz-adv-x="1777" 
d="M865 1841h46l266 -287h-59l-229 249h-2l-229 -249h-59zM886 1338l-398 -1338h-41l-406 1443h52l374 -1344h4l396 1344h43l395 -1344h5l374 1344h51l-406 -1443h-40l-398 1338h-5z" />
    <glyph glyph-name="wcircumflex" unicode="&#x175;" horiz-adv-x="1406" 
d="M725 1557l265 -303h-56l-230 264h-2l-230 -264h-56l265 303h44zM1404 1076l-317 -1076h-66l-317 1016h-2l-317 -1016h-66l-317 1076h55l294 -1021h2l317 1021h66l317 -1021h2l294 1021h55z" />
    <glyph glyph-name="Ycircumflex" unicode="&#x176;" horiz-adv-x="1148" 
d="M600 0h-50v631l-529 812h60l492 -758h4l491 758h59l-527 -812v-631zM551 1841h46l266 -287h-59l-229 249h-2l-229 -249h-59z" />
    <glyph glyph-name="ycircumflex" unicode="&#x177;" horiz-adv-x="888" 
d="M178 -343c-17.333 0 -33.001 3 -47.001 9v47c14.667 -6 32.334 -9 53.001 -9c46.667 0 85.167 15.333 115.5 46s60.166 83.667 89.499 159l28 72l-415 1095h54l387 -1029h2l388 1029h54l-417 -1101c-49.333 -130 -92.666 -215.5 -129.999 -256.5
s-91.333 -61.5 -162 -61.5zM465.999 1556l265 -303h-56l-230 264h-2l-230 -264h-56l265 303h44z" />
    <glyph glyph-name="Ydieresis" unicode="&#x178;" horiz-adv-x="1148" 
d="M600 0h-50v631l-529 812h60l492 -758h4l491 758h59l-527 -812v-631zM435 1556c-14.667 0 -27.5 5.33301 -38.5 16s-16.5 23.334 -16.5 38.001s5.33301 27.167 16 37.5s23.667 15.5 39 15.5c14.667 0 27.334 -5.16699 38.001 -15.5s16 -22.833 16 -37.5
s-5.33301 -27.334 -16 -38.001s-23.334 -16 -38.001 -16zM713 1556c-14.667 0 -27.334 5.33301 -38.001 16s-16 23.334 -16 38.001s5.33301 27.167 16 37.5s23.334 15.5 38.001 15.5c15.333 0 28.333 -5.16699 39 -15.5s16 -22.833 16 -37.5s-5.5 -27.334 -16.5 -38.001
s-23.833 -16 -38.5 -16z" />
    <glyph glyph-name="Zacute" unicode="&#x179;" horiz-adv-x="1147" 
d="M591 1554h-56l293 287h66zM64 0v42l954 1350v4h-925v47h989v-43l-953 -1349v-4h954v-47h-1019z" />
    <glyph glyph-name="zacute" unicode="&#x17a;" horiz-adv-x="910" 
d="M460 1253h-53l236 303h63zM58 0v47l734 982v2h-734v45h794v-47l-736 -982v-2h736v-45h-794z" />
    <glyph glyph-name="Zdotaccent" unicode="&#x17b;" horiz-adv-x="1147" 
d="M573 1556c-17.333 0 -32.333 6.33301 -45 19s-19 27.667 -19 45c0 16.667 6.33301 31.334 19 44.001s27.667 19 45 19s32.333 -6.33301 45 -19s19 -27.334 19 -44.001c0 -17.333 -6.33301 -32.333 -19 -45s-27.667 -19 -45 -19zM64 0v42l954 1350v4h-925v47h989v-43
l-953 -1349v-4h954v-47h-1019z" />
    <glyph glyph-name="zdotaccent" unicode="&#x17c;" horiz-adv-x="910" 
d="M455 1253c-16.667 0 -31.5 6.5 -44.5 19.5s-19.5 27.833 -19.5 44.5c0 17.333 6.33301 32.333 19 45s27.667 19 45 19s32.5 -6.33301 45.5 -19s19.5 -27.667 19.5 -45s-6.5 -32.333 -19.5 -45s-28.167 -19 -45.5 -19zM58 0v47l734 982v2h-734v45h794v-47l-736 -982v-2
h736v-45h-794z" />
    <glyph glyph-name="Zcaron" unicode="&#x17d;" horiz-adv-x="1147" 
d="M64 0v42l954 1350v4h-925v47h989v-43l-953 -1349v-4h954v-47h-1019zM550 1554l-266 287h59l229 -250h2l229 250h59l-266 -287h-46z" />
    <glyph glyph-name="zcaron" unicode="&#x17e;" horiz-adv-x="910" 
d="M477 1253h-44l-265 303h56l230 -264h2l230 264h56zM58 0v47l734 982v2h-734v45h794v-47l-736 -982v-2h736v-45h-794z" />
    <glyph glyph-name="florin" unicode="&#x192;" horiz-adv-x="1179" 
d="M1133 1430l-0.000976562 -49.001c-14.667 10 -37.167 18.5 -67.5 25.5s-60.5 10.5 -90.5 10.5c-82.667 0 -147.5 -24 -194.5 -72s-79.5 -124 -97.5 -228l-53 -308h431v-46h-439l-77 -441c-20.667 -117.333 -58.334 -203.5 -113.001 -258.5s-130 -82.5 -226 -82.5
c-28 0 -57.833 3.5 -89.5 10.5s-55.5 15.167 -71.5 24.5v48c18 -10 42.333 -18.667 73 -26s59.334 -11 86.001 -11c82.667 0 147.167 24.167 193.5 72.5s78.833 124.833 97.5 229.5l76 434h-415v46h423l54 313c20.667 118 58.334 204.333 113.001 259s130 82 226 82
c30 0 60.667 -3.16699 92 -9.5s54.333 -14.166 69 -23.499z" />
    <glyph glyph-name="Ohorn" unicode="&#x1a0;" horiz-adv-x="1436" 
d="M699 1416c-178.667 0 -321 -62.833 -427 -188.5s-159 -294.167 -159 -505.5s53 -380 159 -506s248.333 -189 427 -189c178 0 320.167 63 426.5 189s159.5 294.667 159.5 506s-53.167 379.833 -159.5 505.5s-248.5 188.5 -426.5 188.5zM1335 721
c0 -228.667 -56.8281 -409.332 -170.495 -541.999s-268.834 -199 -465.501 -199s-351.834 66.333 -465.501 199s-170.5 313.334 -170.5 542.001c0 229.333 57.167 410.333 171.5 543s270.166 199 467.499 199c64 0 124.833 -7.83301 182.5 -23.5
s103.667 -32.834 138 -51.501s71.166 -35.834 110.499 -51.501s74.666 -23.5 105.999 -23.5c74 0 111 46 111 138v136h48v-140c0 -56.667 -13.5 -100.5 -40.5 -131.5s-64.833 -46.5 -113.5 -46.5c-36 0 -71.333 8.66699 -106 26l-4 -4c134 -134 201 -324 201 -570z" />
    <glyph glyph-name="ohorn" unicode="&#x1a1;" horiz-adv-x="1157" 
d="M538 31c128.667 0 231.834 46.167 309.501 138.5s116.5 215.166 116.5 368.499s-38.833 276.333 -116.5 369s-180.834 139 -309.501 139s-231.5 -46.167 -308.5 -138.5s-115.5 -215.5 -115.5 -369.5c0 -153.333 38.5 -276.166 115.5 -368.499
s179.833 -138.5 308.5 -138.5zM1013 538c0 -168.667 -42.832 -303.167 -128.499 -403.5s-200.834 -150.5 -345.501 -150.5s-260 50.333 -346 151s-129 235.334 -129 404.001c0 169.333 43.167 303.833 129.5 403.5s202.833 149.5 349.5 149.5
c48.667 0 93 -5.83301 133 -17.5s73 -25.667 99 -42s50 -32.833 72 -49.5s44.5 -30.834 67.5 -42.501s46.167 -17.5 69.5 -17.5c39.333 0 68.166 11.167 86.499 33.5s27.5 57.166 27.5 104.499v135h49v-138c0 -58.667 -13.167 -103.5 -39.5 -134.5
s-64.166 -46.5 -113.499 -46.5c-22 0 -43.667 4.33301 -65 13l-4 -3c58.667 -93.333 88 -209.666 88 -348.999z" />
    <glyph glyph-name="Uhorn" unicode="&#x1af;" horiz-adv-x="1456" 
d="M1183 1315c2 -2 24.999 -2.99902 68.999 -2.99902c52 0 89.333 12.167 112 36.5s34 64.166 34 119.499v119h49v-128c0 -128 -64 -192 -192 -192c-46 0 -70 1 -72 3v-771c0 -158.667 -47.833 -284.834 -143.5 -378.501s-224.5 -140.5 -386.5 -140.5
c-161.333 0 -289.833 46.833 -385.5 140.5s-143.5 219.834 -143.5 378.501v944h50v-943c0 -142 43.833 -256.333 131.5 -343s203.5 -130 347.5 -130c144.667 0 260.834 43.333 348.501 130s131.5 201 131.5 343v943h50v-128z" />
    <glyph glyph-name="uhorn" unicode="&#x1b0;" horiz-adv-x="1198" 
d="M893 245c-26.667 -80.667 -74.333 -144.331 -143 -190.998s-149.667 -70 -243 -70c-117.333 0 -212.333 35.667 -285 107s-109 164.666 -109 279.999v705h49v-691c0 -106.667 32 -192.334 96 -257.001s148.667 -97 254 -97c111.333 0 202.833 37.5 274.5 112.5
s107.5 171.167 107.5 288.5v644h50v-152c0.666992 -1.33301 19.667 -2 57 -2c52 0 89.333 12 112 36s34 63.667 34 119v119h49v-128c0 -128 -64 -192 -192 -192c-38 0 -58 1 -60 3v-879h-47v245h-4z" />
    <glyph glyph-name="u01C4" unicode="&#x1c4;" horiz-adv-x="2459" 
d="M124 1443h436c220 0 390 -62.667 510 -188s180 -303 180 -533c0 -230.667 -60 -408.667 -180 -534s-290 -188 -510 -188h-436v1443zM175 1396v-1349h384c205.333 0 363.5 58.333 474.5 175s166.5 283.334 166.5 500.001c0 216 -55.5 382.333 -166.5 499
s-269.167 175 -474.5 175h-384zM1377 -0.000976562v42l954 1350v4h-925v47h989v-43l-953 -1349v-4h954v-47h-1019zM1863 1554l-266 287h59l229 -250h2l229 250h59l-266 -287h-46z" />
    <glyph glyph-name="u01C5" unicode="&#x1c5;" horiz-adv-x="2223" 
d="M124 1443h436c220 0 390 -62.667 510 -188s180 -303 180 -533c0 -230.667 -60 -408.667 -180 -534s-290 -188 -510 -188h-436v1443zM175 1396v-1349h384c205.333 0 363.5 58.333 474.5 175s166.5 283.334 166.5 500.001c0 216 -55.5 382.333 -166.5 499
s-269.167 175 -474.5 175h-384zM1790 1253h-44l-265 303h56l230 -264h2l230 264h56zM1371 -0.000976562v47l734 982v2h-734v45h794v-47l-736 -982v-2h736v-45h-794z" />
    <glyph glyph-name="u01C6" unicode="&#x1c6;" horiz-adv-x="2036" 
d="M524 -16c-134.667 0 -244.833 51.5 -330.5 154.5s-128.5 236.167 -128.5 399.5c0 164 42.833 297.333 128.5 400s195.834 154 330.501 154c104 0 194.667 -31.667 272 -95s126.666 -142 147.999 -236h2v745h50v-1506h-46v322h-2
c-23.333 -97.333 -73.833 -178 -151.5 -242s-168.5 -96 -272.5 -96zM526.001 1046c-120.667 0 -219.334 -46.999 -296.001 -140.999s-115 -216 -115 -366c0 -150.667 38.333 -273 115 -367s175.334 -141 296.001 -141c122.667 0 223.334 47.167 302.001 141.5
s118 216.166 118 365.499s-39.333 271.333 -118 366s-179.334 142 -302.001 142zM1603 1253h-44l-265 303h56l230 -264h2l230 264h56zM1184 0.000976562v47l734 982v2h-734v45h794v-47l-736 -982v-2h736v-45h-794z" />
    <glyph glyph-name="u01C7" unicode="&#x1c7;" horiz-adv-x="1934" 
d="M1042 315l49.001 -0.00195312c4.66699 -85.333 37.5 -154.833 98.5 -208.5s137.5 -80.5 229.5 -80.5c106 0 189.333 31.667 250 95s91 151 91 263v1059h50v-1062c0 -123.333 -34.833 -221.166 -104.5 -293.499s-165.167 -108.5 -286.5 -108.5
c-106.667 0 -195.334 31.333 -266.001 94s-107.667 143.334 -111 242.001zM949.001 46.998v-47h-825v1443h50v-1396h775z" />
    <glyph glyph-name="u01C8" unicode="&#x1c8;" horiz-adv-x="1310" 
d="M1180 1076l0.000976562 -1156c0 -92.667 -21.667 -159.5 -65 -200.5s-109.333 -61.5 -198 -61.5h-29v45h27c75.333 0 130.166 16.667 164.499 50s51.5 87.666 51.5 162.999v1160h49zM1156 1366c-13.333 0 -24.833 4.66699 -34.5 14s-14.5 20.666 -14.5 33.999
s4.83301 24.666 14.5 33.999s21.167 14 34.5 14s24.666 -4.66699 33.999 -14s14 -20.666 14 -33.999s-4.66699 -24.666 -14 -33.999s-20.666 -14 -33.999 -14zM949.001 47.001v-47h-825v1443h50v-1396h775z" />
    <glyph glyph-name="u01C9" unicode="&#x1c9;" horiz-adv-x="618" 
d="M488 1076l0.000976562 -1156c0 -92.667 -21.667 -159.5 -65 -200.5s-109.333 -61.5 -198 -61.5h-29v45h27c75.333 0 130.166 16.667 164.499 50s51.5 87.666 51.5 162.999v1160h49zM464.001 1366c-13.333 0 -24.833 4.66699 -34.5 14s-14.5 20.666 -14.5 33.999
s4.83301 24.666 14.5 33.999s21.167 14 34.5 14s24.666 -4.66699 33.999 -14s14 -20.666 14 -33.999s-4.66699 -24.666 -14 -33.999s-20.666 -14 -33.999 -14zM130.001 0.000976562v1506h49v-1506h-49z" />
    <glyph glyph-name="u01CA" unicode="&#x1ca;" horiz-adv-x="2248" 
d="M1356 315l49.001 -0.00195312c4.66699 -85.333 37.5 -154.833 98.5 -208.5s137.5 -80.5 229.5 -80.5c106 0 189.333 31.667 250 95s91 151 91 263v1059h50v-1062c0 -123.333 -34.833 -221.166 -104.5 -293.499s-165.167 -108.5 -286.5 -108.5
c-106.667 0 -195.334 31.333 -266.001 94s-107.667 143.334 -111 242.001zM174.001 -0.00195312h-50v1443h55l958 -1348h4v1348h50v-1443h-46l-967 1359h-4v-1359z" />
    <glyph glyph-name="u01CB" unicode="&#x1cb;" horiz-adv-x="1624" 
d="M1494 1076l0.000976562 -1156c0 -92.667 -21.667 -159.5 -65 -200.5s-109.333 -61.5 -198 -61.5h-29v45h27c75.333 0 130.166 16.667 164.499 50s51.5 87.666 51.5 162.999v1160h49zM1470 1366c-13.333 0 -24.833 4.66699 -34.5 14s-14.5 20.666 -14.5 33.999
s4.83301 24.666 14.5 33.999s21.167 14 34.5 14s24.666 -4.66699 33.999 -14s14 -20.666 14 -33.999s-4.66699 -24.666 -14 -33.999s-20.666 -14 -33.999 -14zM174.001 0.000976562h-50v1443h55l958 -1348h4v1348h50v-1443h-46l-967 1359h-4v-1359z" />
    <glyph glyph-name="u01CC" unicode="&#x1cc;" horiz-adv-x="1372" 
d="M1242 1076l0.000976562 -1156c0 -92.667 -21.667 -159.5 -65 -200.5s-109.333 -61.5 -198 -61.5h-29v45h27c75.333 0 130.166 16.667 164.499 50s51.5 87.666 51.5 162.999v1160h49zM1218 1366c-13.333 0 -24.833 4.66699 -34.5 14s-14.5 20.666 -14.5 33.999
s4.83301 24.666 14.5 33.999s21.167 14 34.5 14s24.666 -4.66699 33.999 -14s14 -20.666 14 -33.999s-4.66699 -24.666 -14 -33.999s-20.666 -14 -33.999 -14zM120.001 0.000976562l0.000976562 1076h46v-254h2c23.333 80.667 69.666 145.834 138.999 195.501
s150.333 74.5 243 74.5c119.333 0 215.833 -36 289.5 -108s110.5 -168 110.5 -288v-696h-49v694c0 107.333 -33 192.833 -99 256.5s-152.333 95.5 -259 95.5c-110 0 -199.833 -37.333 -269.5 -112s-104.5 -170.667 -104.5 -288v-646h-49z" />
    <glyph glyph-name="Acaron" unicode="&#x1cd;" horiz-adv-x="1201" 
d="M1125 0l-189 501h-671l-190 -501h-55l555 1443h51l555 -1443h-56zM598 1374l-315 -827h635l-315 827h-5zM577 1554l-266 287h59l229 -250h2l229 250h59l-266 -287h-46z" />
    <glyph glyph-name="acaron" unicode="&#x1ce;" horiz-adv-x="1021" 
d="M449 30c112.667 0 209.168 35.833 289.501 107.5s120.5 157.834 120.5 258.501v182l-381 -29c-110 -8.66699 -193.833 -35.334 -251.5 -80.001s-86.5 -105.667 -86.5 -183c0 -74 29.167 -135.167 87.5 -183.5s132.166 -72.5 221.499 -72.5zM446.001 -16
c-104.667 0 -190.167 28.167 -256.5 84.5s-99.5 128.833 -99.5 217.5c0 91.333 32 162.666 96 213.999s158.667 82 284 92l389 30v97c0 102 -28.833 182 -86.5 240s-137.167 87 -238.5 87c-100.667 0 -182 -24.667 -244 -74s-100 -119 -114 -209h-47
c11.333 102 53.333 182.333 126 241s165.667 88 279 88c115.333 0 206.5 -33.167 273.5 -99.5s100.5 -156.5 100.5 -270.5v-722h-49v245h-1c-26 -77.333 -77.167 -140.166 -153.5 -188.499s-162.5 -72.5 -258.5 -72.5zM555.001 1254h-44l-265 303h56l230 -264h2l230 264h56z
" />
    <glyph glyph-name="Icaron" unicode="&#x1cf;" horiz-adv-x="298" 
d="M174 0h-50v1443h50v-1443zM126 1554l-266 287h59l229 -250h2l229 250h59l-266 -287h-46z" />
    <glyph glyph-name="icaron" unicode="&#x1d0;" horiz-adv-x="309" 
d="M177 1254h-44l-265 303h56l230 -264h2l230 264h56zM130 0v1076h49v-1076h-49z" />
    <glyph glyph-name="Ocaron" unicode="&#x1d1;" horiz-adv-x="1398" 
d="M676 1554l-266 287h59l229 -250h2l229 250h59l-266 -287h-46zM699 1463c194 0 348.499 -66.833 463.499 -200.5s172.5 -313.834 172.5 -540.501c0 -227.333 -57.333 -407.833 -172 -541.5s-269.334 -200.5 -464.001 -200.5c-195.333 0 -350.166 66.833 -464.499 200.5
s-171.5 314.167 -171.5 541.5c0 226.667 57.333 406.834 172 540.501s269.334 200.5 464.001 200.5zM698.999 1416c-179.333 0 -321.833 -62.5 -427.5 -187.5s-158.5 -293.833 -158.5 -506.5c0 -212 53 -380.833 159 -506.5s248.333 -188.5 427 -188.5
c178 0 320.167 62.833 426.5 188.5s159.5 294.5 159.5 506.5s-53 380.667 -159 506s-248.333 188 -427 188z" />
    <glyph glyph-name="ocaron" unicode="&#x1d2;" horiz-adv-x="1078" 
d="M561 1253h-44l-265 303h56l230 -264h2l230 264h56zM539 -16c-142.667 0 -257.333 50.167 -344 150.5s-130 234.833 -130 403.5s43.5 303.167 130.5 403.5s201.5 150.5 343.5 150.5s256.5 -50.167 343.5 -150.5s130.5 -234.833 130.5 -403.5s-43.5 -303.167 -130.5 -403.5
s-201.5 -150.5 -343.5 -150.5zM539.001 31c128 0 230.833 45.8311 308.5 137.498s116.5 214.834 116.5 369.501c0 155.333 -38.833 278.833 -116.5 370.5s-180.5 137.5 -308.5 137.5s-230.667 -45.833 -308 -137.5s-116 -215.167 -116 -370.5s38.667 -278.666 116 -369.999
s180 -137 308 -137z" />
    <glyph glyph-name="Ucaron" unicode="&#x1d3;" horiz-adv-x="1305" 
d="M630 1554l-266 287h59l229 -250h2l229 250h59l-266 -287h-46zM174 1443l0.000976562 -943c0 -145.333 43.167 -260.5 129.5 -345.5s202.833 -127.5 349.5 -127.5c147.333 0 264.166 42.5 350.499 127.5s129.5 200.167 129.5 345.5v943h50v-944
c0 -158 -47.833 -284 -143.5 -378s-224.5 -141 -386.5 -141s-290.667 47 -386 141s-143 220 -143 378v944h50z" />
    <glyph glyph-name="ucaron" unicode="&#x1d4;" horiz-adv-x="1063" 
d="M550 1253h-44l-265 303h56l230 -264h2l230 264h56zM944 1076l0.00195312 -1076h-46v251h-2c-22 -76 -69.833 -139.5 -143.5 -190.5s-155.834 -76.5 -246.501 -76.5c-116.667 0 -211.334 35.5 -284.001 106.5s-109 165.833 -109 284.5v701h49v-694
c0 -109.333 32.167 -195.166 96.5 -257.499s148.833 -93.5 253.5 -93.5c108.667 0 199.5 36.333 272.5 109s109.5 168.334 109.5 287.001v649h50z" />
    <glyph glyph-name="Udieresismacron" unicode="&#x1d5;" horiz-adv-x="1305" 
d="M174 1443l0.000976562 -943c0 -145.333 43.167 -260.5 129.5 -345.5s202.833 -127.5 349.5 -127.5c147.333 0 264.166 42.5 350.499 127.5s129.5 200.167 129.5 345.5v943h50v-944c0 -158 -47.833 -284 -143.5 -378s-224.5 -141 -386.5 -141s-290.667 47 -386 141
s-143 220 -143 378v944h50zM514.001 1662c14.667 0 27.334 -5.16699 38.001 -15.5s16 -22.833 16 -37.5s-5.33301 -27 -16 -37s-23.334 -15 -38.001 -15s-27.167 5 -37.5 15s-15.5 22.333 -15.5 37s5.16699 27.167 15.5 37.5s22.833 15.5 37.5 15.5zM371.001 1888h564v-42
h-564v42zM792.001 1662c14.667 0 27.167 -5.16699 37.5 -15.5s15.5 -22.833 15.5 -37.5s-5.16699 -27 -15.5 -37s-22.833 -15 -37.5 -15s-27.334 5 -38.001 15s-16 22.333 -16 37s5.33301 27.167 16 37.5s23.334 15.5 38.001 15.5z" />
    <glyph glyph-name="udieresismacron" unicode="&#x1d6;" horiz-adv-x="1063" 
d="M944 1076l0.00195312 -1076h-46v251h-2c-22 -76 -69.833 -139.5 -143.5 -190.5s-155.834 -76.5 -246.501 -76.5c-116.667 0 -211.334 35.5 -284.001 106.5s-109 165.833 -109 284.5v701h49v-694c0 -109.333 32.167 -195.166 96.5 -257.499s148.833 -93.5 253.5 -93.5
c108.667 0 199.5 36.333 272.5 109s109.5 168.334 109.5 287.001v649h50zM389.002 1253c-15.333 0 -28.168 5.16895 -38.501 15.502s-15.5 23.166 -15.5 38.499c0 14.667 5.33301 27.167 16 37.5s23.334 15.5 38.001 15.5s27.334 -5.16699 38.001 -15.5s16 -22.833 16 -37.5
s-5.33301 -27.334 -16 -38.001s-23.334 -16 -38.001 -16zM667 1253c-14.667 0 -27.3359 5.33105 -38.0029 15.998s-16 23.334 -16 38.001s5.33301 27.167 16 37.5s23.334 15.5 38.001 15.5s27.334 -5.16699 38.001 -15.5s16 -22.833 16 -37.5
c0 -15.333 -5.16699 -28.166 -15.5 -38.499s-23.166 -15.5 -38.499 -15.5zM812.998 1627v-43h-584v43h584z" />
    <glyph glyph-name="Udieresisacute" unicode="&#x1d7;" horiz-adv-x="1305" 
d="M609 1755l214 202h63l-221 -202h-56zM514 1557c-14.667 0 -27.167 5 -37.5 15s-15.5 22.333 -15.5 37s5.16699 27.167 15.5 37.5s22.833 15.5 37.5 15.5s27.334 -5.16699 38.001 -15.5s16 -22.833 16 -37.5s-5.33301 -27 -16 -37s-23.334 -15 -38.001 -15zM792 1557
c-14.667 0 -27.334 5 -38.001 15s-16 22.333 -16 37s5.33301 27.167 16 37.5s23.334 15.5 38.001 15.5s27.167 -5.16699 37.5 -15.5s15.5 -22.833 15.5 -37.5s-5.16699 -27 -15.5 -37s-22.833 -15 -37.5 -15zM174 1443l0.000976562 -943
c0 -145.333 43.167 -260.5 129.5 -345.5s202.833 -127.5 349.5 -127.5c147.333 0 264.166 42.5 350.499 127.5s129.5 200.167 129.5 345.5v943h50v-944c0 -158 -47.833 -284 -143.5 -378s-224.5 -141 -386.5 -141s-290.667 47 -386 141s-143 220 -143 378v944h50z" />
    <glyph glyph-name="udieresisacute" unicode="&#x1d8;" horiz-adv-x="1063" 
d="M489 1511l240 291h66l-252 -291h-54zM389 1253c-14.667 0 -27.5 5.33301 -38.5 16s-16.5 23.334 -16.5 38.001s5.33301 27.167 16 37.5s23.667 15.5 39 15.5c14.667 0 27.334 -5.16699 38.001 -15.5s16 -22.833 16 -37.5s-5.33301 -27.334 -16 -38.001
s-23.334 -16 -38.001 -16zM667 1253c-14.667 0 -27.334 5.33301 -38.001 16s-16 23.334 -16 38.001s5.33301 27.167 16 37.5s23.334 15.5 38.001 15.5c15.333 0 28.333 -5.16699 39 -15.5s16 -22.833 16 -37.5s-5.5 -27.334 -16.5 -38.001s-23.833 -16 -38.5 -16zM944 1076
l0.00195312 -1076h-46v251h-2c-22 -76 -69.833 -139.5 -143.5 -190.5s-155.834 -76.5 -246.501 -76.5c-116.667 0 -211.334 35.5 -284.001 106.5s-109 165.833 -109 284.5v701h49v-694c0 -109.333 32.167 -195.166 96.5 -257.499s148.833 -93.5 253.5 -93.5
c108.667 0 199.5 36.333 272.5 109s109.5 168.334 109.5 287.001v649h50z" />
    <glyph glyph-name="Udieresiscaron" unicode="&#x1d9;" horiz-adv-x="1305" 
d="M630 1755l-265 202h67l220 -167h2l220 167h67l-265 -202h-46zM514 1662c14.667 0 27.334 -5.16699 38.001 -15.5s16 -22.833 16 -37.5s-5.33301 -27 -16 -37s-23.334 -15 -38.001 -15s-27.167 5 -37.5 15s-15.5 22.333 -15.5 37s5.16699 27.167 15.5 37.5
s22.833 15.5 37.5 15.5zM792 1662c14.667 0 27.167 -5.16699 37.5 -15.5s15.5 -22.833 15.5 -37.5s-5.16699 -27 -15.5 -37s-22.833 -15 -37.5 -15s-27.334 5 -38.001 15s-16 22.333 -16 37s5.33301 27.167 16 37.5s23.334 15.5 38.001 15.5zM174 1443l0.000976562 -943
c0 -145.333 43.167 -260.5 129.5 -345.5s202.833 -127.5 349.5 -127.5c147.333 0 264.166 42.5 350.499 127.5s129.5 200.167 129.5 345.5v943h50v-944c0 -158 -47.833 -284 -143.5 -378s-224.5 -141 -386.5 -141s-290.667 47 -386 141s-143 220 -143 378v944h50z" />
    <glyph glyph-name="udieresiscaron" unicode="&#x1da;" horiz-adv-x="1063" 
d="M389 1253c-14.667 0 -27.5 5.33301 -38.5 16s-16.5 23.334 -16.5 38.001s5.33301 27.167 16 37.5s23.667 15.5 39 15.5c14.667 0 27.334 -5.16699 38.001 -15.5s16 -22.833 16 -37.5s-5.33301 -27.334 -16 -38.001s-23.334 -16 -38.001 -16zM667 1253
c-14.667 0 -27.334 5.33301 -38.001 16s-16 23.334 -16 38.001s5.33301 27.167 16 37.5s23.334 15.5 38.001 15.5c15.333 0 28.333 -5.16699 39 -15.5s16 -22.833 16 -37.5s-5.5 -27.334 -16.5 -38.001s-23.833 -16 -38.5 -16zM552 1511h-48l-263 291h55l231 -253h2l231 253
h55zM944 1076l0.00195312 -1076h-46v251h-2c-22 -76 -69.833 -139.5 -143.5 -190.5s-155.834 -76.5 -246.501 -76.5c-116.667 0 -211.334 35.5 -284.001 106.5s-109 165.833 -109 284.5v701h49v-694c0 -109.333 32.167 -195.166 96.5 -257.499s148.833 -93.5 253.5 -93.5
c108.667 0 199.5 36.333 272.5 109s109.5 168.334 109.5 287.001v649h50z" />
    <glyph glyph-name="Udieresisgrave" unicode="&#x1db;" horiz-adv-x="1305" 
d="M697 1755h-56l-221 202h63zM514 1557c-14.667 0 -27.167 5 -37.5 15s-15.5 22.333 -15.5 37s5.16699 27.167 15.5 37.5s22.833 15.5 37.5 15.5s27.334 -5.16699 38.001 -15.5s16 -22.833 16 -37.5s-5.33301 -27 -16 -37s-23.334 -15 -38.001 -15zM792 1557
c-14.667 0 -27.334 5 -38.001 15s-16 22.333 -16 37s5.33301 27.167 16 37.5s23.334 15.5 38.001 15.5s27.167 -5.16699 37.5 -15.5s15.5 -22.833 15.5 -37.5s-5.16699 -27 -15.5 -37s-22.833 -15 -37.5 -15zM174 1443l0.000976562 -943
c0 -145.333 43.167 -260.5 129.5 -345.5s202.833 -127.5 349.5 -127.5c147.333 0 264.166 42.5 350.499 127.5s129.5 200.167 129.5 345.5v943h50v-944c0 -158 -47.833 -284 -143.5 -378s-224.5 -141 -386.5 -141s-290.667 47 -386 141s-143 220 -143 378v944h50z" />
    <glyph glyph-name="udieresisgrave" unicode="&#x1dc;" horiz-adv-x="1063" 
d="M567 1511h-54l-252 291h66zM389 1253c-14.667 0 -27.5 5.33301 -38.5 16s-16.5 23.334 -16.5 38.001s5.33301 27.167 16 37.5s23.667 15.5 39 15.5c14.667 0 27.334 -5.16699 38.001 -15.5s16 -22.833 16 -37.5s-5.33301 -27.334 -16 -38.001s-23.334 -16 -38.001 -16z
M667 1253c-14.667 0 -27.334 5.33301 -38.001 16s-16 23.334 -16 38.001s5.33301 27.167 16 37.5s23.334 15.5 38.001 15.5c15.333 0 28.333 -5.16699 39 -15.5s16 -22.833 16 -37.5s-5.5 -27.334 -16.5 -38.001s-23.833 -16 -38.5 -16zM944 1076l0.00195312 -1076h-46v251
h-2c-22 -76 -69.833 -139.5 -143.5 -190.5s-155.834 -76.5 -246.501 -76.5c-116.667 0 -211.334 35.5 -284.001 106.5s-109 165.833 -109 284.5v701h49v-694c0 -109.333 32.167 -195.166 96.5 -257.499s148.833 -93.5 253.5 -93.5c108.667 0 199.5 36.333 272.5 109
s109.5 168.334 109.5 287.001v649h50z" />
    <glyph glyph-name="Adieresismacron" unicode="&#x1de;" horiz-adv-x="1201" 
d="M1125 0l-189 501h-671l-190 -501h-55l555 1443h51l555 -1443h-56zM598 1374l-315 -827h635l-315 827h-5zM461 1662c14.667 0 27.334 -5.16699 38.001 -15.5s16 -22.833 16 -37.5s-5.33301 -27 -16 -37s-23.334 -15 -38.001 -15s-27.167 5 -37.5 15s-15.5 22.333 -15.5 37
s5.16699 27.167 15.5 37.5s22.833 15.5 37.5 15.5zM318 1888h564v-42h-564v42zM739 1662c14.667 0 27.167 -5.16699 37.5 -15.5s15.5 -22.833 15.5 -37.5s-5.16699 -27 -15.5 -37s-22.833 -15 -37.5 -15s-27.334 5 -38.001 15s-16 22.333 -16 37s5.33301 27.167 16 37.5
s23.334 15.5 38.001 15.5z" />
    <glyph glyph-name="adieresismacron" unicode="&#x1df;" horiz-adv-x="1021" 
d="M449 30c112.667 0 209.168 35.833 289.501 107.5s120.5 157.834 120.5 258.501v182l-381 -29c-110 -8.66699 -193.833 -35.334 -251.5 -80.001s-86.5 -105.667 -86.5 -183c0 -74 29.167 -135.167 87.5 -183.5s132.166 -72.5 221.499 -72.5zM446.001 -16
c-104.667 0 -190.167 28.167 -256.5 84.5s-99.5 128.833 -99.5 217.5c0 91.333 32 162.666 96 213.999s158.667 82 284 92l389 30v97c0 102 -28.833 182 -86.5 240s-137.167 87 -238.5 87c-100.667 0 -182 -24.667 -244 -74s-100 -119 -114 -209h-47
c11.333 102 53.333 182.333 126 241s165.667 88 279 88c115.333 0 206.5 -33.167 273.5 -99.5s100.5 -156.5 100.5 -270.5v-722h-49v245h-1c-26 -77.333 -77.167 -140.166 -153.5 -188.499s-162.5 -72.5 -258.5 -72.5zM394.001 1254c-14.667 0 -27.334 5.33301 -38.001 16
s-16 23.334 -16 38.001s5.33301 27.167 16 37.5s23.334 15.5 38.001 15.5s27.334 -5.16699 38.001 -15.5s16 -22.833 16 -37.5s-5.33301 -27.334 -16 -38.001s-23.334 -16 -38.001 -16zM672.001 1254c-14.667 0 -27.334 5.33301 -38.001 16s-16 23.334 -16 38.001
s5.33301 27.167 16 37.5s23.334 15.5 38.001 15.5s27.334 -5.16699 38.001 -15.5s16 -22.833 16 -37.5s-5.33301 -27.334 -16 -38.001s-23.334 -16 -38.001 -16zM818.001 1628v-43h-584v43h584z" />
    <glyph glyph-name="Adotmacron" unicode="&#x1e0;" horiz-adv-x="1201" 
d="M1125 0l-189 501h-671l-190 -501h-55l555 1443h51l555 -1443h-56zM598 1374l-315 -827h635l-315 827h-5zM600 1555c-17.333 0 -32.333 6.33301 -45 19s-19 27.334 -19 44.001c0 17.333 6.33301 32.166 19 44.499s27.667 18.5 45 18.5s32.333 -6.16699 45 -18.5
s19 -27.166 19 -44.499c0 -16.667 -6.33301 -31.334 -19 -44.001s-27.667 -19 -45 -19zM882 1888v-42h-564v42h564z" />
    <glyph glyph-name="adotmacron" unicode="&#x1e1;" horiz-adv-x="1021" 
d="M449 30c112.667 0 209.168 35.833 289.501 107.5s120.5 157.834 120.5 258.501v182l-381 -29c-110 -8.66699 -193.833 -35.334 -251.5 -80.001s-86.5 -105.667 -86.5 -183c0 -74 29.167 -135.167 87.5 -183.5s132.166 -72.5 221.499 -72.5zM446.001 -16
c-104.667 0 -190.167 28.167 -256.5 84.5s-99.5 128.833 -99.5 217.5c0 91.333 32 162.666 96 213.999s158.667 82 284 92l389 30v97c0 102 -28.833 182 -86.5 240s-137.167 87 -238.5 87c-100.667 0 -182 -24.667 -244 -74s-100 -119 -114 -209h-47
c11.333 102 53.333 182.333 126 241s165.667 88 279 88c115.333 0 206.5 -33.167 273.5 -99.5s100.5 -156.5 100.5 -270.5v-722h-49v245h-1c-26 -77.333 -77.167 -140.166 -153.5 -188.499s-162.5 -72.5 -258.5 -72.5zM533.001 1254c-17.333 0 -32.333 6.33301 -45 19
s-19 27.667 -19 45c0 16.667 6.33301 31.334 19 44.001s27.667 19 45 19s32.333 -6.33301 45 -19s19 -27.334 19 -44.001c0 -17.333 -6.33301 -32.333 -19 -45s-27.667 -19 -45 -19zM818.001 1628v-43h-584v43h584z" />
    <glyph glyph-name="AEmacron" unicode="&#x1e2;" horiz-adv-x="1889" 
d="M819 1397l-476 -939h667v939h-191zM1010 0v411h-689l-208 -411h-55l733 1443h985v-47h-718v-633h681v-46h-681v-670h718v-47h-766zM1593 1659v-43h-564v43h564z" />
    <glyph glyph-name="aemacron" unicode="&#x1e3;" horiz-adv-x="1848" 
d="M1335 -16c-107.333 0 -199 28 -275 84s-130.333 137 -163 243h-4c-25.333 -100 -78.166 -179.5 -158.499 -238.5s-174.833 -88.5 -283.5 -88.5c-107.333 0 -194.333 27.667 -261 83s-100 127 -100 215c0 86 31.667 153.333 95 202s156.666 77 279.999 85l394 27v141
c0 97.333 -29.333 173.166 -88 227.499s-139.334 81.5 -242.001 81.5c-98.667 0 -179.667 -25 -243 -75s-101.333 -119.333 -114 -208h-48c10.667 100 52.834 179.833 126.501 239.5s166.5 89.5 278.5 89.5c106 0 193 -27.5 261 -82.5s104.333 -130.167 109 -225.5h5
c29.333 91.333 81.333 165.5 156 222.5s165.334 85.5 272.001 85.5c137.333 0 246.833 -46.167 328.5 -138.5s122.5 -215.833 122.5 -370.5v-40h-875v-7c0 -153.333 39 -276 117 -368s181.667 -138 311 -138c102 0 186.333 25 253 75s108.334 114.667 125.001 194h51
c-18.667 -93.333 -66.334 -169.166 -143.001 -227.499s-172.334 -87.5 -287.001 -87.5zM1331 1046c-122 0 -221.334 -42 -298.001 -126s-118 -194.667 -124 -332h824c0 137.333 -36.667 248 -110 332s-170.666 126 -291.999 126zM451.999 30c112.667 0 208.667 36 288 108
s119 159.667 119 263v150l-384 -26c-110 -6.66699 -193.333 -30.834 -250 -72.501s-85 -98.5 -85 -170.5c0 -73.333 29 -133.666 87 -180.999s133 -71 225 -71zM1219 1348v-43h-584v43h584z" />
    <glyph glyph-name="Gcaron" unicode="&#x1e6;" horiz-adv-x="1332" 
d="M662 1554l-266 287h59l229 -250h2l229 250h59l-266 -287h-46zM1259 564c0 -181.333 -51.1709 -323.999 -153.504 -427.999s-242.5 -156 -420.5 -156c-121.333 0 -229.166 31.5 -323.499 94.5s-167.666 151.5 -219.999 265.5s-78.5 244.333 -78.5 391
c0 219.333 57 396.166 171 530.499s264.333 201.5 451 201.5c142 0 264.833 -39.333 368.5 -118s168.834 -181.667 195.501 -309h-49c-28 114.667 -89 206.667 -183 276s-204.667 104 -332 104c-172 0 -310.333 -62.667 -415 -188s-157 -291 -157 -497
c0 -208.667 53 -378.167 159 -508.5s243.667 -195.5 413 -195.5c162.667 0 290.834 47.667 384.501 143s140.5 226 140.5 392v100h-531v46h580v-144z" />
    <glyph glyph-name="gcaron" unicode="&#x1e7;" horiz-adv-x="1106" 
d="M581 1254h-44l-265 303h56l230 -264h2l230 264h56zM521 31c122.667 0 222.667 47.168 300 141.501s116 216.166 116 365.499s-38.667 271.333 -116 366s-177.333 142 -300 142c-120.667 0 -218.5 -47 -293.5 -141s-112.5 -216.667 -112.5 -368
c0 -150 37.5 -271.833 112.5 -365.5s172.833 -140.5 293.5 -140.5zM542 -353.999c-111.333 0 -203.667 21.332 -277 63.999s-118 99 -134 169h53c14 -55.333 53.5 -100.333 118.5 -135s145.833 -52 242.5 -52c116.667 0 211.167 27.333 283.5 82
s108.5 129.334 108.5 224.001v318h-2c-22 -94.667 -71 -173.5 -147 -236.5s-165.667 -94.5 -269 -94.5c-134.667 0 -244 51.167 -328 153.5s-126 235.5 -126 399.5s42.167 297.333 126.5 400s193.5 154 327.5 154c104 0 194 -31.833 270 -95.5s125.667 -144.167 149 -241.5
h2v321h46v-1076c0 -110 -41 -196.5 -123 -259.5s-189 -94.5 -321 -94.5z" />
    <glyph glyph-name="Kcaron" unicode="&#x1e8;" horiz-adv-x="1107" 
d="M174 0h-50v1443h50v-836h4l784 836h64l-594 -635l664 -808h-64l-636 773l-222 -237v-536zM502 1554l-266 287h59l229 -250h2l229 250h59l-266 -287h-46z" />
    <glyph glyph-name="kcaron" unicode="&#x1e9;" horiz-adv-x="913" 
d="M181 503l645 573h70l-517 -463l519 -613h-65l-493 583l-161 -142v-441h-49v1506h49v-1003h2zM132 1617l-266 287h59l229 -250h2l229 250h59l-266 -287h-46z" />
    <glyph glyph-name="Oogonek" unicode="&#x1ea;" horiz-adv-x="1397" 
d="M927 -405c-0.666992 -0.666992 -9.33496 -1 -26.002 -1c-55.333 0 -100.5 16.667 -135.5 50s-52.5 76.666 -52.5 129.999c0 82 43.667 155 131 219v4c-38.667 -11.333 -87 -17 -145 -17c-196.667 0 -351.834 66.333 -465.501 199s-170.5 313.667 -170.5 543
c0 228.667 56.833 409.334 170.5 542.001s268.834 199 465.501 199c196 0 351 -66.333 465 -199s171 -313.334 171 -542.001c0 -64.667 -4.66699 -125.167 -14 -181.5s-20.833 -105.166 -34.5 -146.499s-32.167 -80.666 -55.5 -117.999s-45.166 -68 -65.499 -92
s-46.166 -48.5 -77.499 -73.5s-57.333 -44.333 -78 -58s-47 -29.834 -79 -48.501c-112.667 -69.333 -169 -144.333 -169 -225c0 -41.333 13.833 -74.833 41.5 -100.5s63.5 -38.5 107.5 -38.5h16v-45zM698.999 1416c-178.667 0 -321 -62.833 -427 -188.5
s-159 -294.167 -159 -505.5s53 -380 159 -506s248.333 -189 427 -189c178 0 320.167 63 426.5 189s159.5 294.667 159.5 506s-53.167 379.833 -159.5 505.5s-248.5 188.5 -426.5 188.5z" />
    <glyph glyph-name="oogonek" unicode="&#x1eb;" horiz-adv-x="1078" 
d="M698 -406c-53.333 0 -98.168 18 -134.501 54s-54.5 80.667 -54.5 134c0 82 41 152.333 123 211v4c-26 -8.66699 -57 -13 -93 -13c-144.667 0 -260 50.167 -346 150.5s-129 234.833 -129 403.5s43 303.167 129 403.5s201.333 150.5 346 150.5
s259.834 -50.167 345.501 -150.5s128.5 -234.833 128.5 -403.5c0 -238 -85 -406 -255 -504c-69.333 -40 -119.833 -79.833 -151.5 -119.5s-47.5 -82.5 -47.5 -128.5c0 -42.667 13.833 -77.667 41.5 -105s63.167 -41 106.5 -41h18v-45
c-0.666992 0 -5.16699 -0.166992 -13.5 -0.5s-12.833 -0.5 -13.5 -0.5zM538.998 31c128.667 0 231.667 46.167 309 138.5s116 215.166 116 368.499s-38.667 276.333 -116 369s-180.333 139 -309 139s-231.667 -46.167 -309 -138.5s-116 -215.5 -116 -369.5
c0 -153.333 38.667 -276.166 116 -368.499s180.333 -138.5 309 -138.5z" />
    <glyph glyph-name="Oogonekmacron" unicode="&#x1ec;" horiz-adv-x="1397" 
d="M927 -405c-0.666992 -0.666992 -9.33496 -1 -26.002 -1c-55.333 0 -100.5 16.667 -135.5 50s-52.5 76.666 -52.5 129.999c0 82 43.667 155 131 219v4c-38.667 -11.333 -87 -17 -145 -17c-196.667 0 -351.834 66.333 -465.501 199s-170.5 313.667 -170.5 543
c0 228.667 56.833 409.334 170.5 542.001s268.834 199 465.501 199c196 0 351 -66.333 465 -199s171 -313.334 171 -542.001c0 -64.667 -4.66699 -125.167 -14 -181.5s-20.833 -105.166 -34.5 -146.499s-32.167 -80.666 -55.5 -117.999s-45.166 -68 -65.499 -92
s-46.166 -48.5 -77.499 -73.5s-57.333 -44.333 -78 -58s-47 -29.834 -79 -48.501c-112.667 -69.333 -169 -144.333 -169 -225c0 -41.333 13.833 -74.833 41.5 -100.5s63.5 -38.5 107.5 -38.5h16v-45zM698.999 1416c-178.667 0 -321 -62.833 -427 -188.5
s-159 -294.167 -159 -505.5s53 -380 159 -506s248.333 -189 427 -189c178 0 320.167 63 426.5 189s159.5 294.667 159.5 506s-53.167 379.833 -159.5 505.5s-248.5 188.5 -426.5 188.5zM980.999 1659v-43h-564v43h564z" />
    <glyph glyph-name="oogonekmacron" unicode="&#x1ed;" horiz-adv-x="1078" 
d="M824 1347v-43h-584v43h584zM698 -406c-53.333 0 -98.168 18 -134.501 54s-54.5 80.667 -54.5 134c0 82 41 152.333 123 211v4c-26 -8.66699 -57 -13 -93 -13c-144.667 0 -260 50.167 -346 150.5s-129 234.833 -129 403.5s43 303.167 129 403.5s201.333 150.5 346 150.5
s259.834 -50.167 345.501 -150.5s128.5 -234.833 128.5 -403.5c0 -238 -85 -406 -255 -504c-69.333 -40 -119.833 -79.833 -151.5 -119.5s-47.5 -82.5 -47.5 -128.5c0 -42.667 13.833 -77.667 41.5 -105s63.167 -41 106.5 -41h18v-45
c-0.666992 0 -5.16699 -0.166992 -13.5 -0.5s-12.833 -0.5 -13.5 -0.5zM538.998 31c128.667 0 231.667 46.167 309 138.5s116 215.166 116 368.499s-38.667 276.333 -116 369s-180.333 139 -309 139s-231.667 -46.167 -309 -138.5s-116 -215.5 -116 -369.5
c0 -153.333 38.667 -276.166 116 -368.499s180.333 -138.5 309 -138.5z" />
    <glyph glyph-name="u01F1" unicode="&#x1f1;" horiz-adv-x="2459" 
d="M1377 0v42l954 1350v4h-925v47h989v-43l-953 -1349v-4h954v-47h-1019zM124 1443h436c220 0 390 -62.667 510 -188s180 -303 180 -533c0 -230.667 -60 -408.667 -180 -534s-290 -188 -510 -188h-436v1443zM175 1396v-1349h384c205.333 0 363.5 58.333 474.5 175
s166.5 283.334 166.5 500.001c0 216 -55.5 382.333 -166.5 499s-269.167 175 -474.5 175h-384z" />
    <glyph glyph-name="u01F2" unicode="&#x1f2;" horiz-adv-x="2223" 
d="M1371 0v47l734 982v2h-734v45h794v-47l-736 -982v-2h736v-45h-794zM124 1443h436c220 0 390 -62.667 510 -188s180 -303 180 -533c0 -230.667 -60 -408.667 -180 -534s-290 -188 -510 -188h-436v1443zM175 1396v-1349h384c205.333 0 363.5 58.333 474.5 175
s166.5 283.334 166.5 500.001c0 216 -55.5 382.333 -166.5 499s-269.167 175 -474.5 175h-384z" />
    <glyph glyph-name="u01F3" unicode="&#x1f3;" horiz-adv-x="2036" 
d="M1184 0v47l734 982v2h-734v45h794v-47l-736 -982v-2h736v-45h-794zM524 -16c-134.667 0 -244.833 51.5 -330.5 154.5s-128.5 236.167 -128.5 399.5c0 164 42.833 297.333 128.5 400s195.834 154 330.501 154c104 0 194.667 -31.667 272 -95s126.666 -142 147.999 -236h2
v745h50v-1506h-46v322h-2c-23.333 -97.333 -73.833 -178 -151.5 -242s-168.5 -96 -272.5 -96zM526.001 1046c-120.667 0 -219.334 -46.999 -296.001 -140.999s-115 -216 -115 -366c0 -150.667 38.333 -273 115 -367s175.334 -141 296.001 -141
c122.667 0 223.334 47.167 302.001 141.5s118 216.166 118 365.499s-39.333 271.333 -118 366s-179.334 142 -302.001 142z" />
    <glyph glyph-name="Gacute" unicode="&#x1f4;" horiz-adv-x="1332" 
d="M703 1554h-56l293 287h66zM1259 564c0 -181.333 -51.1709 -323.999 -153.504 -427.999s-242.5 -156 -420.5 -156c-121.333 0 -229.166 31.5 -323.499 94.5s-167.666 151.5 -219.999 265.5s-78.5 244.333 -78.5 391c0 219.333 57 396.166 171 530.499
s264.333 201.5 451 201.5c142 0 264.833 -39.333 368.5 -118s168.834 -181.667 195.501 -309h-49c-28 114.667 -89 206.667 -183 276s-204.667 104 -332 104c-172 0 -310.333 -62.667 -415 -188s-157 -291 -157 -497c0 -208.667 53 -378.167 159 -508.5
s243.667 -195.5 413 -195.5c162.667 0 290.834 47.667 384.501 143s140.5 226 140.5 392v100h-531v46h580v-144z" />
    <glyph glyph-name="gacute" unicode="&#x1f5;" horiz-adv-x="1106" 
d="M564 1254h-53l236 303h63zM521 31c122.667 0 222.667 47.168 300 141.501s116 216.166 116 365.499s-38.667 271.333 -116 366s-177.333 142 -300 142c-120.667 0 -218.5 -47 -293.5 -141s-112.5 -216.667 -112.5 -368c0 -150 37.5 -271.833 112.5 -365.5
s172.833 -140.5 293.5 -140.5zM542 -353.999c-111.333 0 -203.667 21.332 -277 63.999s-118 99 -134 169h53c14 -55.333 53.5 -100.333 118.5 -135s145.833 -52 242.5 -52c116.667 0 211.167 27.333 283.5 82s108.5 129.334 108.5 224.001v318h-2
c-22 -94.667 -71 -173.5 -147 -236.5s-165.667 -94.5 -269 -94.5c-134.667 0 -244 51.167 -328 153.5s-126 235.5 -126 399.5s42.167 297.333 126.5 400s193.5 154 327.5 154c104 0 194 -31.833 270 -95.5s125.667 -144.167 149 -241.5h2v321h46v-1076
c0 -110 -41 -196.5 -123 -259.5s-189 -94.5 -321 -94.5z" />
    <glyph glyph-name="Ngrave" unicode="&#x1f8;" horiz-adv-x="1315" 
d="M639 1554l-303 287h66l294 -287h-57zM174 0h-50v1443h55l958 -1348h4v1348h50v-1443h-46l-967 1359h-4v-1359z" />
    <glyph glyph-name="ngrave" unicode="&#x1f9;" horiz-adv-x="1063" 
d="M586 1254h-53l-246 303h63zM120 0l0.000976562 1076h46v-254h2c23.333 80.667 69.666 145.834 138.999 195.501s150.333 74.5 243 74.5c119.333 0 215.833 -36 289.5 -108s110.5 -168 110.5 -288v-696h-49v694c0 107.333 -33 192.833 -99 256.5s-152.333 95.5 -259 95.5
c-110 0 -199.833 -37.333 -269.5 -112s-104.5 -170.667 -104.5 -288v-646h-49z" />
    <glyph glyph-name="Aringacute" unicode="&#x1fa;" horiz-adv-x="1201" 
d="M1125 0l-189 501h-671l-190 -501h-55l555 1443h51l555 -1443h-56zM598 1374l-315 -827h635l-315 827h-5zM600 1504c-45.333 0 -84.166 16.333 -116.499 49s-48.5 71.334 -48.5 116.001c0 45.333 16.167 84.333 48.5 117s71.166 49 116.499 49s84.166 -16.333 116.499 -49
s48.5 -71.667 48.5 -117c0 -44.667 -16.167 -83.334 -48.5 -116.001s-71.166 -49 -116.499 -49zM600 1542c36 0 66 12.333 90 37s36 54.667 36 90c0 36 -12 66.333 -36 91s-54 37 -90 37s-66 -12.333 -90 -37s-36 -55 -36 -91c0 -35.333 12 -65.333 36 -90s54 -37 90 -37z
M720 2083h62l-163 -164h-53z" />
    <glyph glyph-name="aringacute" unicode="&#x1fb;" horiz-adv-x="1021" 
d="M449 30c112.667 0 209.168 35.833 289.501 107.5s120.5 157.834 120.5 258.501v182l-381 -29c-110 -8.66699 -193.833 -35.334 -251.5 -80.001s-86.5 -105.667 -86.5 -183c0 -74 29.167 -135.167 87.5 -183.5s132.166 -72.5 221.499 -72.5zM446.001 -16
c-104.667 0 -190.167 28.167 -256.5 84.5s-99.5 128.833 -99.5 217.5c0 91.333 32 162.666 96 213.999s158.667 82 284 92l389 30v97c0 102 -28.833 182 -86.5 240s-137.167 87 -238.5 87c-100.667 0 -182 -24.667 -244 -74s-100 -119 -114 -209h-47
c11.333 102 53.333 182.333 126 241s165.667 88 279 88c115.333 0 206.5 -33.167 273.5 -99.5s100.5 -156.5 100.5 -270.5v-722h-49v245h-1c-26 -77.333 -77.167 -140.166 -153.5 -188.499s-162.5 -72.5 -258.5 -72.5zM533.001 1231c-44.667 0 -83.334 16.167 -116.001 48.5
s-49 71.166 -49 116.499s16.333 84.333 49 117s71.334 49 116.001 49s83.334 -16.333 116.001 -49s49 -71.667 49 -117s-16.333 -84.166 -49 -116.499s-71.334 -48.5 -116.001 -48.5zM407.001 1396c0 -35.333 12.167 -65.333 36.5 -90s54.166 -37 89.499 -37
s65.166 12.333 89.499 37s36.5 54.667 36.5 90s-12.167 65.333 -36.5 90s-54.166 37 -89.499 37s-65.166 -12.333 -89.499 -37s-36.5 -54.667 -36.5 -90zM501.001 1648l153 165h60l-162 -165h-51z" />
    <glyph glyph-name="AEacute" unicode="&#x1fc;" horiz-adv-x="1889" 
d="M1329 1554h-56l293 287h66zM819 1397l-476 -939h667v939h-191zM1010 0v411h-689l-208 -411h-55l733 1443h985v-47h-718v-633h681v-46h-681v-670h718v-47h-766z" />
    <glyph glyph-name="aeacute" unicode="&#x1fd;" horiz-adv-x="1848" 
d="M939 1254h-53l236 303h63zM1335 -16c-107.333 0 -199 28 -275 84s-130.333 137 -163 243h-4c-25.333 -100 -78.166 -179.5 -158.499 -238.5s-174.833 -88.5 -283.5 -88.5c-107.333 0 -194.333 27.667 -261 83s-100 127 -100 215c0 86 31.667 153.333 95 202
s156.666 77 279.999 85l394 27v141c0 97.333 -29.333 173.166 -88 227.499s-139.334 81.5 -242.001 81.5c-98.667 0 -179.667 -25 -243 -75s-101.333 -119.333 -114 -208h-48c10.667 100 52.834 179.833 126.501 239.5s166.5 89.5 278.5 89.5c106 0 193 -27.5 261 -82.5
s104.333 -130.167 109 -225.5h5c29.333 91.333 81.333 165.5 156 222.5s165.334 85.5 272.001 85.5c137.333 0 246.833 -46.167 328.5 -138.5s122.5 -215.833 122.5 -370.5v-40h-875v-7c0 -153.333 39 -276 117 -368s181.667 -138 311 -138c102 0 186.333 25 253 75
s108.334 114.667 125.001 194h51c-18.667 -93.333 -66.334 -169.166 -143.001 -227.499s-172.334 -87.5 -287.001 -87.5zM1331 1046c-122 0 -221.334 -42 -298.001 -126s-118 -194.667 -124 -332h824c0 137.333 -36.667 248 -110 332s-170.666 126 -291.999 126zM451.999 30
c112.667 0 208.667 36 288 108s119 159.667 119 263v150l-384 -26c-110 -6.66699 -193.333 -30.834 -250 -72.501s-85 -98.5 -85 -170.5c0 -73.333 29 -133.666 87 -180.999s133 -71 225 -71z" />
    <glyph glyph-name="Oslashacute" unicode="&#x1fe;" horiz-adv-x="1398" 
d="M1065 1841l-303 -287h-56l293 287h66zM1136 1216l-818 -1049c101.333 -93.333 228.333 -140 381 -140c178 0 320.167 62.833 426.5 188.5s159.5 294.5 159.5 506.5c0 204 -49.667 368.667 -149 494zM287 199l820 1050c-104 111.333 -240 167 -408 167
c-179.333 0 -321.833 -62.5 -427.5 -187.5s-158.5 -293.833 -158.5 -506.5c0 -222 58 -396.333 174 -523zM1325 1458l-157.001 -202.001c111.333 -133.333 167 -311.333 167 -534c0 -227.333 -57.333 -407.833 -172 -541.5s-269.334 -200.5 -464.001 -200.5
c-165.333 0 -302.666 49 -411.999 147l-173 -222l-37 25l178 228c-128 134 -192 322 -192 564c0 226.667 57.333 406.834 172 540.501s269.334 200.5 464.001 200.5c180 0 326.333 -58 439 -174l151 194z" />
    <glyph glyph-name="oslashacute" unicode="&#x1ff;" horiz-adv-x="1078" 
d="M829 1557l-246 -303h-53l236 303h63zM850 905l-566 -788c69.333 -57.333 154.333 -86 255 -86c128 0 230.833 45.833 308.5 137.5s116.5 214.834 116.5 369.501c0 153.333 -38 275.666 -114 366.999zM250 147l569 790.999c-74 72 -167.333 108 -280 108
c-128 0 -230.667 -45.833 -308 -137.5s-116 -215.167 -116 -370.5c0 -167.333 45 -297.666 135 -390.999zM999 1112l-120 -167c89.333 -100.667 134 -236.334 134 -407.001c0 -168.667 -43.5 -303.167 -130.5 -403.5s-201.5 -150.5 -343.5 -150.5
c-110 0 -204.667 31 -284 93l-125 -174l-37 26l128 178c-104 100.667 -156 244.334 -156 431.001c0 168.667 43.5 303.167 130.5 403.5s201.5 150.5 343.5 150.5c123.333 0 226 -38 308 -114l115 159z" />
    <glyph glyph-name="Adblgrave" unicode="&#x200;" horiz-adv-x="1201" 
d="M1125 0l-189 501h-671l-190 -501h-55l555 1443h51l555 -1443h-56zM598 1374l-315 -827h635l-315 827h-5zM690 1554l-303 287h66l293 -287h-56zM436 1554l-303 287h65l294 -287h-56z" />
    <glyph glyph-name="adblgrave" unicode="&#x201;" horiz-adv-x="1021" 
d="M449 30c112.667 0 209.168 35.833 289.501 107.5s120.5 157.834 120.5 258.501v182l-381 -29c-110 -8.66699 -193.833 -35.334 -251.5 -80.001s-86.5 -105.667 -86.5 -183c0 -74 29.167 -135.167 87.5 -183.5s132.166 -72.5 221.499 -72.5zM446.001 -16
c-104.667 0 -190.167 28.167 -256.5 84.5s-99.5 128.833 -99.5 217.5c0 91.333 32 162.666 96 213.999s158.667 82 284 92l389 30v97c0 102 -28.833 182 -86.5 240s-137.167 87 -238.5 87c-100.667 0 -182 -24.667 -244 -74s-100 -119 -114 -209h-47
c11.333 102 53.333 182.333 126 241s165.667 88 279 88c115.333 0 206.5 -33.167 273.5 -99.5s100.5 -156.5 100.5 -270.5v-722h-49v245h-1c-26 -77.333 -77.167 -140.166 -153.5 -188.499s-162.5 -72.5 -258.5 -72.5zM449.001 1254h-52l-245 303h62zM672.001 1254h-52
l-245 303h62z" />
    <glyph glyph-name="Ainvertedbreve" unicode="&#x202;" horiz-adv-x="1201" 
d="M1125 0l-189 501h-671l-190 -501h-55l555 1443h51l555 -1443h-56zM598 1374l-315 -827h635l-315 827h-5zM343 1554c0 66 23.833 118.667 71.5 158s109.5 59 185.5 59s137.833 -19.667 185.5 -59s71.5 -92 71.5 -158h-45c0 50 -19.5 91.5 -58.5 124.5
s-90.167 49.5 -153.5 49.5s-114.5 -16.5 -153.5 -49.5s-58.5 -74.5 -58.5 -124.5h-45z" />
    <glyph glyph-name="ainvertedbreve" unicode="&#x203;" horiz-adv-x="1021" 
d="M449 30c112.667 0 209.168 35.833 289.501 107.5s120.5 157.834 120.5 258.501v182l-381 -29c-110 -8.66699 -193.833 -35.334 -251.5 -80.001s-86.5 -105.667 -86.5 -183c0 -74 29.167 -135.167 87.5 -183.5s132.166 -72.5 221.499 -72.5zM446.001 -16
c-104.667 0 -190.167 28.167 -256.5 84.5s-99.5 128.833 -99.5 217.5c0 91.333 32 162.666 96 213.999s158.667 82 284 92l389 30v97c0 102 -28.833 182 -86.5 240s-137.167 87 -238.5 87c-100.667 0 -182 -24.667 -244 -74s-100 -119 -114 -209h-47
c11.333 102 53.333 182.333 126 241s165.667 88 279 88c115.333 0 206.5 -33.167 273.5 -99.5s100.5 -156.5 100.5 -270.5v-722h-49v245h-1c-26 -77.333 -77.167 -140.166 -153.5 -188.499s-162.5 -72.5 -258.5 -72.5zM275.001 1254c0 74 24.002 131.833 72.002 173.5
s110 62.5 186 62.5s138 -20.833 186 -62.5s72 -99.5 72 -173.5h-45c0 58.667 -19.333 105.5 -58 140.5s-90.334 52.5 -155.001 52.5s-116.334 -17.5 -155.001 -52.5s-58 -81.833 -58 -140.5h-45z" />
    <glyph glyph-name="Edblgrave" unicode="&#x204;" horiz-adv-x="1050" 
d="M627 1554l-303 287h66l293 -287h-56zM373 1554l-303 287h65l294 -287h-56zM950 47v-47h-826v1443h826v-47h-776v-632h740v-46h-740v-671h776z" />
    <glyph glyph-name="edblgrave" unicode="&#x205;" horiz-adv-x="1056" 
d="M533 1046c-120 0 -218 -42.5 -294 -127.5s-117 -197.5 -123 -337.5h825c0 138 -37.5 250 -112.5 336s-173.5 129 -295.5 129zM926 299l50.999 -0.000976562c-18.667 -93.333 -66.667 -169.166 -144 -227.499s-174.666 -87.5 -291.999 -87.5
c-146 0 -261.833 49 -347.5 147s-128.5 233.667 -128.5 407c0 166.667 42.667 300.667 128 402s198.666 152 339.999 152c136.667 0 247.167 -47.667 331.5 -143s126.5 -220.333 126.5 -375v-38h-876v-2c0 -158 38.667 -281.5 116 -370.5s181 -133.5 311 -133.5
c104 0 189.833 25 257.5 75s109.834 114.667 126.501 194zM448.999 1254h-52l-245 303h62zM671.999 1254h-52l-245 303h62z" />
    <glyph glyph-name="Einvertedbreve" unicode="&#x206;" horiz-adv-x="1050" 
d="M950 47v-47h-826v1443h826v-47h-776v-632h740v-46h-740v-671h776zM280 1554c0 66 23.833 118.667 71.5 158s109.5 59 185.5 59s137.833 -19.667 185.5 -59s71.5 -92 71.5 -158h-45c0 50 -19.5 91.5 -58.5 124.5s-90.167 49.5 -153.5 49.5s-114.5 -16.5 -153.5 -49.5
s-58.5 -74.5 -58.5 -124.5h-45z" />
    <glyph glyph-name="einvertedbreve" unicode="&#x207;" horiz-adv-x="1056" 
d="M533 1046c-120 0 -218 -42.5 -294 -127.5s-117 -197.5 -123 -337.5h825c0 138 -37.5 250 -112.5 336s-173.5 129 -295.5 129zM926 299l50.999 -0.000976562c-18.667 -93.333 -66.667 -169.166 -144 -227.499s-174.666 -87.5 -291.999 -87.5
c-146 0 -261.833 49 -347.5 147s-128.5 233.667 -128.5 407c0 166.667 42.667 300.667 128 402s198.666 152 339.999 152c136.667 0 247.167 -47.667 331.5 -143s126.5 -220.333 126.5 -375v-38h-876v-2c0 -158 38.667 -281.5 116 -370.5s181 -133.5 311 -133.5
c104 0 189.833 25 257.5 75s109.834 114.667 126.501 194zM274.999 1254c0 74 24.002 131.833 72.002 173.5s110 62.5 186 62.5s138 -20.833 186 -62.5s72 -99.5 72 -173.5h-45c0 58.667 -19.333 105.5 -58 140.5s-90.334 52.5 -155.001 52.5s-116.334 -17.5 -155.001 -52.5
s-58 -81.833 -58 -140.5h-45z" />
    <glyph glyph-name="Idblgrave" unicode="&#x208;" horiz-adv-x="298" 
d="M174 0h-50v1443h50v-1443zM239 1554l-303 287h66l293 -287h-56zM-15 1554l-303 287h65l294 -287h-56z" />
    <glyph glyph-name="idblgrave" unicode="&#x209;" horiz-adv-x="309" 
d="M130 0v1076h49v-1076h-49zM71 1254h-52l-245 303h62zM294 1254h-52l-245 303h62z" />
    <glyph glyph-name="Iinvertedbreve" unicode="&#x20a;" horiz-adv-x="298" 
d="M174 0h-50v1443h50v-1443zM-108 1554c0 66 23.833 118.667 71.5 158s109.5 59 185.5 59s137.833 -19.667 185.5 -59s71.5 -92 71.5 -158h-45c0 50 -19.5 91.5 -58.5 124.5s-90.167 49.5 -153.5 49.5s-114.5 -16.5 -153.5 -49.5s-58.5 -74.5 -58.5 -124.5h-45z" />
    <glyph glyph-name="iinvertedbreve" unicode="&#x20b;" horiz-adv-x="309" 
d="M130 0v1076h49v-1076h-49zM-103 1254c0 74 24.002 131.833 72.002 173.5s110 62.5 186 62.5s138 -20.833 186 -62.5s72 -99.5 72 -173.5h-45c0 58.667 -19.333 105.5 -58 140.5s-90.334 52.5 -155.001 52.5s-116.334 -17.5 -155.001 -52.5s-58 -81.833 -58 -140.5h-45z
" />
    <glyph glyph-name="Odblgrave" unicode="&#x20c;" horiz-adv-x="1398" 
d="M789 1554l-303 287h66l293 -287h-56zM535 1554l-303 287h65l294 -287h-56zM699 1463c194 0 348.499 -66.833 463.499 -200.5s172.5 -313.834 172.5 -540.501c0 -227.333 -57.333 -407.833 -172 -541.5s-269.334 -200.5 -464.001 -200.5
c-195.333 0 -350.166 66.833 -464.499 200.5s-171.5 314.167 -171.5 541.5c0 226.667 57.333 406.834 172 540.501s269.334 200.5 464.001 200.5zM698.999 1416c-179.333 0 -321.833 -62.5 -427.5 -187.5s-158.5 -293.833 -158.5 -506.5c0 -212 53 -380.833 159 -506.5
s248.333 -188.5 427 -188.5c178 0 320.167 62.833 426.5 188.5s159.5 294.5 159.5 506.5s-53 380.667 -159 506s-248.333 188 -427 188z" />
    <glyph glyph-name="odblgrave" unicode="&#x20d;" horiz-adv-x="1078" 
d="M539 -16c-142.667 0 -257.333 50.167 -344 150.5s-130 234.833 -130 403.5s43.5 303.167 130.5 403.5s201.5 150.5 343.5 150.5s256.5 -50.167 343.5 -150.5s130.5 -234.833 130.5 -403.5s-43.5 -303.167 -130.5 -403.5s-201.5 -150.5 -343.5 -150.5zM539.001 31
c128 0 230.833 45.8311 308.5 137.498s116.5 214.834 116.5 369.501c0 155.333 -38.833 278.833 -116.5 370.5s-180.5 137.5 -308.5 137.5s-230.667 -45.833 -308 -137.5s-116 -215.167 -116 -370.5s38.667 -278.666 116 -369.999s180 -137 308 -137zM455.001 1253h-52
l-245 303h62zM678.001 1253h-52l-245 303h62z" />
    <glyph glyph-name="Oinvertedbreve" unicode="&#x20e;" horiz-adv-x="1398" 
d="M442 1554c0 66 23.833 118.667 71.5 158s109.5 59 185.5 59s137.833 -19.667 185.5 -59s71.5 -92 71.5 -158h-45c0 50 -19.5 91.5 -58.5 124.5s-90.167 49.5 -153.5 49.5s-114.5 -16.5 -153.5 -49.5s-58.5 -74.5 -58.5 -124.5h-45zM699 1463
c194 0 348.499 -66.833 463.499 -200.5s172.5 -313.834 172.5 -540.501c0 -227.333 -57.333 -407.833 -172 -541.5s-269.334 -200.5 -464.001 -200.5c-195.333 0 -350.166 66.833 -464.499 200.5s-171.5 314.167 -171.5 541.5c0 226.667 57.333 406.834 172 540.501
s269.334 200.5 464.001 200.5zM698.999 1416c-179.333 0 -321.833 -62.5 -427.5 -187.5s-158.5 -293.833 -158.5 -506.5c0 -212 53 -380.833 159 -506.5s248.333 -188.5 427 -188.5c178 0 320.167 62.833 426.5 188.5s159.5 294.5 159.5 506.5s-53 380.667 -159 506
s-248.333 188 -427 188z" />
    <glyph glyph-name="oinvertedbreve" unicode="&#x20f;" horiz-adv-x="1078" 
d="M539 -16c-142.667 0 -257.333 50.167 -344 150.5s-130 234.833 -130 403.5s43.5 303.167 130.5 403.5s201.5 150.5 343.5 150.5s256.5 -50.167 343.5 -150.5s130.5 -234.833 130.5 -403.5s-43.5 -303.167 -130.5 -403.5s-201.5 -150.5 -343.5 -150.5zM539.001 31
c128 0 230.833 45.8311 308.5 137.498s116.5 214.834 116.5 369.501c0 155.333 -38.833 278.833 -116.5 370.5s-180.5 137.5 -308.5 137.5s-230.667 -45.833 -308 -137.5s-116 -215.167 -116 -370.5s38.667 -278.666 116 -369.999s180 -137 308 -137zM281.001 1253
c0 74 24.002 131.833 72.002 173.5s110 62.5 186 62.5s138 -20.833 186 -62.5s72 -99.5 72 -173.5h-45c0 58.667 -19.333 105.5 -58 140.5s-90.334 52.5 -155.001 52.5s-116.334 -17.5 -155.001 -52.5s-58 -81.833 -58 -140.5h-45z" />
    <glyph glyph-name="Rdblgrave" unicode="&#x210;" horiz-adv-x="1124" 
d="M573 1554l-303 287h66l293 -287h-56zM319 1554l-303 287h65l294 -287h-56zM174 1396l-0.000976562 -719.998h397c128.667 0 229.834 32.167 303.501 96.5s110.5 152.166 110.5 263.499c0 113.333 -36.667 201.666 -110 264.999s-175 95 -305 95h-396zM173.999 630.002
v-630h-50v1443h448c144 0 257.333 -36.167 340 -108.5s124 -171.833 124 -298.5c0 -105.333 -30.667 -193 -92 -263s-146.333 -114.333 -255 -133l381 -640h-57l-376 632c-24 -1.33301 -46 -2 -66 -2h-397z" />
    <glyph glyph-name="rdblgrave" unicode="&#x211;" horiz-adv-x="603" 
d="M120 0l0.000976562 1076h46v-223h2c23.333 78 60.166 137.333 110.499 178s112.5 61 186.5 61c39.333 0 75.333 -7 108 -21v-51c-33.333 16.667 -72 25 -116 25c-88 0 -158 -34.833 -210 -104.5s-78 -159.834 -78 -270.501v-670h-49zM250.001 1254h-52l-245 303h62z
M473.001 1254h-52l-245 303h62z" />
    <glyph glyph-name="Rinvertedbreve" unicode="&#x212;" horiz-adv-x="1124" 
d="M174 1396l-0.000976562 -719.998h397c128.667 0 229.834 32.167 303.501 96.5s110.5 152.166 110.5 263.499c0 113.333 -36.667 201.666 -110 264.999s-175 95 -305 95h-396zM173.999 630.002v-630h-50v1443h448c144 0 257.333 -36.167 340 -108.5
s124 -171.833 124 -298.5c0 -105.333 -30.667 -193 -92 -263s-146.333 -114.333 -255 -133l381 -640h-57l-376 632c-24 -1.33301 -46 -2 -66 -2h-397zM225.999 1554c0 66 23.833 118.667 71.5 158s109.5 59 185.5 59s137.833 -19.667 185.5 -59s71.5 -92 71.5 -158h-45
c0 50 -19.5 91.5 -58.5 124.5s-90.167 49.5 -153.5 49.5s-114.5 -16.5 -153.5 -49.5s-58.5 -74.5 -58.5 -124.5h-45z" />
    <glyph glyph-name="rinvertedbreve" unicode="&#x213;" horiz-adv-x="603" 
d="M120 0l0.000976562 1076h46v-223h2c23.333 78 60.166 137.333 110.499 178s112.5 61 186.5 61c39.333 0 75.333 -7 108 -21v-51c-33.333 16.667 -72 25 -116 25c-88 0 -158 -34.833 -210 -104.5s-78 -159.834 -78 -270.501v-670h-49zM76.001 1254
c0 74 24.002 131.833 72.002 173.5s110 62.5 186 62.5s138 -20.833 186 -62.5s72 -99.5 72 -173.5h-45c0 58.667 -19.333 105.5 -58 140.5s-90.334 52.5 -155.001 52.5s-116.334 -17.5 -155.001 -52.5s-58 -81.833 -58 -140.5h-45z" />
    <glyph glyph-name="Udblgrave" unicode="&#x214;" horiz-adv-x="1305" 
d="M743 1554l-303 287h66l293 -287h-56zM489 1554l-303 287h65l294 -287h-56zM174 1443l0.000976562 -943c0 -145.333 43.167 -260.5 129.5 -345.5s202.833 -127.5 349.5 -127.5c147.333 0 264.166 42.5 350.499 127.5s129.5 200.167 129.5 345.5v943h50v-944
c0 -158 -47.833 -284 -143.5 -378s-224.5 -141 -386.5 -141s-290.667 47 -386 141s-143 220 -143 378v944h50z" />
    <glyph glyph-name="udblgrave" unicode="&#x215;" horiz-adv-x="1063" 
d="M944 1076l0.00195312 -1076h-46v251h-2c-22 -76 -69.833 -139.5 -143.5 -190.5s-155.834 -76.5 -246.501 -76.5c-116.667 0 -211.334 35.5 -284.001 106.5s-109 165.833 -109 284.5v701h49v-694c0 -109.333 32.167 -195.166 96.5 -257.499s148.833 -93.5 253.5 -93.5
c108.667 0 199.5 36.333 272.5 109s109.5 168.334 109.5 287.001v649h50zM444.002 1253h-52l-245 303h62zM667.002 1253h-52l-245 303h62z" />
    </font>
</defs>
</svg>
