<?xml version="1.0" standalone="no"?>
<!DOCTYPE svg PUBLIC "-//W3C//DTD SVG 20010904//EN"
 "http://www.w3.org/TR/2001/REC-SVG-20010904/DTD/svg10.dtd">
<svg version="1.0" xmlns="http://www.w3.org/2000/svg"
 width="80.000000pt" height="80.000000pt" viewBox="0 0 80.000000 80.000000"
 preserveAspectRatio="xMidYMid meet">

<g transform="translate(0.000000,80.000000) scale(0.100000,-0.100000)"
fill="#000000" stroke="none">
<path d="M520 613 c0 -9 12 -30 27 -45 l27 -28 -104 -105 -105 -105 23 -22 22
-23 105 105 105 104 35 -34 c45 -44 55 -33 55 67 0 106 3 103 -101 103 -77 0
-89 -2 -89 -17z"/>
<path d="M199 575 c-39 -21 -49 -63 -49 -205 0 -212 8 -220 220 -220 165 0
193 9 210 68 16 51 10 127 -10 127 -11 0 -16 -15 -18 -65 -2 -35 -8 -70 -14
-77 -14 -18 -318 -19 -336 -1 -18 18 -17 322 1 336 8 7 67 13 138 14 102 3
124 6 124 18 0 22 -228 26 -266 5z"/>
</g>
</svg>
