<?xml version="1.0" standalone="no"?>
<!DOCTYPE svg PUBLIC "-//W3C//DTD SVG 20010904//EN"
 "http://www.w3.org/TR/2001/REC-SVG-20010904/DTD/svg10.dtd">
<svg version="1.0" xmlns="http://www.w3.org/2000/svg"
 width="80.000000pt" height="80.000000pt" viewBox="0 0 80.000000 80.000000"
 preserveAspectRatio="xMidYMid meet">

<g transform="translate(0.000000,80.000000) scale(0.100000,-0.100000)"
fill="#000000" stroke="none">
<path d="M155 575 c-25 -24 -25 -27 -25 -195 0 -233 -14 -220 234 -220 122 0
194 4 211 12 33 15 145 153 145 178 0 27 -38 50 -82 50 -37 0 -38 1 -38 38 0
68 -14 77 -133 80 l-105 4 -6 29 c-7 37 -37 49 -117 49 -50 0 -64 -4 -84 -25z
m173 -47 c2 -14 9 -31 16 -37 7 -6 59 -12 117 -13 l104 -3 3 -37 3 -36 -142
-4 -141 -3 -57 -63 c-31 -34 -59 -62 -63 -62 -14 0 -9 265 4 278 9 9 37 12 83
10 68 -3 70 -4 73 -30z m362 -178 c0 -5 -27 -41 -60 -80 l-61 -70 -194 0
c-136 0 -195 3 -195 11 0 12 71 103 103 132 17 15 43 17 213 17 119 0 194 -4
194 -10z"/>
</g>
</svg>
