<?xml version="1.0" standalone="no"?>
<!DOCTYPE svg PUBLIC "-//W3C//DTD SVG 20010904//EN"
 "http://www.w3.org/TR/2001/REC-SVG-20010904/DTD/svg10.dtd">
<svg version="1.0" xmlns="http://www.w3.org/2000/svg"
 width="80.000000pt" height="80.000000pt" viewBox="0 0 80.000000 80.000000"
 preserveAspectRatio="xMidYMid meet">

<g transform="translate(0.000000,80.000000) scale(0.100000,-0.100000)"
fill="#000000" stroke="none">
<path d="M90 600 c0 -53 2 -60 20 -60 19 0 20 -7 20 -160 0 -153 -1 -160 -20
-160 -17 0 -20 -7 -20 -50 l0 -50 55 0 c30 0 55 5 55 10 0 6 75 10 205 10 130
0 205 -4 205 -10 0 -5 25 -10 55 -10 l55 0 0 50 c0 43 -3 50 -20 50 -19 0 -20
7 -20 160 0 153 1 160 20 160 18 0 20 7 20 60 l0 60 -55 0 c-48 0 -55 -2 -55
-20 0 -19 -7 -20 -205 -20 -198 0 -205 1 -205 20 0 18 -7 20 -55 20 l-55 0 0
-60z m80 0 c0 -15 -7 -20 -25 -20 -18 0 -25 5 -25 20 0 15 7 20 25 20 18 0 25
-5 25 -20z m520 0 c0 -15 -7 -20 -25 -20 -18 0 -25 5 -25 20 0 15 7 20 25 20
18 0 25 -5 25 -20z m-80 -40 c0 -13 7 -20 20 -20 19 0 20 -7 20 -160 0 -153
-1 -160 -20 -160 -13 0 -20 -7 -20 -20 0 -19 -7 -20 -205 -20 -198 0 -205 1
-205 20 0 13 -7 20 -20 20 -19 0 -20 7 -20 160 0 153 1 160 20 160 13 0 20 7
20 20 0 19 7 20 205 20 198 0 205 -1 205 -20z m-440 -400 c0 -15 -7 -20 -25
-20 -18 0 -25 5 -25 20 0 15 7 20 25 20 18 0 25 -5 25 -20z m520 0 c0 -15 -7
-20 -25 -20 -18 0 -25 5 -25 20 0 15 7 20 25 20 18 0 25 -5 25 -20z"/>
<path d="M210 420 l0 -120 60 0 60 0 0 -40 0 -40 135 0 135 0 0 120 0 120 -60
0 -60 0 0 40 0 40 -135 0 -135 0 0 -120z m240 0 l0 -80 -105 0 -105 0 0 80 0
80 105 0 105 0 0 -80z m120 -80 l0 -80 -105 0 c-98 0 -105 1 -105 20 0 18 7
20 60 20 l60 0 0 60 0 60 45 0 45 0 0 -80z"/>
</g>
</svg>
