<?xml version="1.0" standalone="no"?>
<!DOCTYPE svg PUBLIC "-//W3C//DTD SVG 20010904//EN"
 "http://www.w3.org/TR/2001/REC-SVG-20010904/DTD/svg10.dtd">
<svg version="1.0" xmlns="http://www.w3.org/2000/svg"
 width="80.000000pt" height="80.000000pt" viewBox="0 0 80.000000 80.000000"
 preserveAspectRatio="xMidYMid meet">

<g transform="translate(0.000000,80.000000) scale(0.100000,-0.100000)"
fill="#000000" stroke="none">
<path d="M360 581 c-5 -11 -10 -47 -10 -80 l0 -60 -72 -3 c-69 -3 -73 -4 -82
-30 -6 -18 -6 -38 0 -55 9 -27 13 -28 82 -31 l72 -3 0 -60 c0 -81 11 -99 60
-99 49 0 60 18 60 99 l0 60 72 3 c69 3 73 4 82 31 6 17 6 37 0 55 -9 26 -13
27 -82 30 l-72 3 0 60 c0 81 -11 99 -60 99 -29 0 -42 -5 -50 -19z"/>
</g>
</svg>
