<?xml version="1.0" standalone="no"?>
<!DOCTYPE svg PUBLIC "-//W3C//DTD SVG 20010904//EN"
 "http://www.w3.org/TR/2001/REC-SVG-20010904/DTD/svg10.dtd">
<svg version="1.0" xmlns="http://www.w3.org/2000/svg"
 width="80.000000pt" height="80.000000pt" viewBox="0 0 80.000000 80.000000"
 preserveAspectRatio="xMidYMid meet">

<g transform="translate(0.000000,80.000000) scale(0.100000,-0.100000)"
fill="#000000" stroke="none">
<path d="M164 607 c-2 -7 -3 -114 -2 -237 l3 -225 219 -3 c153 -2 223 1 232 9
11 9 14 48 14 172 l0 160 -68 69 -69 68 -162 0 c-122 0 -163 -3 -167 -13z m78
-104 l3 -78 99 -3 c64 -2 103 1 112 9 10 8 14 34 14 80 0 86 9 88 79 15 l51
-55 0 -145 0 -146 -25 0 c-24 0 -25 2 -25 69 0 46 -5 72 -14 80 -9 8 -59 11
-152 9 l-139 -3 -3 -77 c-3 -75 -4 -78 -27 -78 l-25 0 0 200 0 200 25 0 c23 0
24 -3 27 -77z m198 17 l0 -60 -45 0 -45 0 0 60 0 60 45 0 45 0 0 -60z m80
-280 l0 -60 -125 0 -125 0 0 60 0 60 125 0 125 0 0 -60z"/>
</g>
</svg>
