<?xml version="1.0" standalone="no"?>
<!DOCTYPE svg PUBLIC "-//W3C//DTD SVG 20010904//EN"
 "http://www.w3.org/TR/2001/REC-SVG-20010904/DTD/svg10.dtd">
<svg version="1.0" xmlns="http://www.w3.org/2000/svg"
 width="80.000000pt" height="80.000000pt" viewBox="0 0 80.000000 80.000000"
 preserveAspectRatio="xMidYMid meet">

<g transform="translate(0.000000,80.000000) scale(0.100000,-0.100000)"
fill="#000000" stroke="none">
<path d="M320 631 c-84 -27 -132 -75 -156 -157 -14 -49 -14 -59 0 -108 19 -65
54 -109 110 -138 52 -28 137 -29 184 -4 l34 17 64 -61 c43 -41 70 -60 80 -56
9 3 18 6 20 6 2 0 4 12 4 27 0 20 -16 43 -56 84 -55 56 -56 57 -41 85 36 72
24 171 -30 234 -48 57 -151 91 -213 71z m127 -91 c87 -52 83 -198 -6 -245 -98
-50 -211 16 -211 123 0 85 56 142 140 142 27 0 58 -8 77 -20z"/>
</g>
</svg>
