<?xml version="1.0" standalone="no"?>
<!DOCTYPE svg PUBLIC "-//W3C//DTD SVG 20010904//EN"
 "http://www.w3.org/TR/2001/REC-SVG-20010904/DTD/svg10.dtd">
<svg version="1.0" xmlns="http://www.w3.org/2000/svg"
 width="80.000000pt" height="80.000000pt" viewBox="0 0 80.000000 80.000000"
 preserveAspectRatio="xMidYMid meet">

<g transform="translate(0.000000,80.000000) scale(0.100000,-0.100000)"
fill="#000000" stroke="none">
<path d="M513 659 c-7 -7 -9 -24 -6 -40 4 -23 2 -28 -18 -31 -18 -2 -24 -9
-24 -28 0 -19 6 -26 24 -28 20 -3 22 -8 18 -32 -8 -37 19 -63 38 -37 15 21 38
22 55 2 9 -11 17 -12 31 -5 15 9 17 15 9 36 -9 22 -7 26 20 36 18 6 30 17 30
28 0 11 -12 22 -30 28 -27 10 -29 14 -20 36 8 21 6 27 -9 36 -14 7 -22 6 -31
-5 -16 -19 -46 -19 -54 0 -6 18 -18 19 -33 4z m101 -81 c14 -23 -3 -52 -33
-56 -42 -6 -67 38 -39 66 17 17 58 11 72 -10z"/>
<path d="M255 571 c-8 -36 -26 -44 -55 -24 -20 14 -23 13 -45 -7 -22 -21 -23
-24 -8 -46 20 -31 10 -54 -22 -54 -23 0 -25 -4 -25 -40 0 -36 3 -40 24 -40 33
0 40 -15 25 -51 -11 -27 -10 -33 8 -51 19 -19 22 -19 46 -4 23 16 26 16 41 1
9 -9 16 -25 16 -36 0 -17 6 -20 33 -17 26 2 33 8 35 30 4 33 26 42 57 22 22
-14 25 -14 44 5 23 23 26 37 11 46 -5 3 -10 17 -10 31 0 20 5 24 31 24 29 0
30 2 27 38 -3 32 -7 37 -30 40 -21 3 -28 9 -28 26 0 12 5 27 12 34 9 9 6 17
-12 37 -22 23 -25 24 -46 10 -31 -20 -54 -9 -54 26 0 26 -3 29 -34 29 -30 0
-35 -4 -41 -29z m96 -110 c33 -27 33 -95 0 -122 -54 -44 -141 -6 -141 61 0 67
87 105 141 61z"/>
<path d="M513 339 c-7 -7 -9 -24 -6 -40 4 -23 2 -28 -18 -31 -18 -2 -24 -9
-24 -28 0 -19 6 -26 24 -28 20 -3 22 -8 18 -32 -8 -37 19 -63 38 -37 15 21 38
22 55 2 9 -11 17 -12 31 -5 15 9 17 15 9 36 -9 22 -7 26 20 36 18 6 30 17 30
28 0 11 -12 22 -30 28 -27 10 -29 14 -20 36 8 21 6 27 -9 36 -14 7 -22 6 -31
-5 -16 -19 -46 -19 -54 0 -6 18 -18 19 -33 4z m101 -81 c14 -23 -3 -52 -33
-56 -42 -6 -67 38 -39 66 17 17 58 11 72 -10z"/>
</g>
</svg>
